{"glyphs":{"0":{"ha":817,"x_min":97,"x_max":719,"o":"m 97 492 q 122 225 97 333 q 215 53 147 117 q 408 -10 283 -10 q 601 53 532 -10 q 694 225 669 117 q 719 492 719 333 q 694 755 719 647 q 601 925 669 863 q 408 988 532 988 q 215 925 283 988 q 122 756 147 863 q 97 492 97 649 m 692 492 q 669 238 692 340 q 585 75 647 135 q 408 15 524 15 q 231 75 293 15 q 147 238 169 135 q 125 492 125 340 q 147 743 125 642 q 231 903 169 844 q 408 963 293 963 q 585 903 524 963 q 669 743 647 844 q 692 492 692 642 z "},"1":{"ha":314,"x_min":21,"x_max":196,"o":"m 21 953 l 21 978 l 196 978 l 196 0 l 168 0 l 168 953 l 21 953 z "},"2":{"ha":788,"x_min":69,"x_max":718,"o":"m 69 15 q 499 371 340 190 q 657 715 657 551 q 599 893 657 824 q 407 963 540 963 q 201 881 272 963 q 119 667 129 800 l 92 667 q 185 902 103 817 q 407 988 268 988 q 605 922 525 988 q 685 715 685 857 q 597 460 685 592 q 381 215 510 328 q 122 25 251 101 l 718 25 l 718 0 l 69 0 l 69 15 z "},"3":{"ha":799,"x_min":74,"x_max":706,"o":"m 413 988 q 615 919 543 988 q 688 746 688 851 q 631 591 688 657 q 444 514 574 525 l 444 506 q 636 417 567 478 q 706 249 706 357 q 632 63 706 136 q 411 -10 558 -10 q 185 65 274 -10 q 74 274 97 139 l 101 274 q 202 89 122 160 q 411 18 282 18 q 610 83 542 18 q 678 249 678 147 q 582 433 678 369 q 314 496 486 496 l 290 496 l 290 522 l 315 522 q 660 746 660 522 q 594 903 660 843 q 413 963 529 963 q 217 903 299 963 q 119 717 135 843 l 92 717 q 189 915 106 843 q 413 988 272 988 z "},"4":{"ha":797,"x_min":28,"x_max":776,"o":"m 28 264 l 28 286 l 579 978 l 607 978 l 607 289 l 776 289 l 776 264 l 607 264 l 607 0 l 579 0 l 579 264 l 28 264 m 579 933 l 63 289 l 579 289 l 579 933 z "},"5":{"ha":822,"x_min":97,"x_max":746,"o":"m 699 953 l 140 953 l 140 508 q 258 604 181 568 q 428 640 336 640 q 667 551 589 640 q 746 328 746 461 q 713 160 746 236 q 606 37 679 83 q 422 -10 533 -10 q 204 64 292 -10 q 97 267 117 138 l 125 267 q 228 82 149 146 q 421 18 307 18 q 643 103 568 18 q 718 328 718 189 q 642 538 718 461 q 428 615 567 615 q 256 575 332 615 q 138 463 179 535 l 113 463 l 113 978 l 699 978 l 699 953 z "},"6":{"ha":853,"x_min":97,"x_max":769,"o":"m 701 725 q 622 901 686 839 q 444 964 557 964 q 206 851 289 964 q 124 486 124 738 q 125 413 124 438 q 233 585 143 521 q 447 650 322 650 q 685 560 601 650 q 769 311 769 469 q 738 153 769 225 q 635 35 706 81 q 454 -10 564 -10 q 172 120 247 -10 q 97 471 97 250 q 178 854 97 719 q 444 989 260 989 q 642 918 569 989 q 729 725 714 847 l 701 725 m 133 340 q 167 183 133 257 q 272 62 200 108 q 454 15 344 15 q 663 94 585 15 q 742 311 742 174 q 663 544 742 464 q 447 625 585 625 q 298 593 369 625 q 180 497 226 561 q 133 340 133 433 z "},"7":{"ha":697,"x_min":14,"x_max":642,"o":"m 642 953 l 253 0 l 221 0 l 615 953 l 14 953 l 14 978 l 642 978 l 642 953 z "},"8":{"ha":844,"x_min":76,"x_max":768,"o":"m 104 739 q 189 919 104 851 q 422 988 274 988 q 656 919 571 988 q 740 739 740 851 q 689 588 740 651 q 528 503 638 525 q 704 416 640 483 q 768 246 768 349 q 677 40 768 115 q 422 -35 586 -35 q 167 40 258 -35 q 76 246 76 115 q 140 416 76 349 q 317 503 204 483 q 156 588 207 525 q 104 739 104 651 m 132 739 q 210 574 132 633 q 422 515 288 515 q 635 574 557 515 q 713 739 713 633 q 634 905 713 847 q 422 963 556 963 q 210 905 289 963 q 132 739 132 847 m 104 246 q 190 57 104 124 q 422 -10 276 -10 q 654 57 568 -10 q 740 246 740 124 q 651 431 740 371 q 422 490 561 490 q 194 431 283 490 q 104 246 104 371 z "},"9":{"ha":853,"x_min":83,"x_max":756,"o":"m 151 253 q 231 76 167 139 q 408 14 296 14 q 647 127 564 14 q 729 492 729 240 q 728 565 729 540 q 620 392 710 457 q 406 328 531 328 q 167 418 251 328 q 83 667 83 508 q 115 825 83 753 q 218 942 147 897 q 399 988 289 988 q 681 858 606 988 q 756 507 756 728 q 674 124 756 258 q 408 -11 593 -11 q 211 60 283 -11 q 124 253 139 131 l 151 253 m 719 638 q 686 795 719 721 q 581 916 653 869 q 399 963 508 963 q 190 883 268 963 q 111 667 111 804 q 190 433 111 514 q 406 353 268 353 q 555 385 483 353 q 673 481 626 417 q 719 638 719 544 z "},"\u0000":{"ha":0,"x_min":0,"x_max":0,"o":""},"\r":{"ha":403,"x_min":0,"x_max":0,"o":""}," ":{"ha":403,"x_min":0,"x_max":0,"o":""},"अ":{"ha":1135,"x_min":119,"x_max":1183,"o":"m 1183 1028 l 1183 1006 l 958 1006 l 958 0 l 935 0 l 935 535 l 588 536 q 660 448 635 503 q 686 331 686 393 q 611 139 686 211 q 411 67 536 67 q 263 101 329 67 q 158 197 196 135 q 119 339 119 260 l 143 339 q 178 208 143 265 q 273 120 213 151 q 410 89 333 89 q 594 156 525 89 q 663 331 663 222 q 637 443 663 389 q 554 532 611 497 q 408 567 497 567 l 361 567 l 361 589 l 408 589 q 539 619 486 589 q 617 697 592 650 q 643 794 643 744 q 611 915 643 864 q 525 992 579 965 q 406 1018 471 1018 q 279 992 336 1018 q 189 917 222 965 q 156 801 156 868 l 132 801 q 168 929 132 875 q 267 1012 204 983 q 406 1040 329 1040 q 539 1010 479 1040 q 633 926 599 981 q 667 800 667 872 q 619 655 667 714 q 478 579 571 596 l 478 578 q 551 557 518 574 l 935 557 l 935 1028 l 1183 1028 z "},"आ":{"ha":1497,"x_min":119,"x_max":1560,"o":"m 1183 1028 l 1183 1006 l 958 1006 l 958 0 l 935 0 l 935 535 l 588 536 q 660 448 635 503 q 686 331 686 393 q 611 139 686 211 q 411 67 536 67 q 263 101 329 67 q 158 197 196 135 q 119 339 119 260 l 143 339 q 178 208 143 265 q 273 120 213 151 q 410 89 333 89 q 594 156 525 89 q 663 331 663 222 q 637 443 663 389 q 554 532 611 497 q 408 567 497 567 l 361 567 l 361 589 l 408 589 q 539 619 486 589 q 617 697 592 650 q 643 794 643 744 q 611 915 643 864 q 525 992 579 965 q 406 1018 471 1018 q 279 992 336 1018 q 189 917 222 965 q 156 801 156 868 l 132 801 q 168 929 132 875 q 267 1012 204 983 q 406 1040 329 1040 q 539 1010 479 1040 q 633 926 599 981 q 667 800 667 872 q 619 655 667 714 q 478 579 571 596 l 478 578 q 551 557 518 574 l 935 557 l 935 1028 l 1183 1028 m 1311 1006 l 1086 1006 l 1086 1028 l 1560 1028 l 1560 1006 l 1335 1006 l 1335 0 l 1311 0 l 1311 1006 z "},"इ":{"ha":808,"x_min":-69,"x_max":878,"o":"m 406 758 q 235 724 304 758 q 165 596 165 689 q 225 474 165 513 q 376 436 285 436 l 439 436 q 641 383 560 436 q 722 208 722 329 q 656 51 722 114 q 465 -12 589 -12 q 311 19 375 -12 q 214 91 247 50 q 172 167 181 132 l 172 -97 l 150 -97 l 150 256 l 171 256 q 260 78 183 147 q 467 10 336 10 q 639 67 579 10 q 699 208 699 124 q 623 367 699 321 q 438 414 547 414 l 375 414 q 207 460 272 414 q 142 596 142 506 q 215 738 142 696 q 394 781 289 781 l 617 781 l 617 1006 l -69 1006 l -69 1028 l 878 1028 l 878 1006 l 640 1006 l 640 758 l 406 758 z "},"ई":{"ha":808,"x_min":-69,"x_max":990,"o":"m 406 758 q 235 724 304 758 q 165 596 165 689 q 225 474 165 513 q 376 436 285 436 l 439 436 q 641 383 560 436 q 722 208 722 329 q 656 51 722 114 q 465 -12 589 -12 q 311 19 375 -12 q 214 91 247 50 q 172 167 181 132 l 172 -97 l 150 -97 l 150 256 l 171 256 q 260 78 183 147 q 467 10 336 10 q 639 67 579 10 q 699 208 699 124 q 623 367 699 321 q 438 414 547 414 l 375 414 q 207 460 272 414 q 142 596 142 506 q 215 738 142 696 q 394 781 289 781 l 617 781 l 617 1006 l -69 1006 l -69 1028 l 878 1028 l 878 1006 l 640 1006 l 640 758 l 406 758 m 617 1143 q 667 1320 617 1260 q 808 1381 717 1381 q 941 1328 892 1381 q 990 1192 990 1275 l 968 1192 q 924 1311 968 1264 q 808 1358 881 1358 q 683 1303 725 1358 q 640 1142 640 1249 l 640 1018 l 617 1018 l 617 1143 z "},"उ":{"ha":811,"x_min":-49,"x_max":860,"o":"m 649 808 q 599 662 649 722 q 471 590 549 601 l 471 589 q 636 490 575 572 q 697 300 697 408 q 662 147 697 214 q 560 41 626 79 q 403 3 493 3 q 240 42 313 3 q 126 151 168 82 q 85 301 85 219 l 108 301 q 147 162 108 225 q 253 62 186 99 q 403 25 321 25 q 545 60 483 25 q 640 158 607 96 q 674 300 674 221 q 645 431 674 368 q 553 535 617 494 q 394 576 490 576 l 347 576 l 347 599 l 394 599 q 567 660 508 599 q 625 813 625 722 l 625 1006 l -49 1006 l -49 1028 l 860 1028 l 860 1006 l 649 1006 l 649 808 z "},"ऊ":{"ha":1217,"x_min":-49,"x_max":1265,"o":"m 649 808 q 599 662 649 722 q 471 590 549 601 l 471 589 l 794 589 q 1024 523 933 589 q 1114 315 1114 457 q 1036 112 1114 175 q 840 49 958 49 q 790 51 824 49 l 790 72 q 842 69 826 69 q 1021 128 951 69 q 1090 315 1090 186 q 1007 507 1090 447 q 794 567 924 567 l 543 567 q 656 460 615 532 q 697 300 697 388 q 662 147 697 214 q 560 41 626 79 q 403 3 493 3 q 240 42 313 3 q 126 151 168 82 q 85 301 85 219 l 108 301 q 147 162 108 225 q 253 62 186 99 q 403 25 321 25 q 545 60 483 25 q 640 158 607 96 q 674 300 674 221 q 645 431 674 368 q 553 535 617 494 q 394 576 490 576 l 347 576 l 347 599 l 394 599 q 567 660 508 599 q 625 813 625 722 l 625 1006 l -49 1006 l -49 1028 l 1265 1028 l 1265 1006 l 649 1006 l 649 808 z "},"ऋ":{"ha":1381,"x_min":-49,"x_max":1429,"o":"m 743 1006 l 743 592 l 1033 592 q 1176 722 1176 592 l 1176 831 l 1200 831 l 1200 335 l 1183 335 q 1035 281 1089 335 q 981 144 981 226 q 1035 4 981 50 q 1176 -42 1090 -42 q 1257 -28 1221 -42 l 1257 -50 q 1220 -60 1243 -56 q 1176 -64 1197 -64 q 1019 -11 1082 -64 q 957 144 957 42 q 1015 295 957 235 q 1176 357 1074 356 l 1176 633 q 1032 569 1135 569 l 743 569 l 743 0 l 719 0 l 719 524 l 232 0 l 207 0 l 207 6 l 718 556 q 632 735 707 664 q 440 806 557 806 q 283 767 353 806 q 174 657 214 729 q 135 489 135 585 l 111 489 q 153 668 111 592 q 270 786 196 744 q 438 828 344 828 q 615 778 542 828 q 719 643 689 728 l 719 1006 l -49 1006 l -49 1028 l 1429 1028 l 1429 1006 l 743 1006 z "},"ॠ":{"ha":1290,"x_min":-49,"x_max":1429,"o":"m 743 1006 l 743 592 l 1033 592 q 1176 722 1176 592 l 1176 831 l 1200 831 l 1200 335 l 1139 335 q 1026 303 1071 335 q 981 200 981 271 q 1027 101 981 133 q 1149 68 1074 68 l 1200 68 l 1200 46 l 1139 46 q 1026 14 1071 46 q 981 -89 981 -18 q 1027 -188 981 -156 q 1149 -221 1074 -221 q 1221 -215 1185 -221 q 1279 -199 1257 -208 l 1279 -221 q 1222 -237 1257 -231 q 1149 -243 1186 -243 q 1011 -204 1065 -243 q 957 -89 957 -165 q 990 8 957 -29 q 1071 56 1022 46 l 1071 58 q 988 107 1018 71 q 957 200 957 143 q 1009 318 957 279 q 1139 357 1061 357 l 1176 357 l 1176 633 q 1032 569 1135 569 l 743 569 l 743 0 l 719 0 l 719 524 l 232 0 l 207 0 l 207 6 l 718 556 q 632 735 707 664 q 440 806 557 806 q 283 767 353 806 q 174 657 214 729 q 135 489 135 585 l 111 489 q 153 668 111 592 q 270 786 196 744 q 438 828 344 828 q 615 778 542 828 q 719 643 689 728 l 719 1006 l -49 1006 l -49 1028 l 1429 1028 l 1429 1006 l 743 1006 z "},"ऌ":{"ha":1243,"x_min":-49,"x_max":1292,"o":"m 883 1006 l 883 778 q 1062 689 999 774 q 1125 474 1125 604 q 1103 335 1125 396 l 1092 335 q 943 281 997 335 q 889 144 889 226 q 944 4 889 50 q 1085 -42 999 -42 q 1165 -28 1129 -42 l 1165 -50 q 1128 -60 1151 -56 q 1085 -64 1106 -64 q 928 -11 990 -64 q 865 144 865 42 q 924 295 865 235 q 1085 357 982 356 q 1101 474 1101 411 q 1042 676 1101 596 q 872 756 983 756 q 695 667 757 756 q 633 421 633 578 l 633 410 l 610 410 l 610 421 q 551 665 610 575 q 383 756 493 756 q 204 677 267 756 q 142 474 142 599 q 215 253 142 338 q 426 168 288 168 q 469 171 439 168 l 469 147 q 424 144 439 144 q 197 236 276 144 q 118 474 118 328 q 188 694 118 610 q 383 778 257 778 q 550 706 492 778 q 621 538 608 633 l 624 538 q 694 703 638 632 q 860 778 751 774 l 860 1006 l -49 1006 l -49 1028 l 1292 1028 l 1292 1006 l 883 1006 z "},"ॡ":{"ha":1254,"x_min":-49,"x_max":1292,"o":"m 883 1006 l 883 778 q 1062 689 999 774 q 1125 474 1125 604 q 1103 335 1125 396 l 1042 335 q 928 303 974 335 q 883 200 883 271 q 930 101 883 133 q 1051 68 976 68 l 1103 68 l 1103 46 l 1042 46 q 928 14 974 46 q 883 -89 883 -18 q 930 -188 883 -156 q 1051 -221 976 -221 q 1123 -214 1086 -221 q 1182 -199 1160 -207 l 1182 -221 q 1124 -237 1160 -231 q 1051 -243 1089 -243 q 913 -204 967 -243 q 860 -87 860 -165 q 892 8 860 -29 q 974 56 925 46 l 974 58 q 890 107 921 71 q 860 200 860 143 q 912 318 860 279 q 1042 357 964 357 l 1085 357 q 1101 474 1101 411 q 1042 676 1101 596 q 872 756 983 756 q 695 667 757 756 q 633 421 633 578 l 633 410 l 610 410 l 610 421 q 551 665 610 575 q 383 756 493 756 q 204 677 267 756 q 142 474 142 599 q 215 253 142 338 q 426 168 288 168 q 469 171 439 168 l 469 147 q 424 144 439 144 q 197 236 276 144 q 118 474 118 328 q 188 694 118 610 q 383 778 257 778 q 550 706 492 778 q 621 538 608 633 l 624 538 q 694 703 638 632 q 860 778 751 774 l 860 1006 l -49 1006 l -49 1028 l 1292 1028 l 1292 1006 l 883 1006 z "},"ए":{"ha":904,"x_min":-49,"x_max":953,"o":"m 518 553 q 549 551 529 551 q 698 610 653 551 q 743 800 743 668 l 743 1006 l 190 1006 l 190 386 q 264 138 190 228 q 486 49 338 49 q 694 127 621 49 q 767 347 767 206 l 790 347 q 711 111 790 196 q 486 26 632 26 q 246 122 325 26 q 167 386 167 218 l 167 1006 l -49 1006 l -49 1028 l 953 1028 l 953 1006 l 767 1006 l 767 800 q 716 593 767 657 q 550 529 665 529 l 518 531 l 518 553 z "},"ऐ":{"ha":904,"x_min":-49,"x_max":953,"o":"m 518 553 q 549 551 529 551 q 698 610 653 551 q 743 800 743 668 l 743 1006 l 190 1006 l 190 386 q 264 138 190 228 q 486 49 338 49 q 694 127 621 49 q 767 347 767 206 l 790 347 q 711 111 790 196 q 486 26 632 26 q 246 122 325 26 q 167 386 167 218 l 167 1006 l -49 1006 l -49 1028 l 953 1028 l 953 1006 l 767 1006 l 767 800 q 716 593 767 657 q 550 529 665 529 l 518 531 l 518 553 m 743 1024 q 599 1222 656 1161 q 494 1300 543 1283 q 361 1317 444 1317 l 317 1317 l 317 1339 l 361 1339 q 502 1322 450 1339 q 615 1238 554 1304 q 768 1024 676 1172 l 743 1024 z "},"ओ":{"ha":1511,"x_min":119,"x_max":1560,"o":"m 1311 1024 q 1167 1222 1224 1161 q 1062 1300 1111 1283 q 929 1317 1013 1317 l 885 1317 l 885 1339 l 929 1339 q 1070 1322 1018 1339 q 1183 1238 1122 1304 q 1336 1024 1244 1172 l 1311 1024 m 1183 1028 l 1183 1006 l 958 1006 l 958 0 l 935 0 l 935 535 l 588 536 q 660 448 635 503 q 686 331 686 393 q 611 139 686 211 q 411 67 536 67 q 263 101 329 67 q 158 197 196 135 q 119 339 119 260 l 143 339 q 178 208 143 265 q 273 120 213 151 q 410 89 333 89 q 594 156 525 89 q 663 331 663 222 q 637 443 663 389 q 554 532 611 497 q 408 567 497 567 l 361 567 l 361 589 l 408 589 q 539 619 486 589 q 617 697 592 650 q 643 794 643 744 q 611 915 643 864 q 525 992 579 965 q 406 1018 471 1018 q 279 992 336 1018 q 189 917 222 965 q 156 801 156 868 l 132 801 q 168 929 132 875 q 267 1012 204 983 q 406 1040 329 1040 q 539 1010 479 1040 q 633 926 599 981 q 667 800 667 872 q 619 655 667 714 q 478 579 571 596 l 478 578 q 551 557 518 574 l 935 557 l 935 1028 l 1183 1028 m 1311 1006 l 1086 1006 l 1086 1028 l 1560 1028 l 1560 1006 l 1335 1006 l 1335 0 l 1311 0 l 1311 1006 z "},"औ":{"ha":1511,"x_min":119,"x_max":1560,"o":"m 929 1408 q 1070 1388 1018 1408 q 1183 1286 1122 1367 q 1336 1024 1244 1206 l 1314 1024 q 1172 1138 1229 1103 q 1063 1182 1114 1172 q 929 1192 1013 1192 l 885 1192 l 885 1214 l 929 1214 q 1061 1206 1013 1214 q 1165 1165 1110 1197 q 1297 1061 1219 1133 q 1161 1282 1217 1214 q 1058 1368 1106 1350 q 929 1386 1010 1386 l 885 1386 l 885 1408 l 929 1408 m 1183 1028 l 1183 1006 l 958 1006 l 958 0 l 935 0 l 935 535 l 588 536 q 660 448 635 503 q 686 331 686 393 q 611 139 686 211 q 411 67 536 67 q 263 101 329 67 q 158 197 196 135 q 119 339 119 260 l 143 339 q 178 208 143 265 q 273 120 213 151 q 410 89 333 89 q 594 156 525 89 q 663 331 663 222 q 637 443 663 389 q 554 532 611 497 q 408 567 497 567 l 361 567 l 361 589 l 408 589 q 539 619 486 589 q 617 697 592 650 q 643 794 643 744 q 611 915 643 864 q 525 992 579 965 q 406 1018 471 1018 q 279 992 336 1018 q 189 917 222 965 q 156 801 156 868 l 132 801 q 168 929 132 875 q 267 1012 204 983 q 406 1040 329 1040 q 539 1010 479 1040 q 633 926 599 981 q 667 800 667 872 q 619 655 667 714 q 478 579 571 596 l 478 578 q 551 557 518 574 l 935 557 l 935 1028 l 1183 1028 m 1311 1006 l 1086 1006 l 1086 1028 l 1560 1028 l 1560 1006 l 1335 1006 l 1335 0 l 1311 0 l 1311 1006 z "},"ऍ":{"ha":904,"x_min":-49,"x_max":953,"o":"m 518 553 q 549 551 529 551 q 698 610 653 551 q 743 800 743 668 l 743 1006 l 190 1006 l 190 386 q 264 138 190 228 q 486 49 338 49 q 694 127 621 49 q 767 347 767 206 l 790 347 q 711 111 790 196 q 486 26 632 26 q 246 122 325 26 q 167 386 167 218 l 167 1006 l -49 1006 l -49 1028 l 953 1028 l 953 1006 l 767 1006 l 767 800 q 716 593 767 657 q 550 529 665 529 l 518 531 l 518 553 m 458 1186 q 326 1217 381 1186 q 247 1294 272 1247 q 221 1388 221 1340 l 243 1388 q 267 1303 243 1344 q 339 1235 290 1263 q 458 1208 388 1208 q 578 1235 529 1208 q 650 1303 626 1263 q 674 1388 674 1344 l 696 1388 q 669 1294 696 1340 q 590 1217 643 1247 q 458 1186 536 1186 z "},"ॲ":{"ha":1135,"x_min":119,"x_max":1196,"o":"m 1183 1028 l 1183 1006 l 958 1006 l 958 0 l 935 0 l 935 535 l 588 536 q 660 448 635 503 q 686 331 686 393 q 611 139 686 211 q 411 67 536 67 q 263 101 329 67 q 158 197 196 135 q 119 339 119 260 l 143 339 q 178 208 143 265 q 273 120 213 151 q 410 89 333 89 q 594 156 525 89 q 663 331 663 222 q 637 443 663 389 q 554 532 611 497 q 408 567 497 567 l 361 567 l 361 589 l 408 589 q 539 619 486 589 q 617 697 592 650 q 643 794 643 744 q 611 915 643 864 q 525 992 579 965 q 406 1018 471 1018 q 279 992 336 1018 q 189 917 222 965 q 156 801 156 868 l 132 801 q 168 929 132 875 q 267 1012 204 983 q 406 1040 329 1040 q 539 1010 479 1040 q 633 926 599 981 q 667 800 667 872 q 619 655 667 714 q 478 579 571 596 l 478 578 q 551 557 518 574 l 935 557 l 935 1028 l 1183 1028 m 958 1186 q 826 1217 881 1186 q 747 1294 772 1247 q 721 1388 721 1340 l 743 1388 q 767 1303 743 1344 q 839 1235 790 1263 q 958 1208 888 1208 q 1078 1235 1029 1208 q 1150 1303 1126 1263 q 1174 1388 1174 1344 l 1196 1388 q 1169 1294 1196 1340 q 1090 1217 1143 1247 q 958 1186 1036 1186 z "},"ऑ":{"ha":1511,"x_min":119,"x_max":1560,"o":"m 1183 1028 l 1183 1006 l 958 1006 l 958 0 l 935 0 l 935 535 l 588 536 q 660 448 635 503 q 686 331 686 393 q 611 139 686 211 q 411 67 536 67 q 263 101 329 67 q 158 197 196 135 q 119 339 119 260 l 143 339 q 178 208 143 265 q 273 120 213 151 q 410 89 333 89 q 594 156 525 89 q 663 331 663 222 q 637 443 663 389 q 554 532 611 497 q 408 567 497 567 l 361 567 l 361 589 l 408 589 q 539 619 486 589 q 617 697 592 650 q 643 794 643 744 q 611 915 643 864 q 525 992 579 965 q 406 1018 471 1018 q 279 992 336 1018 q 189 917 222 965 q 156 801 156 868 l 132 801 q 168 929 132 875 q 267 1012 204 983 q 406 1040 329 1040 q 539 1010 479 1040 q 633 926 599 981 q 667 800 667 872 q 619 655 667 714 q 478 579 571 596 l 478 578 q 551 557 518 574 l 935 557 l 935 1028 l 1183 1028 m 1311 1006 l 1086 1006 l 1086 1028 l 1560 1028 l 1560 1006 l 1335 1006 l 1335 0 l 1311 0 l 1311 1006 m 1136 1186 q 1004 1217 1058 1186 q 924 1294 950 1247 q 899 1388 899 1340 l 921 1388 q 944 1303 921 1344 q 1017 1235 968 1263 q 1136 1208 1065 1208 q 1256 1235 1207 1208 q 1328 1303 1304 1263 q 1351 1388 1351 1344 l 1374 1388 q 1347 1294 1374 1340 q 1267 1217 1321 1247 q 1136 1186 1214 1186 z "},"ा":{"ha":376,"x_min":-49,"x_max":425,"o":"m 176 1006 l -49 1006 l -49 1028 l 425 1028 l 425 1006 l 200 1006 l 200 0 l 176 0 l 176 1006 z "},"ि":{"ha":376,"x_min":-49,"x_max":1161,"o":"m 669 1340 q 1014 1272 867 1340 q 1161 1042 1161 1204 l 1161 1018 l 1138 1018 l 1138 1042 q 995 1256 1138 1193 q 669 1318 853 1318 q 338 1260 475 1318 q 200 1035 200 1203 l 200 1028 l 425 1028 l 425 1006 l 200 1006 l 200 0 l 176 0 l 176 1006 l -49 1006 l -49 1028 l 176 1028 l 176 1035 q 319 1277 176 1214 q 669 1340 461 1340 z "},"ी":{"ha":376,"x_min":-200,"x_max":425,"o":"m 425 1028 l 425 1006 l 200 1006 l 200 0 l 176 0 l 176 1006 l -49 1006 l -49 1028 l 176 1028 l 176 1092 q 135 1255 176 1192 q 1 1318 94 1318 q -134 1255 -92 1318 q -176 1092 -176 1192 l -176 1019 l -200 1019 l -200 1092 q -151 1271 -200 1201 q 1 1340 -103 1340 q 153 1272 106 1340 q 200 1092 200 1203 l 200 1028 l 425 1028 z "},"ु":{"ha":0,"x_min":-544,"x_max":-8,"o":"m -257 -367 q -465 -299 -386 -367 q -539 -104 -544 -232 l -517 -104 q -449 -284 -522 -224 q -257 -344 -376 -344 q -93 -296 -154 -344 q -32 -158 -32 -247 q -72 -47 -32 -94 q -181 0 -112 0 l -200 0 l -200 22 l -181 22 q -55 -31 -101 22 q -8 -158 -8 -85 q -74 -311 -8 -256 q -257 -367 -140 -367 z "},"ू":{"ha":0,"x_min":-422,"x_max":121,"o":"m -226 -364 q -367 -313 -312 -364 q -422 -178 -422 -262 q -358 -33 -422 -87 q -189 22 -294 22 q -31 -19 -101 22 q 80 -140 39 -60 q 121 -335 121 -221 l 121 -353 l 97 -353 l 97 -324 q 60 -151 97 -224 q -42 -39 22 -78 q -185 0 -106 0 q -342 -49 -285 0 q -399 -178 -399 -99 q -351 -295 -399 -250 q -226 -340 -303 -340 q -172 -336 -201 -340 l -172 -360 q -226 -364 -199 -364 z "},"ृ":{"ha":0,"x_min":-419,"x_max":-101,"o":"m -192 -399 q -354 -346 -289 -399 q -419 -190 -419 -293 q -359 -38 -419 -99 q -193 22 -299 22 l -176 22 l -176 0 l -193 0 q -342 -54 -287 0 q -396 -190 -396 -108 q -338 -331 -396 -285 q -192 -376 -281 -376 q -101 -362 -143 -376 l -101 -385 q -142 -394 -115 -390 q -192 -399 -168 -399 z "},"ॄ":{"ha":0,"x_min":-419,"x_max":-97,"o":"m -228 -578 q -365 -539 -311 -578 q -419 -424 -419 -500 q -387 -326 -419 -364 q -306 -279 -354 -289 l -306 -276 q -389 -228 -358 -264 q -419 -135 -419 -192 q -367 -17 -419 -56 q -237 22 -315 22 l -176 22 l -176 0 l -237 0 q -351 -32 -306 0 q -396 -135 -396 -64 q -349 -234 -396 -201 q -228 -267 -303 -267 l -176 -267 l -176 -289 l -237 -289 q -351 -321 -306 -289 q -396 -424 -396 -353 q -349 -523 -396 -490 q -228 -556 -303 -556 q -156 -549 -193 -556 q -97 -533 -119 -543 l -97 -556 q -155 -572 -119 -565 q -228 -578 -190 -578 z "},"ॢ":{"ha":0,"x_min":-543,"x_max":201,"o":"m 144 -606 q 201 -596 179 -606 l 201 -618 q 144 -626 176 -626 q 28 -588 75 -626 q -18 -478 -18 -550 q 24 -369 -18 -412 q 140 -322 65 -325 q 150 -246 150 -289 q 110 -103 150 -158 q -8 -49 71 -49 q -131 -111 -89 -49 q -174 -282 -174 -174 l -174 -289 l -196 -289 l -196 -282 q -237 -111 -196 -174 q -354 -49 -278 -49 q -478 -103 -435 -49 q -521 -246 -521 -158 q -470 -398 -521 -339 q -324 -457 -419 -457 q -293 -454 -307 -457 l -293 -475 q -326 -478 -307 -478 q -487 -412 -431 -478 q -543 -246 -543 -347 q -493 -88 -543 -149 q -354 -28 -443 -28 q -236 -79 -278 -28 q -186 -199 -194 -131 l -183 -199 q -131 -78 -174 -129 q -6 -28 -89 -28 q 126 -89 79 -28 q 172 -246 172 -150 q 157 -343 172 -301 l 149 -343 q 43 -381 82 -343 q 4 -475 4 -418 q 45 -573 4 -540 q 144 -606 86 -606 z "},"ॣ":{"ha":0,"x_min":-543,"x_max":213,"o":"m 121 -735 q 172 -730 146 -735 q 213 -718 197 -725 l 213 -739 q 121 -754 172 -754 q 23 -726 61 -754 q -15 -643 -15 -697 q 8 -575 -15 -601 q 65 -542 31 -549 l 65 -540 q 6 -504 28 -531 q -15 -436 -15 -478 q 22 -351 -15 -379 q 113 -322 58 -322 l 140 -322 q 150 -246 150 -289 q 110 -103 150 -158 q -8 -49 71 -49 q -131 -111 -89 -49 q -174 -282 -174 -174 l -174 -289 l -196 -289 l -196 -282 q -237 -111 -196 -174 q -354 -49 -278 -49 q -478 -103 -435 -49 q -521 -246 -521 -158 q -470 -398 -521 -339 q -324 -457 -419 -457 q -293 -454 -307 -457 l -293 -475 q -326 -478 -307 -478 q -487 -412 -431 -478 q -543 -246 -543 -347 q -493 -88 -543 -149 q -354 -28 -443 -28 q -236 -79 -278 -28 q -186 -199 -194 -131 l -183 -199 q -131 -78 -174 -129 q -6 -28 -89 -28 q 126 -89 79 -28 q 172 -246 172 -150 q 157 -343 172 -301 l 113 -343 q 37 -365 68 -343 q 6 -436 6 -387 q 38 -508 6 -485 q 121 -531 69 -531 l 156 -531 l 156 -551 l 118 -551 q 37 -573 69 -551 q 4 -644 4 -594 q 37 -712 4 -689 q 121 -735 69 -735 z "},"े":{"ha":0,"x_min":-626,"x_max":-175,"o":"m -200 1024 q -344 1222 -287 1161 q -449 1300 -400 1283 q -582 1317 -499 1317 l -626 1317 l -626 1339 l -582 1339 q -441 1322 -493 1339 q -328 1238 -389 1304 q -175 1024 -267 1172 l -200 1024 z "},"ै":{"ha":0,"x_min":-626,"x_max":-175,"o":"m -582 1408 q -441 1388 -493 1408 q -328 1286 -389 1367 q -175 1024 -267 1206 l -197 1024 q -340 1138 -282 1103 q -448 1182 -397 1172 q -582 1192 -499 1192 l -626 1192 l -626 1214 l -582 1214 q -450 1206 -499 1214 q -347 1165 -401 1197 q -214 1061 -292 1133 q -350 1282 -294 1214 q -453 1368 -406 1350 q -582 1386 -501 1386 l -626 1386 l -626 1408 l -582 1408 z "},"ो":{"ha":376,"x_min":-250,"x_max":425,"o":"m 176 1006 l -49 1006 l -49 1028 l 425 1028 l 425 1006 l 200 1006 l 200 0 l 176 0 l 176 1006 m 176 1024 q 33 1222 89 1161 q -73 1300 -24 1283 q -206 1317 -122 1317 l -250 1317 l -250 1339 l -206 1339 q -65 1322 -117 1339 q 49 1238 -12 1304 q 201 1024 110 1172 l 176 1024 z "},"ौ":{"ha":376,"x_min":-250,"x_max":425,"o":"m 176 1006 l -49 1006 l -49 1028 l 425 1028 l 425 1006 l 200 1006 l 200 0 l 176 0 l 176 1006 m -206 1408 q -65 1388 -117 1408 q 49 1286 -12 1367 q 201 1024 110 1206 l 179 1024 q 37 1138 94 1103 q -72 1182 -21 1172 q -206 1192 -122 1192 l -250 1192 l -250 1214 l -206 1214 q -74 1206 -122 1214 q 30 1165 -25 1197 q 163 1061 85 1133 q 26 1282 82 1214 q -77 1368 -29 1350 q -206 1386 -125 1386 l -250 1386 l -250 1408 l -206 1408 z "},"ॅ":{"ha":0,"x_min":-426,"x_max":49,"o":"m -189 1144 q -321 1175 -267 1144 q -401 1252 -375 1206 q -426 1346 -426 1299 l -404 1346 q -381 1262 -404 1303 q -308 1194 -357 1221 q -189 1167 -260 1167 q -69 1194 -118 1167 q 3 1262 -21 1221 q 26 1346 26 1303 l 49 1346 q 22 1252 49 1299 q -58 1175 -4 1206 q -189 1144 -111 1144 z "},"ॉ":{"ha":376,"x_min":-49,"x_max":426,"o":"m 176 1006 l -49 1006 l -49 1028 l 425 1028 l 425 1006 l 200 1006 l 200 0 l 176 0 l 176 1006 m 189 1144 q 57 1175 111 1144 q -23 1252 3 1206 q -49 1346 -49 1299 l -26 1346 q -3 1262 -26 1303 q 69 1194 21 1221 q 189 1167 118 1167 q 308 1194 260 1167 q 381 1262 357 1221 q 404 1346 404 1303 l 426 1346 q 400 1252 426 1299 q 320 1175 374 1206 q 189 1144 267 1144 z "},"क":{"ha":1418,"x_min":-49,"x_max":1467,"o":"m 726 1006 l 726 611 q 823 755 754 699 q 1003 811 892 811 q 1151 773 1083 811 q 1260 664 1219 735 q 1300 499 1300 593 q 1262 326 1300 399 q 1157 215 1224 253 q 1007 176 1090 176 q 928 185 964 176 l 928 207 q 1007 199 964 199 q 1144 234 1083 199 q 1241 338 1206 269 q 1276 499 1276 406 q 1240 652 1276 586 q 1140 753 1203 718 q 1003 789 1078 789 q 847 744 908 789 q 756 630 785 699 q 726 488 726 561 l 726 0 l 704 0 l 704 372 q 604 232 676 288 q 422 176 532 176 q 267 215 336 176 q 158 326 197 253 q 118 499 118 399 q 159 664 118 593 q 269 773 200 735 q 422 811 339 811 q 604 756 533 811 q 704 615 675 701 l 704 1006 l -49 1006 l -49 1028 l 1467 1028 l 1467 1006 l 726 1006 m 422 199 q 581 243 517 199 q 674 355 644 288 q 704 492 704 422 l 704 493 q 674 634 704 567 q 581 745 644 701 q 422 789 518 789 q 281 753 344 789 q 179 653 217 718 q 142 499 142 588 q 178 338 142 406 q 279 234 215 269 q 422 199 343 199 z "},"ख":{"ha":1263,"x_min":-49,"x_max":1311,"o":"m 1311 1028 l 1311 1006 l 1086 1006 l 1086 0 l 1063 0 l 1063 396 q 974 270 1038 319 q 813 221 910 221 q 747 228 782 221 q 635 65 714 129 q 444 0 557 0 q 222 81 306 0 q 139 297 139 161 l 139 547 l 200 547 q 348 597 289 547 q 407 782 407 647 l 407 1006 l -49 1006 l -49 1028 l 1311 1028 m 446 22 q 621 82 549 22 q 724 233 693 142 q 584 330 636 258 q 532 508 532 401 q 569 655 532 592 q 671 751 607 718 q 813 785 735 785 q 974 736 911 785 q 1063 613 1038 688 l 1063 1006 l 431 1006 l 431 782 q 365 581 431 636 q 192 525 300 525 l 163 525 l 163 297 q 239 97 163 172 q 446 22 315 22 m 813 243 q 953 282 897 243 q 1036 381 1010 321 q 1063 501 1063 440 l 1063 503 q 1036 626 1063 567 q 953 724 1010 686 q 813 763 897 763 q 684 732 743 763 q 590 644 625 701 q 556 508 556 586 q 590 366 556 426 q 682 274 624 306 q 813 243 740 243 z "},"ग":{"ha":949,"x_min":-49,"x_max":997,"o":"m 997 1028 l 997 1006 l 772 1006 l 772 0 l 749 0 l 749 1006 l 436 1006 l 436 575 q 393 435 436 490 q 258 379 350 379 q 126 435 169 379 q 82 572 82 492 l 82 614 l 106 614 l 106 571 q 142 451 106 501 q 258 401 179 401 q 377 451 342 401 q 413 575 413 501 l 413 1006 l -49 1006 l -49 1028 l 997 1028 z "},"घ":{"ha":1001,"x_min":-49,"x_max":1050,"o":"m 1050 1006 l 825 1006 l 825 0 l 801 0 l 801 383 q 672 222 764 282 q 457 161 581 161 q 223 226 310 161 q 136 415 136 292 q 199 569 136 511 q 353 636 261 628 l 353 639 q 217 703 269 649 q 165 864 165 757 l 165 1006 l -49 1006 l -49 1028 l 1050 1028 l 1050 1006 m 801 1006 l 189 1006 l 189 864 q 248 703 189 757 q 436 649 307 649 l 511 649 l 511 626 l 436 626 q 228 567 296 626 q 160 415 160 508 q 242 242 160 301 q 457 183 324 183 q 631 224 551 183 q 756 339 710 265 q 801 506 801 413 l 801 1006 z "},"ङ":{"ha":864,"x_min":-49,"x_max":913,"o":"m 913 1028 l 913 1006 l 640 1006 l 640 758 l 406 758 q 238 724 306 758 q 169 596 169 689 q 228 474 169 513 q 376 436 286 436 l 439 436 q 641 383 560 436 q 722 208 722 329 q 651 49 722 111 q 447 -12 581 -12 q 269 22 343 -12 q 159 117 196 57 q 122 256 122 178 l 146 256 q 222 79 146 149 q 447 10 299 10 q 635 66 571 10 q 699 208 699 122 q 623 367 699 321 q 438 414 547 414 l 375 414 q 210 460 274 414 q 146 596 146 506 q 218 738 146 696 q 394 781 290 781 l 617 781 l 617 1006 l -49 1006 l -49 1028 l 913 1028 m 790 610 q 815 601 806 610 q 824 576 824 592 q 815 553 824 563 q 790 543 806 543 q 765 552 775 543 q 756 576 756 561 q 765 601 756 592 q 790 610 775 610 z "},"च":{"ha":997,"x_min":-49,"x_max":1046,"o":"m 1046 1006 l 821 1006 l 821 0 l 797 0 l 797 351 q 686 213 764 267 q 508 160 608 160 q 356 194 425 160 q 245 294 286 229 q 204 450 204 360 q 257 625 204 551 q 403 729 310 699 l 68 729 l 68 751 l 564 751 l 564 729 l 524 729 q 367 692 433 729 q 264 592 300 656 q 228 450 228 528 q 266 306 228 367 q 368 214 304 246 q 507 182 432 182 q 654 221 588 182 q 759 324 721 260 q 797 463 797 389 l 797 1006 l -49 1006 l -49 1028 l 1046 1028 l 1046 1006 z "},"छ":{"ha":1126,"x_min":-49,"x_max":1175,"o":"m 833 1006 l 833 779 q 944 744 893 776 q 1026 649 994 713 q 1057 494 1057 586 q 990 254 1057 356 q 808 99 924 153 q 547 46 693 46 q 234 125 351 46 q 117 349 117 204 q 182 519 117 456 q 346 590 247 582 l 346 593 q 210 657 263 603 q 158 818 158 711 l 158 1006 l -49 1006 l -49 1028 l 1175 1028 l 1175 1006 l 833 1006 m 810 1006 l 182 1006 l 182 818 q 241 657 182 711 q 429 603 300 603 l 463 603 l 463 581 l 429 581 q 212 516 283 581 q 140 349 140 451 q 253 140 140 213 q 547 68 365 68 q 794 120 683 68 q 969 269 904 172 q 1033 493 1033 365 q 1003 640 1033 581 q 924 728 972 700 q 821 757 875 757 q 683 708 743 757 q 622 551 622 658 q 650 403 622 486 l 626 403 q 599 551 599 481 q 660 720 599 665 q 810 779 722 775 l 810 1006 z "},"ज":{"ha":1143,"x_min":-49,"x_max":1192,"o":"m 1192 1006 l 967 1006 l 967 0 l 943 0 l 943 685 l 586 685 l 586 472 q 524 290 586 360 q 354 221 461 221 q 193 290 253 221 q 133 472 133 360 l 133 707 l 157 707 l 157 471 q 211 306 157 369 q 356 243 265 243 q 506 306 450 243 q 563 471 563 369 l 563 707 l 943 707 l 943 1006 l -49 1006 l -49 1028 l 1192 1028 l 1192 1006 z "},"झ":{"ha":1154,"x_min":-49,"x_max":1203,"o":"m 1203 1006 l 978 1006 l 978 0 l 954 0 l 954 415 l 561 417 q 678 347 633 399 q 722 208 722 296 q 660 59 722 118 q 474 0 597 0 q 320 29 382 0 q 226 96 258 58 q 185 163 194 133 l 185 -99 l 161 -99 l 161 240 l 182 240 q 272 85 199 147 q 475 22 346 22 q 642 76 586 22 q 699 208 699 129 q 631 360 699 306 q 438 414 563 414 l 375 414 q 207 460 272 414 q 142 596 142 506 q 215 738 142 696 q 394 781 289 781 l 617 781 l 617 1006 l -49 1006 l -49 1028 l 1203 1028 l 1203 1006 m 954 436 l 954 1006 l 640 1006 l 640 758 l 406 758 q 235 724 304 758 q 165 596 165 689 q 225 474 165 513 q 376 436 285 436 l 439 436 l 954 436 z "},"ञ":{"ha":1093,"x_min":-49,"x_max":1142,"o":"m 1142 1006 l 917 1006 l 917 0 l 893 0 l 893 482 l 713 482 q 676 327 710 399 q 575 212 643 256 q 408 168 507 168 q 212 232 282 168 q 118 383 142 296 l 142 383 q 228 249 163 306 q 408 192 294 192 q 563 233 499 192 q 658 342 626 274 q 689 492 689 410 q 657 638 689 571 q 562 747 625 706 q 408 788 499 788 q 226 729 292 788 q 142 594 160 671 l 118 594 q 209 746 139 682 q 408 810 279 810 q 574 767 506 810 q 676 654 642 724 q 713 504 710 585 l 893 504 l 893 1006 l -49 1006 l -49 1028 l 1142 1028 l 1142 1006 z "},"ट":{"ha":908,"x_min":-49,"x_max":957,"o":"m 518 774 q 246 687 350 774 q 142 433 142 600 q 185 267 142 340 q 303 151 228 193 q 472 110 379 110 q 643 153 568 110 q 760 272 718 196 q 801 444 801 347 l 825 444 q 781 259 825 340 q 656 133 736 178 q 472 88 576 88 q 291 132 372 88 q 164 255 210 176 q 118 432 118 333 q 229 704 118 613 q 518 796 340 796 l 589 796 l 589 1006 l -49 1006 l -49 1028 l 957 1028 l 957 1006 l 613 1006 l 613 774 l 518 774 z "},"ठ":{"ha":944,"x_min":-49,"x_max":993,"o":"m 483 1006 l 483 776 q 659 728 581 774 q 782 606 738 683 q 826 432 826 529 q 781 255 826 333 q 653 132 735 176 q 472 88 572 88 q 291 132 372 88 q 164 255 210 176 q 118 432 118 333 q 163 606 118 529 q 285 728 207 683 q 460 776 363 774 l 460 1006 l -49 1006 l -49 1028 l 993 1028 l 993 1006 l 483 1006 m 803 432 q 760 599 803 525 q 641 713 717 672 q 472 754 565 754 q 303 713 379 754 q 185 599 228 672 q 142 432 142 525 q 185 267 142 340 q 303 151 228 193 q 472 110 379 110 q 641 151 565 110 q 760 267 717 193 q 803 432 803 340 z "},"ड":{"ha":808,"x_min":-49,"x_max":857,"o":"m 406 758 q 238 724 306 758 q 169 596 169 689 q 228 474 169 513 q 376 436 286 436 l 439 436 q 641 383 560 436 q 722 208 722 329 q 651 49 722 111 q 447 -12 581 -12 q 269 22 343 -12 q 159 117 196 57 q 122 256 122 178 l 146 256 q 222 79 146 149 q 447 10 299 10 q 635 66 571 10 q 699 208 699 122 q 623 367 699 321 q 438 414 547 414 l 375 414 q 210 460 274 414 q 146 596 146 506 q 218 738 146 696 q 394 781 290 781 l 606 781 l 606 1006 l -49 1006 l -49 1028 l 857 1028 l 857 1006 l 629 1006 l 629 758 l 406 758 z "},"ढ":{"ha":872,"x_min":-49,"x_max":921,"o":"m 532 774 q 249 681 357 774 q 142 410 142 589 q 190 225 142 306 q 322 99 238 144 q 510 54 406 54 q 654 85 590 54 q 754 171 718 117 q 790 293 790 225 q 735 436 790 379 q 596 493 681 493 q 472 446 524 493 q 419 322 419 399 q 422 292 419 308 l 399 292 q 396 324 396 308 q 453 463 396 411 q 596 515 511 515 q 753 453 693 515 q 814 293 814 390 q 776 158 814 218 q 668 65 738 99 q 510 32 599 32 q 309 80 399 32 q 169 213 219 128 q 118 408 118 299 q 233 698 118 600 q 532 796 347 796 l 614 796 l 614 1006 l -49 1006 l -49 1028 l 921 1028 l 921 1006 l 638 1006 l 638 774 l 532 774 z "},"ण":{"ha":1139,"x_min":-49,"x_max":1188,"o":"m 1188 1006 l 963 1006 l 963 0 l 939 0 l 939 1006 l 592 1006 l 592 554 q 531 372 592 442 q 364 303 471 303 q 199 372 260 303 q 139 554 139 442 l 139 1006 l -49 1006 l -49 1028 l 1188 1028 l 1188 1006 m 568 1006 l 163 1006 l 163 553 q 217 388 163 451 q 365 325 272 325 q 514 388 460 325 q 568 553 568 451 l 568 1006 z "},"त":{"ha":946,"x_min":-49,"x_max":994,"o":"m 994 1006 l 769 1006 l 769 0 l 746 0 l 746 676 l 515 676 q 241 595 340 676 q 142 351 142 514 q 230 110 142 196 q 479 25 318 25 l 513 25 l 513 3 l 479 3 q 213 94 308 3 q 118 351 118 186 q 223 613 118 526 q 515 699 328 699 l 746 699 l 746 1006 l -49 1006 l -49 1028 l 994 1028 l 994 1006 z "},"थ":{"ha":1029,"x_min":139,"x_max":1078,"o":"m 1078 1028 l 1078 1006 l 853 1006 l 853 0 l 829 0 l 829 367 q 769 267 813 314 q 658 189 726 219 q 501 158 590 158 q 234 256 329 158 q 139 522 139 354 q 142 571 139 538 l 292 571 q 513 622 422 571 q 604 807 604 674 q 548 958 604 897 q 396 1018 492 1018 q 237 958 294 1018 q 179 799 179 897 q 186 729 179 768 l 163 729 q 156 801 156 764 q 221 974 156 908 q 396 1040 286 1040 q 519 1009 467 1040 q 599 925 571 978 q 628 807 628 872 q 533 608 628 667 q 292 549 438 549 l 163 549 q 244 278 156 376 q 503 181 333 181 q 665 218 590 181 q 785 323 740 256 q 829 476 829 390 l 829 1028 l 1078 1028 z "},"द":{"ha":843,"x_min":-49,"x_max":892,"o":"m 486 794 q 313 761 390 794 q 188 660 235 728 q 142 493 142 592 q 222 281 142 361 q 435 201 301 201 q 556 227 496 201 q 656 308 615 253 q 696 446 696 363 l 717 446 l 717 0 l 693 0 l 693 333 q 596 223 668 267 q 432 179 524 179 q 265 219 336 179 q 156 329 193 258 q 118 493 118 400 q 168 673 118 600 q 301 781 218 746 q 486 817 385 817 l 631 817 l 631 1006 l -49 1006 l -49 1028 l 892 1028 l 892 1006 l 654 1006 l 654 794 l 486 794 z "},"ध":{"ha":964,"x_min":136,"x_max":1013,"o":"m 1013 1006 l 788 1006 l 788 0 l 764 0 l 764 382 q 640 221 728 281 q 433 161 551 161 q 224 222 306 161 q 143 394 143 283 q 196 536 143 482 q 321 597 249 590 l 321 600 q 190 671 243 614 q 136 825 136 728 q 195 979 136 918 q 353 1040 254 1040 q 508 983 450 1040 q 565 833 565 925 q 564 796 565 813 l 540 796 l 542 835 q 492 965 542 913 q 353 1018 442 1018 q 212 963 264 1018 q 160 824 160 907 q 222 669 160 728 q 404 611 285 611 l 479 611 l 479 589 l 404 589 q 226 535 286 589 q 167 394 167 481 q 242 238 167 292 q 433 183 318 183 q 599 224 524 183 q 719 339 675 265 q 764 506 764 413 l 764 1028 l 1013 1028 l 1013 1006 z "},"न":{"ha":1056,"x_min":-49,"x_max":1104,"o":"m 1104 1006 l 879 1006 l 879 0 l 856 0 l 856 689 l 457 689 q 566 608 522 668 q 610 467 610 549 q 578 340 610 396 q 489 253 546 285 q 360 222 432 222 q 225 253 283 222 q 135 340 167 285 q 104 464 104 394 q 176 642 104 574 q 363 710 247 710 l 856 710 l 856 1006 l -49 1006 l -49 1028 l 1104 1028 l 1104 1006 m 586 467 q 522 626 586 564 q 360 688 458 688 q 192 626 257 688 q 128 464 128 564 q 192 306 128 367 q 360 244 256 244 q 522 307 458 244 q 586 467 586 369 z "},"प":{"ha":882,"x_min":-49,"x_max":931,"o":"m 931 1006 l 706 1006 l 706 0 l 682 0 l 682 489 q 586 366 653 411 q 425 321 519 321 q 211 407 283 321 q 139 651 139 493 l 139 1006 l -49 1006 l -49 1028 l 931 1028 l 931 1006 m 682 1006 l 163 1006 l 163 651 q 228 423 163 503 q 426 343 293 343 q 563 378 506 343 q 651 473 621 414 q 682 604 682 532 l 682 1006 z "},"फ":{"ha":1369,"x_min":-49,"x_max":1418,"o":"m 678 1006 l 678 608 q 774 754 704 697 q 954 811 843 811 q 1103 773 1035 811 q 1211 664 1171 735 q 1251 499 1251 593 q 1213 326 1251 399 q 1108 215 1175 253 q 958 176 1042 176 q 879 185 915 176 l 879 207 q 958 199 915 199 q 1096 234 1035 199 q 1192 338 1157 269 q 1228 499 1228 406 q 1191 652 1228 586 q 1092 753 1154 718 q 954 789 1029 789 q 798 744 860 789 q 707 630 736 699 q 678 488 678 561 l 678 0 l 654 0 l 654 489 q 565 366 628 411 q 411 321 501 321 q 208 407 276 321 q 139 651 139 493 l 139 1006 l -49 1006 l -49 1028 l 1418 1028 l 1418 1006 l 678 1006 m 654 1006 l 163 1006 l 163 651 q 224 423 163 503 q 413 343 286 343 q 542 378 488 343 q 626 472 597 413 q 654 604 654 532 l 654 1006 z "},"ब":{"ha":958,"x_min":-49,"x_max":1007,"o":"m 1007 1028 l 1007 1006 l 782 1006 l 782 0 l 758 0 l 758 368 q 648 224 726 281 q 454 167 569 167 q 285 206 363 167 q 163 318 208 244 q 118 490 118 392 q 163 667 118 592 q 283 783 207 742 q 450 824 358 824 q 647 765 568 824 q 758 617 726 706 l 758 1006 l -49 1006 l -49 1028 l 1007 1028 m 758 493 q 724 640 758 569 q 620 756 690 711 q 450 801 550 801 q 332 781 388 801 q 235 721 276 760 l 683 288 q 740 386 721 332 q 758 493 758 440 m 454 189 q 669 272 583 189 l 219 706 q 142 490 142 621 q 184 329 142 397 q 297 225 226 261 q 454 189 368 189 z "},"भ":{"ha":1032,"x_min":132,"x_max":1081,"o":"m 1081 1028 l 1081 1006 l 856 1006 l 856 0 l 832 0 l 832 596 l 554 596 l 554 451 q 499 256 554 322 q 346 189 444 189 q 191 248 250 189 q 132 403 132 307 q 195 559 132 500 q 361 618 258 618 l 531 618 l 531 772 q 488 953 531 889 q 356 1017 444 1017 q 231 965 279 1017 q 183 822 183 913 q 189 761 183 790 l 165 761 q 160 822 160 803 q 214 981 160 922 q 356 1040 268 1040 q 504 970 454 1040 q 554 774 554 900 l 554 618 l 832 618 l 832 1028 l 1081 1028 m 531 596 l 361 596 q 213 543 269 596 q 156 403 156 490 q 209 264 156 317 q 346 211 263 211 q 481 274 432 211 q 531 450 531 336 l 531 596 z "},"म":{"ha":1021,"x_min":-49,"x_max":1069,"o":"m 1069 1006 l 844 1006 l 844 0 l 821 0 l 821 596 l 499 596 l 499 451 q 444 256 499 322 q 290 189 389 189 q 135 248 194 189 q 76 403 76 307 q 140 559 76 500 q 306 618 203 618 l 475 618 l 475 1006 l -49 1006 l -49 1028 l 1069 1028 l 1069 1006 m 821 1006 l 499 1006 l 499 618 l 821 618 l 821 1006 m 475 596 l 306 596 q 157 543 214 596 q 100 403 100 490 q 153 264 100 317 q 290 211 207 211 q 426 274 376 211 q 475 450 475 336 l 475 596 z "},"य":{"ha":1000,"x_min":-49,"x_max":1049,"o":"m 1049 1006 l 824 1006 l 824 0 l 800 0 l 800 396 q 739 298 782 344 q 628 222 696 251 q 472 192 560 192 q 207 297 301 192 q 113 583 113 403 q 115 632 113 604 l 140 632 q 351 685 275 632 q 428 882 428 739 l 428 1006 l -49 1006 l -49 1028 l 1049 1028 l 1049 1006 m 800 1006 l 451 1006 l 451 882 q 369 670 451 731 q 140 610 288 610 l 136 610 q 135 583 135 597 q 224 312 135 410 q 474 214 314 214 q 636 251 561 214 q 756 356 711 288 q 800 511 800 424 l 800 1006 z "},"र":{"ha":749,"x_min":-49,"x_max":797,"o":"m 163 519 l 163 283 q 219 84 163 158 q 388 10 276 10 q 552 78 492 10 q 613 261 613 147 l 613 276 l 636 276 l 636 261 q 569 62 636 136 q 388 -12 501 -12 q 202 68 265 -12 q 139 285 139 149 l 139 542 l 292 542 q 493 611 421 542 q 565 821 565 681 l 565 1006 l -49 1006 l -49 1028 l 797 1028 l 797 1006 l 589 1006 l 589 821 q 510 594 589 668 q 292 519 432 519 l 163 519 z "},"ल":{"ha":1243,"x_min":-49,"x_max":1292,"o":"m 883 1006 l 883 778 q 1062 689 999 774 q 1125 474 1125 604 q 1046 236 1125 328 q 819 144 967 144 q 774 147 804 144 l 774 171 q 817 168 804 168 q 1028 253 956 168 q 1101 474 1101 338 q 1042 676 1101 596 q 872 756 983 756 q 695 667 757 756 q 633 421 633 578 l 633 410 l 610 410 l 610 421 q 551 665 610 575 q 383 756 493 756 q 204 677 267 756 q 142 474 142 599 q 215 253 142 338 q 426 168 288 168 q 469 171 439 168 l 469 147 q 424 144 439 144 q 197 236 276 144 q 118 474 118 328 q 188 694 118 610 q 383 778 257 778 q 550 706 492 778 q 621 538 608 633 l 624 538 q 694 703 638 632 q 860 778 751 774 l 860 1006 l -49 1006 l -49 1028 l 1292 1028 l 1292 1006 l 883 1006 z "},"व":{"ha":946,"x_min":-49,"x_max":994,"o":"m 994 1028 l 994 1006 l 769 1006 l 769 0 l 746 0 l 746 376 q 639 231 717 289 q 442 174 561 174 q 276 213 350 174 q 160 325 203 251 q 118 499 118 399 q 162 667 118 594 q 279 778 206 739 q 442 817 353 817 q 640 759 563 817 q 746 613 717 701 l 746 1006 l -49 1006 l -49 1028 l 994 1028 m 442 196 q 613 241 544 196 q 713 354 681 286 q 746 492 746 422 l 746 493 q 714 637 746 568 q 613 750 682 706 q 442 794 544 794 q 291 759 360 794 q 182 656 222 724 q 142 499 142 589 q 181 336 142 404 q 289 232 221 268 q 442 196 357 196 z "},"श":{"ha":1079,"x_min":153,"x_max":1128,"o":"m 176 485 l 176 283 q 237 84 176 158 q 415 10 297 10 q 580 78 519 10 q 640 261 640 147 l 640 276 l 664 276 l 664 261 q 597 62 664 136 q 415 -12 529 -12 q 219 68 286 -12 q 153 285 153 149 l 153 507 l 365 507 q 576 575 496 507 q 657 764 657 643 q 592 950 657 882 q 417 1018 526 1018 q 244 951 310 1018 q 179 768 179 883 q 186 694 179 736 l 163 694 q 156 768 156 736 q 226 966 156 892 q 417 1040 297 1040 q 609 967 538 1040 q 681 764 681 893 q 593 558 681 632 q 365 485 506 485 l 176 485 m 1128 1028 l 1128 1006 l 903 1006 l 903 0 l 879 0 l 879 1028 l 1128 1028 z "},"ष":{"ha":882,"x_min":-49,"x_max":931,"o":"m 931 1006 l 706 1006 l 706 0 l 682 0 l 682 489 q 586 366 653 411 q 425 321 519 321 q 211 407 283 321 q 139 651 139 493 l 139 1006 l -49 1006 l -49 1028 l 931 1028 l 931 1006 m 682 1006 l 163 1006 l 675 539 q 682 604 682 574 l 682 1006 m 426 343 q 583 390 519 343 q 669 515 646 438 l 163 976 l 163 651 q 228 423 163 503 q 426 343 293 343 z "},"स":{"ha":1126,"x_min":-49,"x_max":1175,"o":"m 1175 1006 l 950 1006 l 950 0 l 926 0 l 926 547 l 163 547 l 163 283 q 219 84 163 158 q 388 10 276 10 q 552 78 492 10 q 613 261 613 147 l 613 276 l 636 276 l 636 261 q 569 62 636 136 q 388 -12 501 -12 q 202 68 265 -12 q 139 285 139 149 l 139 569 l 292 569 q 491 644 417 569 q 565 849 565 719 l 565 1006 l -49 1006 l -49 1028 l 1175 1028 l 1175 1006 m 926 1006 l 588 1006 l 588 849 q 537 663 588 735 q 403 568 486 592 l 926 568 l 926 1006 z "},"ह":{"ha":815,"x_min":-49,"x_max":864,"o":"m 385 763 q 238 726 296 763 q 181 611 181 690 q 224 504 181 546 q 339 446 268 463 q 428 456 388 456 q 624 395 551 456 q 717 254 697 335 l 693 254 q 649 338 682 297 q 560 406 617 379 q 428 433 504 433 q 274 396 338 433 q 179 296 211 358 q 147 160 147 233 q 178 24 147 85 q 274 -74 210 -37 q 428 -111 338 -111 q 604 -58 536 -111 q 693 67 672 -4 l 717 67 q 622 -74 694 -12 q 428 -135 549 -135 q 260 -94 329 -135 q 158 13 192 -54 q 124 160 124 81 q 170 328 124 254 q 303 435 217 401 q 201 494 246 450 q 157 611 157 539 q 220 742 157 700 q 385 785 283 785 l 628 785 l 628 1006 l -49 1006 l -49 1028 l 864 1028 l 864 1006 l 651 1006 l 651 763 l 385 763 z "},"ळ":{"ha":1431,"x_min":-49,"x_max":1479,"o":"m 1026 1006 l 1026 800 q 1174 756 1108 796 q 1276 646 1239 715 q 1313 488 1313 576 q 1273 332 1313 401 q 1164 224 1233 263 q 1007 185 1094 185 q 867 215 929 185 q 767 297 806 246 q 717 408 728 349 l 714 408 q 664 297 703 349 q 563 215 625 246 q 424 185 501 185 q 267 224 336 185 q 158 332 197 263 q 118 488 118 401 q 158 651 118 581 q 267 761 197 722 q 422 800 336 800 q 618 735 544 800 q 714 579 692 671 l 717 579 q 811 734 739 669 q 1003 800 883 799 l 1003 1006 l -49 1006 l -49 1028 l 1479 1028 l 1479 1006 l 1026 1006 m 424 207 q 569 243 506 207 q 667 343 632 279 q 701 488 701 407 q 667 638 701 572 q 569 741 632 704 q 422 778 506 778 q 278 742 342 778 q 178 640 214 706 q 142 488 142 574 q 178 342 142 406 q 279 242 215 278 q 424 207 343 207 m 1289 488 q 1253 640 1289 574 q 1153 742 1217 706 q 1008 778 1089 778 q 862 741 925 778 q 764 638 799 704 q 729 488 729 572 q 764 343 729 407 q 862 243 799 279 q 1007 207 925 207 q 1151 242 1088 207 q 1252 342 1215 278 q 1289 488 1289 406 z "},"क़":{"ha":1418,"x_min":-49,"x_max":1467,"o":"m 726 1006 l 726 611 q 823 755 754 699 q 1003 811 892 811 q 1151 773 1083 811 q 1260 664 1219 735 q 1300 499 1300 593 q 1262 326 1300 399 q 1157 215 1224 253 q 1007 176 1090 176 q 928 185 964 176 l 928 207 q 1007 199 964 199 q 1144 234 1083 199 q 1241 338 1206 269 q 1276 499 1276 406 q 1240 652 1276 586 q 1140 753 1203 718 q 1003 789 1078 789 q 847 744 908 789 q 756 630 785 699 q 726 488 726 561 l 726 0 l 704 0 l 704 372 q 604 232 676 288 q 422 176 532 176 q 267 215 336 176 q 158 326 197 253 q 118 499 118 399 q 159 664 118 593 q 269 773 200 735 q 422 811 339 811 q 604 756 533 811 q 704 615 675 701 l 704 1006 l -49 1006 l -49 1028 l 1467 1028 l 1467 1006 l 726 1006 m 422 199 q 581 243 517 199 q 674 355 644 288 q 704 492 704 422 l 704 493 q 674 634 704 567 q 581 745 644 701 q 422 789 518 789 q 281 753 344 789 q 179 653 217 718 q 142 499 142 588 q 178 338 142 406 q 279 234 215 269 q 422 199 343 199 m 414 -29 q 389 -20 399 -29 q 379 4 379 -11 q 389 28 379 19 q 414 38 399 38 q 438 28 428 38 q 447 4 447 18 q 438 -20 447 -11 q 414 -29 428 -29 z "},"ख़":{"ha":1263,"x_min":-49,"x_max":1311,"o":"m 1311 1028 l 1311 1006 l 1086 1006 l 1086 0 l 1063 0 l 1063 396 q 974 270 1038 319 q 813 221 910 221 q 747 228 782 221 q 635 65 714 129 q 444 0 557 0 q 222 81 306 0 q 139 297 139 161 l 139 547 l 200 547 q 348 597 289 547 q 407 782 407 647 l 407 1006 l -49 1006 l -49 1028 l 1311 1028 m 446 22 q 621 82 549 22 q 724 233 693 142 q 584 330 636 258 q 532 508 532 401 q 569 655 532 592 q 671 751 607 718 q 813 785 735 785 q 974 736 911 785 q 1063 613 1038 688 l 1063 1006 l 431 1006 l 431 782 q 365 581 431 636 q 192 525 300 525 l 163 525 l 163 297 q 239 97 163 172 q 446 22 315 22 m 813 243 q 953 282 897 243 q 1036 381 1010 321 q 1063 501 1063 440 l 1063 503 q 1036 626 1063 567 q 953 724 1010 686 q 813 763 897 763 q 684 732 743 763 q 590 644 625 701 q 556 508 556 586 q 590 366 556 426 q 682 274 624 306 q 813 243 740 243 m 428 -206 q 403 -197 413 -206 q 393 -172 393 -187 q 403 -148 393 -157 q 428 -139 413 -139 q 451 -149 442 -139 q 461 -172 461 -158 q 451 -197 461 -187 q 428 -206 442 -206 z "},"ग़":{"ha":949,"x_min":-49,"x_max":997,"o":"m 997 1028 l 997 1006 l 772 1006 l 772 0 l 749 0 l 749 1006 l 436 1006 l 436 575 q 393 435 436 490 q 258 379 350 379 q 126 435 169 379 q 82 572 82 492 l 82 614 l 106 614 l 106 571 q 142 451 106 501 q 258 401 179 401 q 377 451 342 401 q 413 575 413 501 l 413 1006 l -49 1006 l -49 1028 l 997 1028 m 269 164 q 244 173 254 164 q 235 197 235 182 q 244 222 235 213 q 269 231 254 231 q 293 221 283 231 q 303 197 303 211 q 293 173 303 182 q 269 164 283 164 z "},"ज़":{"ha":1143,"x_min":-49,"x_max":1192,"o":"m 1192 1006 l 967 1006 l 967 0 l 943 0 l 943 685 l 586 685 l 586 472 q 524 290 586 360 q 354 221 461 221 q 193 290 253 221 q 133 472 133 360 l 133 707 l 157 707 l 157 471 q 211 306 157 369 q 356 243 265 243 q 506 306 450 243 q 563 471 563 369 l 563 707 l 943 707 l 943 1006 l -49 1006 l -49 1028 l 1192 1028 l 1192 1006 m 364 15 q 339 24 349 15 q 329 49 329 33 q 339 73 329 64 q 364 82 349 82 q 388 72 378 82 q 397 49 397 63 q 388 24 397 33 q 364 15 378 15 z "},"ड़":{"ha":808,"x_min":-49,"x_max":857,"o":"m 406 758 q 238 724 306 758 q 169 596 169 689 q 228 474 169 513 q 376 436 286 436 l 439 436 q 641 383 560 436 q 722 208 722 329 q 651 49 722 111 q 447 -12 581 -12 q 269 22 343 -12 q 159 117 196 57 q 122 256 122 178 l 146 256 q 222 79 146 149 q 447 10 299 10 q 635 66 571 10 q 699 208 699 122 q 623 367 699 321 q 438 414 547 414 l 375 414 q 210 460 274 414 q 146 596 146 506 q 218 738 146 696 q 394 781 290 781 l 606 781 l 606 1006 l -49 1006 l -49 1028 l 857 1028 l 857 1006 l 629 1006 l 629 758 l 406 758 m 438 -218 q 413 -209 422 -218 q 403 -185 403 -200 q 413 -160 403 -169 q 438 -151 422 -151 q 461 -161 451 -151 q 471 -185 471 -171 q 461 -209 471 -200 q 438 -218 451 -218 z "},"ढ़":{"ha":872,"x_min":-49,"x_max":921,"o":"m 532 774 q 249 681 357 774 q 142 410 142 589 q 190 225 142 306 q 322 99 238 144 q 510 54 406 54 q 654 85 590 54 q 754 171 718 117 q 790 293 790 225 q 735 436 790 379 q 596 493 681 493 q 472 446 524 493 q 419 322 419 399 q 422 292 419 308 l 399 292 q 396 324 396 308 q 453 463 396 411 q 596 515 511 515 q 753 453 693 515 q 814 293 814 390 q 776 158 814 218 q 668 65 738 99 q 510 32 599 32 q 309 80 399 32 q 169 213 219 128 q 118 408 118 299 q 233 698 118 600 q 532 796 347 796 l 614 796 l 614 1006 l -49 1006 l -49 1028 l 921 1028 l 921 1006 l 638 1006 l 638 774 l 532 774 m 471 -174 q 446 -165 456 -174 q 436 -140 436 -156 q 446 -116 436 -125 q 471 -107 456 -107 q 494 -117 485 -107 q 504 -140 504 -126 q 494 -165 504 -156 q 471 -174 485 -174 z "},"फ़":{"ha":1369,"x_min":-49,"x_max":1418,"o":"m 678 1006 l 678 608 q 774 754 704 697 q 954 811 843 811 q 1103 773 1035 811 q 1211 664 1171 735 q 1251 499 1251 593 q 1213 326 1251 399 q 1108 215 1175 253 q 958 176 1042 176 q 879 185 915 176 l 879 207 q 958 199 915 199 q 1096 234 1035 199 q 1192 338 1157 269 q 1228 499 1228 406 q 1191 652 1228 586 q 1092 753 1154 718 q 954 789 1029 789 q 798 744 860 789 q 707 630 736 699 q 678 488 678 561 l 678 0 l 654 0 l 654 489 q 565 366 628 411 q 411 321 501 321 q 208 407 276 321 q 139 651 139 493 l 139 1006 l -49 1006 l -49 1028 l 1418 1028 l 1418 1006 l 678 1006 m 654 1006 l 163 1006 l 163 651 q 224 423 163 503 q 413 343 286 343 q 542 378 488 343 q 626 472 597 413 q 654 604 654 532 l 654 1006 m 401 115 q 376 124 386 115 q 367 149 367 133 q 376 173 367 164 q 401 182 386 182 q 425 172 415 182 q 435 149 435 163 q 425 124 435 133 q 401 115 415 115 z "},"ऱ":{"ha":749,"x_min":-49,"x_max":797,"o":"m 163 519 l 163 283 q 219 84 163 158 q 388 10 276 10 q 552 78 492 10 q 613 261 613 147 l 613 276 l 636 276 l 636 261 q 569 62 636 136 q 388 -12 501 -12 q 202 68 265 -12 q 139 285 139 149 l 139 542 l 292 542 q 493 611 421 542 q 565 821 565 681 l 565 1006 l -49 1006 l -49 1028 l 797 1028 l 797 1006 l 589 1006 l 589 821 q 510 594 589 668 q 292 519 432 519 l 163 519 m 169 -156 q 144 -147 154 -156 q 135 -122 135 -137 q 144 -98 135 -107 q 169 -89 154 -89 q 193 -99 183 -89 q 203 -122 203 -108 q 193 -147 203 -137 q 169 -156 183 -156 z "},"ं":{"ha":0,"x_min":-222,"x_max":-154,"o":"m -187 1188 q -212 1197 -203 1188 q -222 1221 -222 1206 q -212 1245 -222 1236 q -187 1254 -203 1254 q -164 1245 -174 1254 q -154 1221 -154 1236 q -164 1197 -154 1207 q -187 1188 -174 1188 z "},"ँ":{"ha":0,"x_min":-426,"x_max":49,"o":"m -187 1358 q -212 1367 -203 1358 q -222 1392 -222 1376 q -212 1416 -222 1407 q -187 1425 -203 1425 q -164 1416 -174 1425 q -154 1392 -154 1407 q -164 1368 -154 1378 q -187 1358 -174 1358 m -189 1144 q -321 1175 -267 1144 q -401 1252 -375 1206 q -426 1346 -426 1299 l -404 1346 q -381 1262 -404 1303 q -308 1194 -357 1221 q -189 1167 -260 1167 q -69 1194 -118 1167 q 3 1262 -21 1221 q 26 1346 26 1303 l 49 1346 q 22 1252 49 1299 q -58 1175 -4 1206 q -189 1144 -111 1144 z "},"ः":{"ha":263,"x_min":97,"x_max":165,"o":"m 132 679 q 107 688 117 679 q 97 713 97 697 q 107 737 97 728 q 132 746 117 746 q 156 737 147 746 q 165 713 165 728 q 156 689 165 699 q 132 679 147 679 m 132 240 q 107 249 117 240 q 97 274 97 258 q 107 298 97 289 q 132 307 117 307 q 156 298 147 307 q 165 274 165 289 q 156 250 165 260 q 132 240 147 240 z "},"ऽ":{"ha":775,"x_min":129,"x_max":643,"o":"m 129 126 l 450 126 q 563 160 524 126 q 603 246 603 194 q 577 331 603 289 q 515 410 551 374 q 413 503 478 446 q 302 603 343 563 q 233 693 261 644 q 204 793 204 742 q 390 933 204 933 l 643 933 l 643 911 l 393 911 q 272 885 317 911 q 228 793 228 860 q 254 703 228 747 q 319 621 281 658 q 424 525 357 583 q 575 378 524 440 q 626 246 626 315 q 583 146 626 188 q 450 104 540 104 l 129 104 l 129 126 z "},"्":{"ha":0,"x_min":-196,"x_max":-10,"o":"m -196 -92 l -171 -92 l -10 -339 l -36 -339 l -196 -92 z "},"़":{"ha":0,"x_min":-628,"x_max":-560,"o":"m -593 -62 q -618 -53 -608 -62 q -628 -29 -628 -44 q -618 -5 -628 -14 q -593 4 -608 4 q -569 -6 -579 4 q -560 -29 -560 -15 q -569 -53 -560 -44 q -593 -62 -579 -62 z "},"०":{"ha":817,"x_min":97,"x_max":719,"o":"m 97 492 q 122 225 97 333 q 215 53 147 117 q 408 -10 283 -10 q 601 53 532 -10 q 694 225 669 117 q 719 492 719 333 q 694 755 719 647 q 601 925 669 863 q 408 988 532 988 q 215 925 283 988 q 122 756 147 863 q 97 492 97 649 m 692 492 q 669 238 692 340 q 585 75 647 135 q 408 15 524 15 q 231 75 293 15 q 147 238 169 135 q 125 492 125 340 q 147 743 125 642 q 231 903 169 844 q 408 963 293 963 q 585 903 524 963 q 669 743 647 844 q 692 492 692 642 z "},"१":{"ha":314,"x_min":21,"x_max":196,"o":"m 21 953 l 21 978 l 196 978 l 196 0 l 168 0 l 168 953 l 21 953 z "},"२":{"ha":788,"x_min":69,"x_max":718,"o":"m 69 15 q 499 371 340 190 q 657 715 657 551 q 599 893 657 824 q 407 963 540 963 q 201 881 272 963 q 119 667 129 800 l 92 667 q 185 902 103 817 q 407 988 268 988 q 605 922 525 988 q 685 715 685 857 q 597 460 685 592 q 381 215 510 328 q 122 25 251 101 l 718 25 l 718 0 l 69 0 l 69 15 z "},"३":{"ha":799,"x_min":74,"x_max":706,"o":"m 413 988 q 615 919 543 988 q 688 746 688 851 q 631 591 688 657 q 444 514 574 525 l 444 506 q 636 417 567 478 q 706 249 706 357 q 632 63 706 136 q 411 -10 558 -10 q 185 65 274 -10 q 74 274 97 139 l 101 274 q 202 89 122 160 q 411 18 282 18 q 610 83 542 18 q 678 249 678 147 q 582 433 678 369 q 314 496 486 496 l 290 496 l 290 522 l 315 522 q 660 746 660 522 q 594 903 660 843 q 413 963 529 963 q 217 903 299 963 q 119 717 135 843 l 92 717 q 189 915 106 843 q 413 988 272 988 z "},"४":{"ha":797,"x_min":28,"x_max":776,"o":"m 28 264 l 28 286 l 579 978 l 607 978 l 607 289 l 776 289 l 776 264 l 607 264 l 607 0 l 579 0 l 579 264 l 28 264 m 579 933 l 63 289 l 579 289 l 579 933 z "},"५":{"ha":822,"x_min":97,"x_max":746,"o":"m 699 953 l 140 953 l 140 508 q 258 604 181 568 q 428 640 336 640 q 667 551 589 640 q 746 328 746 461 q 713 160 746 236 q 606 37 679 83 q 422 -10 533 -10 q 204 64 292 -10 q 97 267 117 138 l 125 267 q 228 82 149 146 q 421 18 307 18 q 643 103 568 18 q 718 328 718 189 q 642 538 718 461 q 428 615 567 615 q 256 575 332 615 q 138 463 179 535 l 113 463 l 113 978 l 699 978 l 699 953 z "},"६":{"ha":853,"x_min":97,"x_max":769,"o":"m 701 725 q 622 901 686 839 q 444 964 557 964 q 206 851 289 964 q 124 486 124 738 q 125 413 124 438 q 233 585 143 521 q 447 650 322 650 q 685 560 601 650 q 769 311 769 469 q 738 153 769 225 q 635 35 706 81 q 454 -10 564 -10 q 172 120 247 -10 q 97 471 97 250 q 178 854 97 719 q 444 989 260 989 q 642 918 569 989 q 729 725 714 847 l 701 725 m 133 340 q 167 183 133 257 q 272 62 200 108 q 454 15 344 15 q 663 94 585 15 q 742 311 742 174 q 663 544 742 464 q 447 625 585 625 q 298 593 369 625 q 180 497 226 561 q 133 340 133 433 z "},"७":{"ha":697,"x_min":14,"x_max":642,"o":"m 642 953 l 253 0 l 221 0 l 615 953 l 14 953 l 14 978 l 642 978 l 642 953 z "},"८":{"ha":844,"x_min":76,"x_max":768,"o":"m 104 739 q 189 919 104 851 q 422 988 274 988 q 656 919 571 988 q 740 739 740 851 q 689 588 740 651 q 528 503 638 525 q 704 416 640 483 q 768 246 768 349 q 677 40 768 115 q 422 -35 586 -35 q 167 40 258 -35 q 76 246 76 115 q 140 416 76 349 q 317 503 204 483 q 156 588 207 525 q 104 739 104 651 m 132 739 q 210 574 132 633 q 422 515 288 515 q 635 574 557 515 q 713 739 713 633 q 634 905 713 847 q 422 963 556 963 q 210 905 289 963 q 132 739 132 847 m 104 246 q 190 57 104 124 q 422 -10 276 -10 q 654 57 568 -10 q 740 246 740 124 q 651 431 740 371 q 422 490 561 490 q 194 431 283 490 q 104 246 104 371 z "},"९":{"ha":853,"x_min":83,"x_max":756,"o":"m 151 253 q 231 76 167 139 q 408 14 296 14 q 647 127 564 14 q 729 492 729 240 q 728 565 729 540 q 620 392 710 457 q 406 328 531 328 q 167 418 251 328 q 83 667 83 508 q 115 825 83 753 q 218 942 147 897 q 399 988 289 988 q 681 858 606 988 q 756 507 756 728 q 674 124 756 258 q 408 -11 593 -11 q 211 60 283 -11 q 124 253 139 131 l 151 253 m 719 638 q 686 795 719 721 q 581 916 653 869 q 399 963 508 963 q 190 883 268 963 q 111 667 111 804 q 190 433 111 514 q 406 353 268 353 q 555 385 483 353 q 673 481 626 417 q 719 638 719 544 z "},"ॐ":{"ha":1447,"x_min":125,"x_max":1308,"o":"m 818 1271 q 793 1280 803 1271 q 783 1304 783 1289 q 793 1328 783 1319 q 818 1338 803 1338 q 842 1328 833 1338 q 851 1304 851 1319 q 842 1281 851 1290 q 818 1271 833 1271 m 817 1057 q 685 1088 739 1057 q 605 1165 631 1118 q 579 1258 579 1211 l 601 1258 q 625 1174 601 1215 q 697 1106 649 1133 q 817 1079 746 1079 q 936 1106 888 1079 q 1008 1174 985 1133 q 1032 1258 1032 1215 l 1054 1258 q 1028 1165 1054 1211 q 948 1088 1001 1118 q 817 1057 894 1057 m 1067 958 q 1253 872 1199 958 q 1308 614 1308 785 l 1308 406 q 1233 134 1308 222 q 975 46 1158 46 q 843 60 924 46 l 843 82 q 975 68 926 68 q 1215 151 1146 68 q 1285 406 1285 233 l 1285 614 q 1235 854 1285 772 q 1067 936 1185 936 q 908 874 957 936 q 858 708 858 811 q 656 500 858 500 l 601 500 q 669 412 646 465 q 692 297 692 358 q 617 96 692 172 q 417 19 542 19 q 268 53 335 19 q 163 150 201 88 q 125 292 125 213 l 149 292 q 183 161 149 218 q 278 73 218 104 q 415 42 339 42 q 599 113 531 42 q 668 297 668 183 q 642 413 668 358 q 560 503 617 468 q 414 539 503 539 l 367 539 l 367 561 l 414 561 q 544 594 492 561 q 623 676 597 626 q 649 781 649 726 q 616 908 649 854 q 528 990 583 961 q 406 1018 472 1018 q 231 960 301 1018 q 161 801 161 901 l 138 801 q 213 976 138 913 q 406 1040 289 1040 q 542 1009 481 1040 q 638 920 603 978 q 672 786 672 863 q 624 631 672 694 q 483 551 576 568 l 483 550 q 568 522 529 544 l 656 522 q 788 565 740 522 q 835 708 835 607 q 890 890 835 822 q 1067 958 944 958 z "},"॰":{"ha":707,"x_min":131,"x_max":576,"o":"m 576 497 q 515 343 576 403 q 357 283 454 283 q 194 344 258 283 q 131 500 131 406 q 194 656 131 594 q 357 717 258 717 q 515 656 454 717 q 576 497 576 594 m 154 500 q 211 360 154 414 q 357 306 268 306 q 498 359 443 306 q 553 497 553 413 q 498 639 553 583 q 357 694 443 694 q 211 640 268 694 q 154 500 154 586 z "},"।":{"ha":315,"x_min":229,"x_max":253,"o":"m 253 0 l 229 0 l 229 1031 l 253 1031 l 253 0 z "},"॥":{"ha":531,"x_min":229,"x_max":468,"o":"m 253 0 l 229 0 l 229 1031 l 253 1031 l 253 0 m 468 0 l 444 0 l 444 1031 l 468 1031 l 468 0 z "},"₨":{"ha":1375,"x_min":118,"x_max":1292,"o":"m 678 701 q 603 501 678 571 q 386 426 529 432 l 688 0 l 653 0 l 354 426 l 146 426 l 146 0 l 118 0 l 118 978 l 365 978 q 601 904 525 978 q 678 701 678 831 m 146 456 l 365 456 q 650 701 650 456 q 583 885 650 821 q 365 950 517 950 l 146 950 l 146 456 m 824 565 q 853 476 824 508 q 926 427 883 443 q 1044 393 969 411 q 1175 355 1126 374 q 1258 295 1224 336 q 1292 185 1292 254 q 1231 44 1292 99 q 1074 -10 1171 -10 q 877 52 954 -10 q 788 219 800 114 l 815 219 q 891 74 824 132 q 1075 15 958 15 q 1214 63 1164 15 q 1264 185 1264 110 q 1233 280 1264 244 q 1157 333 1203 315 q 1036 367 1111 350 q 909 403 957 385 q 828 460 861 422 q 796 565 796 499 q 858 707 796 654 q 1024 760 921 760 q 1204 699 1135 760 q 1286 531 1274 638 l 1258 531 q 1189 676 1249 617 q 1024 735 1129 735 q 877 688 931 735 q 824 565 824 642 z "},"₹":{"ha":936,"x_min":90,"x_max":846,"o":"m 613 761 l 613 724 l 846 724 l 846 699 l 611 699 q 565 540 604 593 q 440 468 525 488 q 193 449 356 449 l 193 269 q 251 78 193 144 q 422 11 308 11 q 585 74 529 11 q 640 256 640 138 l 668 256 q 603 55 668 124 q 422 -14 538 -14 q 231 60 294 -14 q 167 261 167 133 l 167 474 q 424 492 339 474 q 544 556 508 510 q 585 699 579 603 l 90 699 l 90 724 l 586 724 l 586 764 l 586 953 l 90 953 l 90 978 l 846 978 l 846 953 l 613 953 l 613 761 z "},"‌":{"ha":0,"x_min":-32,"x_max":33,"o":"m -32 1126 l 33 1126 l 33 -319 l -32 -319 l -32 1126 z "},"‍":{"ha":0,"x_min":-178,"x_max":178,"o":"m 32 882 l 32 -319 l -33 -319 l -33 882 l -129 781 l -175 826 l -46 956 l -178 1088 l -132 1133 l 0 1001 l 133 1133 l 178 1089 l 44 956 l 178 824 l 132 778 l 32 882 z "},"◌":{"ha":904,"x_min":69,"x_max":835,"o":"m 418 633 q 375 649 392 633 q 358 692 358 665 q 375 734 358 718 q 418 750 392 750 q 461 734 444 750 q 478 692 478 718 q 461 649 478 665 q 418 633 444 633 m 586 613 q 543 628 560 613 q 526 671 526 644 q 543 713 526 697 q 586 729 560 729 q 629 713 613 729 q 646 671 646 697 q 629 628 646 644 q 586 613 613 613 m 256 575 q 213 591 229 575 q 196 633 196 607 q 213 676 196 660 q 256 692 229 692 q 299 676 282 692 q 315 633 315 660 q 299 591 315 607 q 256 575 282 575 m 714 510 q 671 526 688 510 q 654 568 654 542 q 671 610 654 594 q 714 626 688 626 q 757 610 740 626 q 774 568 774 594 q 757 526 774 542 q 714 510 740 510 m 150 438 q 107 453 124 438 q 90 496 90 469 q 107 538 90 522 q 150 554 124 554 q 193 538 176 554 q 210 496 210 522 q 193 453 210 469 q 150 438 176 438 m 775 351 q 732 367 749 351 q 715 410 715 383 q 732 452 715 436 q 775 468 749 468 q 818 452 801 468 q 835 410 835 436 q 818 367 835 383 q 775 351 801 351 m 129 269 q 86 285 103 269 q 69 328 69 301 q 86 370 69 354 q 129 386 103 386 q 172 370 156 386 q 189 328 189 354 q 172 285 189 301 q 129 269 156 269 m 761 185 q 718 201 735 185 q 701 243 701 217 q 718 285 701 269 q 761 301 735 301 q 804 285 788 301 q 821 243 821 269 q 804 201 821 217 q 761 185 788 185 m 192 113 q 149 128 165 113 q 132 171 132 144 q 149 213 132 197 q 192 229 165 229 q 235 213 218 229 q 251 171 251 197 q 235 128 251 144 q 192 113 218 113 m 660 51 q 617 67 633 51 q 600 110 600 83 q 617 152 600 136 q 660 168 633 168 q 703 152 686 168 q 719 110 719 136 q 703 67 719 83 q 660 51 686 51 m 328 7 q 285 23 301 7 q 268 65 268 39 q 285 108 268 92 q 328 124 301 124 q 371 108 354 124 q 388 65 388 92 q 371 23 388 39 q 328 7 354 7 m 500 -12 q 457 3 474 -12 q 440 46 440 19 q 457 88 440 72 q 500 104 474 104 q 543 88 526 104 q 560 46 560 72 q 543 3 560 19 q 500 -12 526 -12 z "},"!":{"ha":311,"x_min":121,"x_max":190,"o":"m 169 978 l 161 232 l 144 232 l 136 978 l 169 978 m 190 68 l 190 0 l 121 0 l 121 68 l 190 68 z "},"\"":{"ha":272,"x_min":56,"x_max":217,"o":"m 99 1101 l 89 853 l 67 853 l 56 1101 l 99 1101 m 217 1101 l 207 853 l 185 853 l 174 1101 l 217 1101 z "},"#":{"ha":1032,"x_min":56,"x_max":976,"o":"m 750 646 l 692 369 l 907 369 l 907 344 l 686 344 l 613 0 l 585 0 l 658 344 l 310 344 l 236 0 l 208 0 l 282 344 l 56 344 l 56 369 l 288 369 l 346 646 l 125 646 l 125 671 l 351 671 l 428 1028 l 456 1028 l 379 671 l 728 671 l 804 1028 l 832 1028 l 756 671 l 976 671 l 976 646 l 750 646 m 722 646 l 374 646 l 315 369 l 664 369 l 722 646 z "},"$":{"ha":744,"x_min":83,"x_max":661,"o":"m 386 510 q 531 456 475 483 q 624 376 586 429 q 661 235 661 324 q 634 118 661 174 q 547 26 607 63 q 396 -10 488 -10 l 386 -10 l 386 -121 l 358 -121 l 358 -8 q 222 34 282 -1 q 128 123 163 69 q 88 235 94 176 l 115 235 q 149 144 121 192 q 229 61 176 97 q 358 17 282 25 l 358 490 q 213 542 268 517 q 121 619 158 568 q 83 754 83 669 q 152 922 83 856 q 347 988 221 988 l 358 988 l 358 1111 l 386 1111 l 386 986 q 558 914 494 975 q 638 776 621 853 l 610 776 q 539 894 594 838 q 386 961 483 950 l 386 510 m 111 754 q 144 635 111 681 q 227 566 176 590 q 358 518 278 542 l 358 963 l 347 963 q 176 908 240 963 q 111 754 111 853 m 396 15 q 572 78 511 15 q 633 235 633 140 q 600 359 633 311 q 516 433 567 407 q 386 482 465 458 l 386 15 l 396 15 z "},"%":{"ha":735,"x_min":56,"x_max":679,"o":"m 232 988 q 358 937 308 988 q 408 808 408 886 q 358 680 408 731 q 232 629 308 629 q 106 680 156 629 q 56 808 56 731 q 106 937 56 886 q 232 988 156 988 m 676 978 l 89 0 l 57 0 l 644 978 l 676 978 m 83 808 q 125 698 83 742 q 232 654 167 654 q 339 698 297 654 q 381 808 381 742 q 339 919 381 875 q 232 963 297 963 q 125 919 167 963 q 83 808 83 875 m 503 347 q 629 297 579 347 q 679 168 679 246 q 629 40 679 90 q 503 -11 579 -11 q 376 40 426 -11 q 326 168 326 90 q 376 297 326 246 q 503 347 426 347 m 354 168 q 396 58 354 101 q 503 14 438 14 q 610 58 568 14 q 651 168 651 101 q 610 278 651 235 q 503 322 568 322 q 396 278 438 322 q 354 168 354 235 z "},"&":{"ha":933,"x_min":56,"x_max":919,"o":"m 886 0 l 556 354 q 581 306 574 328 q 588 250 588 283 q 554 116 588 175 q 462 24 521 57 q 329 -10 403 -10 q 193 24 256 -10 q 93 120 131 57 q 56 269 56 183 q 88 415 56 356 q 175 506 121 475 q 294 536 229 536 q 369 526 335 536 q 424 499 403 515 l 363 561 q 279 667 307 618 q 251 786 251 715 q 276 885 251 839 q 349 959 300 931 q 468 988 399 988 q 640 921 583 988 q 697 761 697 854 q 696 724 697 736 l 668 724 q 669 758 669 736 q 615 908 669 853 q 468 963 561 963 q 329 911 379 963 q 279 786 279 860 q 301 685 279 726 q 368 594 324 643 l 919 0 l 886 0 m 329 18 q 448 48 396 18 q 530 131 500 78 q 560 250 560 183 q 522 381 560 322 q 424 474 483 440 q 301 508 364 508 q 144 447 206 508 q 83 269 83 385 q 117 135 83 192 q 207 48 151 78 q 329 18 263 18 z "},"'":{"ha":165,"x_min":56,"x_max":110,"o":"m 110 1101 l 94 853 l 72 853 l 56 1101 l 110 1101 z "},"(":{"ha":496,"x_min":83,"x_max":468,"o":"m 83 560 q 181 1038 83 831 q 440 1371 279 1246 l 468 1371 l 468 1367 q 199 1017 288 1224 q 111 560 111 811 q 199 102 111 308 q 468 -247 288 -104 l 468 -251 l 440 -251 q 181 81 279 -126 q 83 560 83 289 z "},")":{"ha":496,"x_min":28,"x_max":413,"o":"m 413 560 q 315 81 413 289 q 56 -251 217 -126 l 28 -251 l 28 -247 q 297 102 208 -104 q 385 560 385 308 q 297 1017 385 811 q 28 1367 208 1224 l 28 1371 l 56 1371 q 315 1038 217 1246 q 413 560 413 831 z "},"*":{"ha":596,"x_min":56,"x_max":540,"o":"m 506 907 l 540 844 l 317 756 l 540 667 l 508 607 l 318 738 l 340 500 l 269 500 l 286 738 l 90 603 l 56 665 l 276 754 l 56 846 l 93 911 l 285 776 l 269 1011 l 339 1011 l 318 776 l 506 907 z "},"+":{"ha":818,"x_min":56,"x_max":763,"o":"m 763 515 l 422 515 l 422 174 l 394 174 l 394 515 l 56 515 l 56 540 l 394 540 l 394 882 l 422 882 l 422 540 l 763 540 l 763 515 z "},",":{"ha":167,"x_min":35,"x_max":125,"o":"m 122 43 q 125 -3 125 10 q 35 -119 125 -119 l 35 -94 q 94 -19 94 -94 l 94 -10 l 51 -10 l 51 43 l 122 43 z "},"-":{"ha":617,"x_min":-49,"x_max":457,"o":"m 457 540 l 457 515 l -49 515 l -49 540 l 457 540 z "},".":{"ha":157,"x_min":43,"x_max":113,"o":"m 113 68 l 113 0 l 43 0 l 43 68 l 113 68 z "},"/":{"ha":499,"x_min":42,"x_max":457,"o":"m 457 1299 l 69 -217 l 42 -217 l 426 1299 l 457 1299 z "},":":{"ha":157,"x_min":43,"x_max":113,"o":"m 113 699 l 113 631 l 43 631 l 43 699 l 113 699 m 113 68 l 113 0 l 43 0 l 43 68 l 113 68 z "},";":{"ha":194,"x_min":63,"x_max":153,"o":"m 153 700 l 153 632 l 83 632 l 83 700 l 153 700 m 150 43 q 153 -3 153 10 q 63 -119 153 -119 l 63 -94 q 122 -19 122 -94 l 122 -10 l 79 -10 l 79 43 l 150 43 z "},"<":{"ha":529,"x_min":56,"x_max":474,"o":"m 439 199 l 56 528 l 439 858 l 474 858 l 90 528 l 474 199 l 439 199 z "},"=":{"ha":783,"x_min":56,"x_max":728,"o":"m 728 664 l 728 639 l 56 639 l 56 664 l 728 664 m 728 418 l 728 393 l 56 393 l 56 418 l 728 418 z "},">":{"ha":529,"x_min":56,"x_max":474,"o":"m 56 858 l 90 858 l 474 528 l 90 199 l 56 199 l 439 528 l 56 858 z "},"?":{"ha":669,"x_min":42,"x_max":614,"o":"m 336 988 q 538 914 463 988 q 614 718 614 840 q 519 485 614 557 q 251 413 424 414 l 251 211 l 224 211 l 224 438 l 246 438 q 492 496 397 438 q 586 718 586 554 q 519 897 586 832 q 336 963 451 963 q 143 897 217 963 q 69 725 69 832 l 42 725 q 81 866 42 807 q 188 956 121 925 q 336 988 256 988 m 274 68 l 274 0 l 204 0 l 204 68 l 274 68 z "},"@":{"ha":1422,"x_min":69,"x_max":1353,"o":"m 731 768 q 904 724 833 768 q 1010 607 975 681 q 1044 444 1044 533 q 1038 364 1044 408 l 997 129 q 993 92 993 108 q 1018 27 993 46 q 1088 8 1043 8 q 1207 63 1153 8 q 1293 216 1261 117 q 1325 446 1325 315 q 1260 751 1325 619 q 1067 955 1194 882 q 756 1028 939 1028 q 406 935 554 1028 q 178 683 257 843 q 100 324 100 522 q 267 -145 100 8 q 722 -306 435 -299 l 718 -332 q 243 -162 417 -326 q 69 324 69 1 q 148 683 69 517 q 381 952 226 850 q 756 1054 536 1054 q 1087 976 953 1054 q 1287 760 1221 897 q 1353 446 1353 622 q 1317 208 1353 314 q 1222 43 1282 103 q 1088 -17 1161 -17 q 971 94 971 -17 q 985 190 971 136 l 982 192 q 849 38 931 93 q 658 -17 768 -17 q 501 26 569 -17 q 394 147 432 69 q 356 326 356 225 q 406 553 356 451 q 542 711 456 654 q 731 768 628 768 m 731 740 q 549 686 628 740 q 426 538 469 632 q 383 326 383 443 q 415 167 383 239 q 509 51 447 94 q 658 8 571 8 q 840 63 758 8 q 968 215 921 118 q 1015 438 1015 313 q 945 656 1015 571 q 731 740 875 740 z "},"A":{"ha":835,"x_min":42,"x_max":793,"o":"m 660 269 l 176 269 l 74 0 l 42 0 l 404 949 l 432 949 l 793 0 l 761 0 l 660 269 m 650 294 l 418 904 l 186 294 l 650 294 z "},"B":{"ha":778,"x_min":118,"x_max":708,"o":"m 496 508 q 649 424 589 492 q 708 261 708 356 q 629 73 708 146 q 399 0 550 0 l 118 0 l 118 978 l 399 978 q 615 912 544 978 q 686 739 686 846 q 633 583 686 640 q 496 508 579 525 m 146 522 l 407 522 q 594 580 529 522 q 658 739 658 638 q 594 893 658 836 q 399 950 531 950 l 146 950 l 146 522 m 399 28 q 606 90 532 28 q 681 261 681 153 q 604 431 681 368 q 396 494 528 494 l 146 494 l 146 28 l 399 28 z "},"C":{"ha":1068,"x_min":83,"x_max":985,"o":"m 539 988 q 822 908 710 988 q 985 689 933 829 l 957 689 q 806 888 913 813 q 539 963 699 963 q 322 905 419 963 q 169 740 225 847 q 113 488 113 632 q 169 238 113 344 q 323 73 225 131 q 539 15 421 15 q 806 90 699 15 q 957 288 913 164 l 985 288 q 822 69 933 147 q 539 -10 710 -10 q 304 53 408 -10 q 142 230 200 117 q 83 488 83 343 q 142 747 83 633 q 304 924 200 860 q 539 988 408 988 z "},"D":{"ha":975,"x_min":118,"x_max":892,"o":"m 892 489 q 760 128 892 256 q 375 0 628 0 l 118 0 l 118 978 l 375 978 q 760 850 628 978 q 892 489 892 722 m 375 25 q 740 147 617 25 q 864 489 864 269 q 740 831 864 708 q 375 953 617 953 l 146 953 l 146 25 l 375 25 z "},"E":{"ha":665,"x_min":118,"x_max":596,"o":"m 146 953 l 146 501 l 554 501 l 554 476 l 146 476 l 146 25 l 596 25 l 596 0 l 118 0 l 118 978 l 596 978 l 596 953 l 146 953 z "},"F":{"ha":651,"x_min":118,"x_max":596,"o":"m 596 978 l 596 953 l 146 953 l 146 501 l 554 501 l 554 476 l 146 476 l 146 0 l 118 0 l 118 978 l 596 978 z "},"G":{"ha":1100,"x_min":83,"x_max":1017,"o":"m 550 986 q 821 906 708 986 q 985 688 933 825 l 957 688 q 805 885 913 810 q 550 961 697 961 q 328 903 428 961 q 170 738 228 846 q 113 488 113 631 q 170 237 113 344 q 328 72 228 129 q 550 14 428 14 q 769 69 669 14 q 928 230 868 125 q 990 474 988 335 l 529 474 l 529 499 l 1017 499 l 1017 488 q 957 229 1017 343 q 791 52 897 115 q 550 -11 685 -11 q 309 52 415 -11 q 143 229 203 115 q 83 488 83 343 q 143 746 83 632 q 309 923 203 860 q 550 986 415 986 z "},"H":{"ha":901,"x_min":118,"x_max":783,"o":"m 783 978 l 783 0 l 756 0 l 756 490 l 146 490 l 146 0 l 118 0 l 118 978 l 146 978 l 146 515 l 756 515 l 756 978 l 783 978 z "},"I":{"ha":264,"x_min":118,"x_max":146,"o":"m 146 978 l 146 0 l 118 0 l 118 978 l 146 978 z "},"J":{"ha":592,"x_min":42,"x_max":481,"o":"m 481 978 l 481 199 q 424 49 481 108 q 268 -10 368 -10 q 101 57 160 -10 q 42 240 42 124 l 69 240 q 117 79 69 143 q 268 15 164 15 q 410 70 367 15 q 453 199 453 125 l 453 978 l 481 978 z "},"K":{"ha":686,"x_min":118,"x_max":658,"o":"m 163 489 l 658 0 l 621 0 l 146 467 l 146 0 l 118 0 l 118 978 l 146 978 l 146 508 l 621 978 l 658 978 l 163 489 z "},"L":{"ha":549,"x_min":118,"x_max":521,"o":"m 146 25 l 521 25 l 521 0 l 118 0 l 118 978 l 146 978 l 146 25 z "},"M":{"ha":1107,"x_min":118,"x_max":989,"o":"m 989 950 l 989 0 l 961 0 l 961 882 l 568 0 l 540 0 l 146 879 l 146 0 l 118 0 l 118 950 l 146 950 l 554 38 l 961 950 l 989 950 z "},"N":{"ha":899,"x_min":118,"x_max":781,"o":"m 781 0 l 753 0 l 146 926 l 146 0 l 118 0 l 118 976 l 146 976 l 753 51 l 753 976 l 781 976 l 781 0 z "},"O":{"ha":1100,"x_min":83,"x_max":1017,"o":"m 550 986 q 791 923 685 986 q 957 746 897 860 q 1017 488 1017 632 q 957 229 1017 343 q 791 52 897 115 q 550 -11 685 -11 q 309 52 415 -11 q 143 229 203 115 q 83 488 83 343 q 143 746 83 632 q 309 923 203 860 q 550 986 415 986 m 550 961 q 328 903 428 961 q 170 738 228 846 q 113 488 113 631 q 170 237 113 344 q 328 72 228 129 q 550 14 428 14 q 772 72 672 14 q 930 237 872 129 q 988 488 988 344 q 930 738 988 631 q 772 903 872 846 q 550 961 672 961 z "},"P":{"ha":733,"x_min":118,"x_max":678,"o":"m 146 440 l 146 0 l 118 0 l 118 978 l 365 978 q 602 907 526 978 q 678 708 678 836 q 599 507 678 574 q 365 440 519 440 l 146 440 m 365 469 q 583 532 515 469 q 650 708 650 594 q 583 889 650 828 q 365 950 517 950 l 146 950 l 146 469 l 365 469 z "},"Q":{"ha":1100,"x_min":83,"x_max":1032,"o":"m 983 -207 l 703 13 q 550 -11 629 -11 q 309 52 415 -11 q 143 229 203 115 q 83 488 83 343 q 143 746 83 632 q 309 923 203 860 q 550 986 415 986 q 791 923 685 986 q 957 746 897 860 q 1017 488 1017 632 q 941 201 1017 324 q 736 25 865 79 l 1032 -207 l 983 -207 m 113 488 q 170 237 113 344 q 328 72 228 129 q 550 14 428 14 q 772 72 672 14 q 930 237 872 129 q 988 488 988 344 q 930 738 988 631 q 772 903 872 846 q 550 961 672 961 q 328 903 428 961 q 170 738 228 846 q 113 488 113 631 z "},"R":{"ha":743,"x_min":118,"x_max":688,"o":"m 653 0 l 354 426 l 146 426 l 146 0 l 118 0 l 118 978 l 365 978 q 601 904 525 978 q 678 701 678 831 q 603 501 678 571 q 386 426 529 432 l 688 0 l 653 0 m 146 456 l 365 456 q 650 701 650 456 q 583 885 650 821 q 365 950 517 950 l 146 950 l 146 456 z "},"S":{"ha":744,"x_min":83,"x_max":661,"o":"m 661 235 q 634 118 661 174 q 547 26 607 63 q 396 -10 488 -10 q 241 25 308 -10 q 134 115 174 60 q 88 235 94 171 l 115 235 q 153 137 122 188 q 246 51 185 86 q 396 15 307 15 q 572 78 511 15 q 633 235 633 140 q 597 364 633 315 q 506 438 560 413 q 363 489 453 463 q 215 541 271 515 q 122 617 160 567 q 83 754 83 668 q 152 922 83 856 q 347 988 221 988 q 546 924 472 988 q 638 776 619 860 l 610 776 q 569 860 600 818 q 483 933 539 903 q 347 963 428 963 q 176 908 240 963 q 111 754 111 853 q 147 632 111 678 q 233 563 182 586 q 375 513 285 539 q 525 460 468 486 q 622 379 582 433 q 661 235 661 325 z "},"T":{"ha":653,"x_min":28,"x_max":625,"o":"m 625 978 l 625 953 l 340 953 l 340 0 l 313 0 l 313 953 l 28 953 l 28 978 l 625 978 z "},"U":{"ha":874,"x_min":111,"x_max":763,"o":"m 139 978 l 139 371 q 220 100 139 185 q 440 15 301 15 q 656 100 576 15 q 735 371 735 185 l 735 978 l 763 978 l 763 371 q 677 83 763 176 q 440 -10 592 -10 q 200 84 289 -10 q 111 371 111 178 l 111 978 l 139 978 z "},"V":{"ha":860,"x_min":42,"x_max":818,"o":"m 75 978 l 428 49 l 785 978 l 818 978 l 443 0 l 415 0 l 42 978 l 75 978 z "},"W":{"ha":1256,"x_min":49,"x_max":1207,"o":"m 1207 978 l 944 0 l 917 0 l 628 928 l 339 0 l 311 0 l 49 978 l 82 978 l 326 60 l 611 978 l 644 978 l 929 60 l 1174 978 l 1207 978 z "},"X":{"ha":694,"x_min":42,"x_max":653,"o":"m 363 489 l 653 0 l 621 0 l 343 469 l 74 0 l 42 0 l 328 496 l 42 978 l 74 978 l 347 515 l 621 978 l 653 978 l 363 489 z "},"Y":{"ha":719,"x_min":42,"x_max":678,"o":"m 678 978 l 375 410 l 375 0 l 347 0 l 347 410 l 42 978 l 75 978 l 360 440 l 644 978 l 678 978 z "},"Z":{"ha":676,"x_min":49,"x_max":628,"o":"m 79 26 l 628 26 l 628 0 l 49 0 l 49 26 l 585 950 l 67 950 l 67 978 l 614 978 l 614 950 l 79 26 z "},"[":{"ha":304,"x_min":118,"x_max":249,"o":"m 249 1299 l 249 1274 l 146 1274 l 146 -190 l 249 -190 l 249 -215 l 118 -215 l 118 1299 l 249 1299 z "},"\\":{"ha":658,"x_min":42,"x_max":563,"o":"m 533 -217 l 42 1299 l 74 1299 l 563 -217 l 533 -217 z "},"]":{"ha":304,"x_min":56,"x_max":186,"o":"m 56 -215 l 56 -190 l 158 -190 l 158 1274 l 56 1274 l 56 1299 l 186 1299 l 186 -215 l 56 -215 z "},"^":{"ha":767,"x_min":56,"x_max":711,"o":"m 83 242 l 56 242 l 375 949 l 392 949 l 711 242 l 683 242 l 385 907 l 83 242 z "},"_":{"ha":740,"x_min":56,"x_max":685,"o":"m 685 -42 l 685 -67 l 56 -67 l 56 -42 l 685 -42 z "},"`":{"ha":371,"x_min":56,"x_max":315,"o":"m 315 842 l 315 814 l 56 994 l 56 1028 l 315 842 z "},"a":{"ha":932,"x_min":83,"x_max":814,"o":"m 449 760 q 667 690 578 760 q 788 508 757 621 l 788 750 l 814 750 l 814 0 l 788 0 l 788 242 q 667 60 757 129 q 449 -10 578 -10 q 258 37 342 -10 q 129 170 175 83 q 83 375 83 257 q 129 580 83 493 q 258 713 175 667 q 449 760 342 760 m 449 735 q 270 692 346 735 q 153 567 194 649 q 111 375 111 486 q 153 183 111 264 q 270 58 194 101 q 449 15 346 15 q 623 60 546 15 q 744 187 700 106 q 788 375 788 268 q 744 563 788 482 q 623 690 700 644 q 449 735 546 735 z "},"b":{"ha":932,"x_min":118,"x_max":849,"o":"m 483 760 q 674 713 590 760 q 803 580 757 667 q 849 375 849 493 q 803 170 849 257 q 674 37 757 83 q 483 -10 590 -10 q 265 60 354 -10 q 144 242 175 129 l 144 0 l 118 0 l 118 1028 l 144 1028 l 144 508 q 265 690 175 621 q 483 760 354 760 m 483 735 q 309 690 386 735 q 188 563 232 644 q 144 375 144 482 q 188 187 144 268 q 309 60 232 106 q 483 15 386 15 q 662 58 586 15 q 779 183 738 101 q 821 375 821 264 q 779 567 821 486 q 662 692 738 649 q 483 735 586 735 z "},"c":{"ha":872,"x_min":83,"x_max":789,"o":"m 444 760 q 678 687 588 760 q 789 496 769 614 l 761 496 q 657 671 743 607 q 444 735 571 735 q 278 695 354 735 q 157 575 203 656 q 111 375 111 494 q 157 175 111 256 q 278 55 203 94 q 444 15 354 15 q 657 79 571 15 q 761 254 743 143 l 789 254 q 678 63 769 136 q 444 -10 588 -10 q 258 36 340 -10 q 130 169 176 82 q 83 375 83 257 q 130 581 83 493 q 258 714 176 668 q 444 760 340 760 z "},"d":{"ha":932,"x_min":83,"x_max":814,"o":"m 449 760 q 667 690 578 760 q 788 508 757 621 l 788 1028 l 814 1028 l 814 0 l 788 0 l 788 242 q 667 60 757 129 q 449 -10 578 -10 q 258 37 342 -10 q 129 170 175 83 q 83 375 83 257 q 129 580 83 493 q 258 713 175 667 q 449 760 342 760 m 449 735 q 270 692 346 735 q 153 567 194 649 q 111 375 111 486 q 153 183 111 264 q 270 58 194 101 q 449 15 346 15 q 623 60 546 15 q 744 187 700 106 q 788 375 788 268 q 744 563 788 482 q 623 690 700 644 q 449 735 546 735 z "},"e":{"ha":872,"x_min":83,"x_max":789,"o":"m 444 15 q 657 79 571 15 q 761 254 743 143 l 789 254 q 678 63 769 136 q 444 -10 588 -10 q 258 36 340 -10 q 130 169 176 82 q 83 375 83 257 q 130 581 83 493 q 258 714 176 668 q 444 760 340 760 q 632 713 554 760 q 749 593 710 667 q 789 438 789 519 q 783 363 789 396 l 111 363 q 159 169 113 247 q 281 53 206 92 q 444 15 356 15 m 444 735 q 281 697 356 735 q 159 581 206 658 q 111 388 113 503 l 764 388 q 727 581 771 503 q 608 697 683 658 q 444 735 532 735 z "},"f":{"ha":442,"x_min":28,"x_max":393,"o":"m 393 1000 q 225 953 272 1000 q 178 803 178 907 l 178 750 l 393 750 l 393 721 l 178 721 l 178 0 l 150 0 l 150 721 l 28 721 l 28 750 l 150 750 l 150 803 q 206 972 150 917 q 393 1028 261 1028 l 393 1000 z "},"g":{"ha":932,"x_min":83,"x_max":814,"o":"m 449 760 q 667 690 578 760 q 788 508 757 621 l 788 750 l 814 750 l 814 -28 q 768 -209 814 -132 q 647 -326 722 -286 q 482 -367 571 -367 q 256 -301 346 -367 q 133 -122 167 -235 l 161 -122 q 274 -283 193 -224 q 482 -342 356 -342 q 638 -303 568 -342 q 747 -193 707 -264 q 788 -28 788 -122 l 788 242 q 667 60 757 129 q 449 -10 578 -10 q 258 37 342 -10 q 129 170 175 83 q 83 375 83 257 q 129 580 83 493 q 258 713 175 667 q 449 760 342 760 m 449 735 q 270 692 346 735 q 153 567 194 649 q 111 375 111 486 q 153 183 111 264 q 270 58 194 101 q 449 15 346 15 q 623 60 546 15 q 744 187 700 106 q 788 375 788 268 q 744 563 788 482 q 623 690 700 644 q 449 735 546 735 z "},"h":{"ha":853,"x_min":118,"x_max":742,"o":"m 440 767 q 657 685 572 767 q 742 438 742 603 l 742 0 l 715 0 l 715 440 q 642 665 715 588 q 440 742 568 742 q 226 655 307 742 q 146 399 146 568 l 146 0 l 118 0 l 118 1028 l 146 1028 l 146 539 q 253 710 172 653 q 440 767 335 767 z "},"i":{"ha":264,"x_min":96,"x_max":168,"o":"m 96 979 q 106 1006 96 996 q 132 1017 117 1017 q 158 1006 147 1017 q 168 979 168 996 q 158 952 168 963 q 132 942 147 942 q 106 952 117 942 q 96 979 96 963 m 146 750 l 146 0 l 118 0 l 118 750 l 146 750 z "},"j":{"ha":278,"x_min":-35,"x_max":182,"o":"m 146 942 q 120 952 131 942 q 110 979 110 963 q 120 1006 110 996 q 146 1017 131 1017 q 172 1006 161 1017 q 182 979 182 996 q 172 952 182 963 q 146 942 161 942 m -35 -325 l 15 -325 q 104 -298 76 -325 q 132 -203 132 -271 l 132 750 l 160 750 l 160 -211 q 126 -316 160 -279 q 15 -353 93 -353 l -35 -353 l -35 -325 z "},"k":{"ha":549,"x_min":118,"x_max":535,"o":"m 492 0 l 146 351 l 146 0 l 118 0 l 118 1028 l 146 1028 l 146 407 l 483 750 l 525 750 l 158 381 l 535 0 l 492 0 z "},"l":{"ha":264,"x_min":118,"x_max":146,"o":"m 146 1028 l 146 0 l 118 0 l 118 1028 l 146 1028 z "},"m":{"ha":1393,"x_min":118,"x_max":1282,"o":"m 997 767 q 1202 685 1122 767 q 1282 438 1282 603 l 1282 0 l 1256 0 l 1256 440 q 1186 665 1256 588 q 997 742 1117 742 q 791 655 868 742 q 714 399 714 568 l 714 0 l 688 0 l 688 440 q 618 665 688 588 q 429 742 549 742 q 223 655 300 742 q 146 399 146 568 l 146 0 l 118 0 l 118 750 l 146 750 l 146 540 q 250 710 172 653 q 429 767 328 767 q 612 706 536 767 q 707 522 688 644 q 810 705 729 643 q 997 767 890 767 z "},"n":{"ha":853,"x_min":118,"x_max":742,"o":"m 440 767 q 657 685 572 767 q 742 438 742 603 l 742 0 l 715 0 l 715 440 q 642 665 715 588 q 440 742 568 742 q 226 655 307 742 q 146 399 146 568 l 146 0 l 118 0 l 118 750 l 146 750 l 146 539 q 253 710 172 653 q 440 767 335 767 z "},"o":{"ha":899,"x_min":83,"x_max":815,"o":"m 450 760 q 638 713 554 760 q 768 580 721 667 q 815 375 815 493 q 768 170 815 257 q 638 37 721 83 q 450 -10 554 -10 q 263 37 346 -10 q 131 170 179 83 q 83 375 83 257 q 131 580 83 493 q 263 713 179 667 q 450 760 346 760 m 450 735 q 283 695 360 735 q 158 574 206 656 q 111 375 111 493 q 158 176 111 257 q 283 55 206 94 q 450 15 360 15 q 617 55 540 15 q 740 175 693 94 q 788 375 788 256 q 740 575 788 494 q 617 695 693 656 q 450 735 540 735 z "},"p":{"ha":932,"x_min":118,"x_max":849,"o":"m 483 760 q 674 713 590 760 q 803 580 757 667 q 849 375 849 493 q 803 170 849 257 q 674 37 757 83 q 483 -10 590 -10 q 265 60 354 -10 q 144 242 175 129 l 144 -353 l 118 -353 l 118 750 l 144 750 l 144 508 q 265 690 175 621 q 483 760 354 760 m 483 735 q 309 690 386 735 q 188 563 232 644 q 144 375 144 482 q 188 187 144 268 q 309 60 232 106 q 483 15 386 15 q 662 58 586 15 q 779 183 738 101 q 821 375 821 264 q 779 567 821 486 q 662 692 738 649 q 483 735 586 735 z "},"q":{"ha":932,"x_min":83,"x_max":814,"o":"m 449 760 q 667 690 578 760 q 788 508 757 621 l 788 750 l 814 750 l 814 -353 l 788 -353 l 788 242 q 667 60 757 129 q 449 -10 578 -10 q 258 37 342 -10 q 129 170 175 83 q 83 375 83 257 q 129 580 83 493 q 258 713 175 667 q 449 760 342 760 m 449 735 q 270 692 346 735 q 153 567 194 649 q 111 375 111 486 q 153 183 111 264 q 270 58 194 101 q 449 15 346 15 q 623 60 546 15 q 744 187 700 106 q 788 375 788 268 q 744 563 788 482 q 623 690 700 644 q 449 735 546 735 z "},"r":{"ha":469,"x_min":118,"x_max":442,"o":"m 146 568 q 442 767 190 767 l 442 736 l 429 736 q 228 667 311 736 q 146 446 146 599 l 146 0 l 118 0 l 118 750 l 146 750 l 146 568 z "},"s":{"ha":671,"x_min":83,"x_max":588,"o":"m 319 760 q 500 699 431 760 q 582 531 569 638 l 554 531 q 485 676 544 617 q 319 735 425 735 q 173 688 226 735 q 119 565 119 642 q 149 476 119 508 q 222 427 179 443 q 340 393 265 411 q 471 355 422 374 q 553 295 519 336 q 588 185 588 254 q 527 44 588 99 q 369 -10 467 -10 q 173 52 250 -10 q 83 219 96 114 l 111 219 q 187 74 119 132 q 371 15 254 15 q 510 63 460 15 q 560 185 560 110 q 529 280 560 244 q 453 333 499 315 q 332 367 407 350 q 205 403 253 385 q 124 460 157 422 q 92 565 92 499 q 154 707 92 654 q 319 760 217 760 z "},"t":{"ha":469,"x_min":28,"x_max":414,"o":"m 178 722 l 178 197 q 193 93 178 129 q 242 42 208 57 q 335 28 275 28 l 414 28 l 414 0 l 332 0 q 192 44 235 0 q 150 197 150 89 l 150 722 l 28 722 l 28 750 l 150 750 l 150 942 l 178 942 l 178 750 l 414 750 l 414 722 l 178 722 z "},"u":{"ha":832,"x_min":90,"x_max":714,"o":"m 714 750 l 714 0 l 686 0 l 686 211 q 578 40 660 97 q 392 -17 497 -17 q 175 65 260 -17 q 90 313 90 147 l 90 750 l 117 750 l 117 310 q 190 85 117 163 q 392 8 264 8 q 606 95 525 8 q 686 351 686 182 l 686 750 l 714 750 z "},"v":{"ha":715,"x_min":28,"x_max":688,"o":"m 358 49 l 657 750 l 688 750 l 368 0 l 347 0 l 28 750 l 58 750 l 358 49 z "},"w":{"ha":1115,"x_min":28,"x_max":1088,"o":"m 1088 750 l 851 0 l 831 0 l 557 699 l 285 0 l 264 0 l 28 750 l 58 750 l 276 57 l 546 750 l 569 750 l 839 57 l 1057 750 l 1088 750 z "},"x":{"ha":578,"x_min":28,"x_max":550,"o":"m 517 0 l 288 357 l 58 0 l 28 0 l 271 382 l 33 750 l 67 750 l 289 406 l 513 750 l 543 750 l 307 378 l 550 0 l 517 0 z "},"y":{"ha":699,"x_min":28,"x_max":671,"o":"m 58 750 l 361 40 l 640 750 l 671 750 l 243 -353 l 208 -353 l 346 -1 l 28 750 l 58 750 z "},"z":{"ha":565,"x_min":42,"x_max":524,"o":"m 71 25 l 524 25 l 524 0 l 42 0 l 42 25 l 479 725 l 56 725 l 56 750 l 510 750 l 510 725 l 71 25 z "},"{":{"ha":407,"x_min":56,"x_max":365,"o":"m 72 515 q 199 434 157 497 q 240 289 240 371 q 235 230 240 260 q 224 172 231 200 q 208 88 214 124 q 203 1 203 51 q 253 -178 203 -100 q 365 -296 303 -256 l 365 -301 l 338 -301 q 270 -244 307 -283 q 204 -139 233 -204 q 175 10 175 -74 q 180 85 175 51 q 196 172 185 119 q 208 233 203 201 q 213 289 213 264 q 183 414 213 358 q 56 500 154 469 l 56 533 q 183 619 154 564 q 213 744 213 675 q 208 801 213 771 q 196 861 203 832 q 180 948 185 914 q 175 1024 175 982 q 204 1172 175 1107 q 270 1277 233 1238 q 338 1335 307 1317 l 365 1335 l 365 1329 q 253 1211 303 1289 q 203 1032 203 1133 q 208 946 203 982 q 224 861 214 910 q 235 803 231 833 q 240 744 240 774 q 199 599 240 663 q 72 518 157 536 l 72 515 z "},"|":{"ha":264,"x_min":118,"x_max":146,"o":"m 146 -119 l 118 -119 l 118 1081 l 146 1081 l 146 -119 z "},"}":{"ha":421,"x_min":56,"x_max":365,"o":"m 349 518 q 222 599 264 536 q 181 744 181 663 q 185 803 181 774 q 197 861 190 833 q 213 946 207 910 q 218 1032 218 982 q 168 1211 218 1133 q 56 1329 118 1289 l 56 1335 l 83 1335 q 151 1277 114 1317 q 217 1172 188 1238 q 246 1024 246 1107 q 241 948 246 982 q 225 861 236 914 q 213 801 218 832 q 208 744 208 771 q 238 619 208 675 q 365 533 267 564 l 365 500 q 238 414 267 469 q 208 289 208 358 q 213 233 208 264 q 225 172 218 201 q 241 85 236 119 q 246 10 246 51 q 217 -139 246 -74 q 151 -244 188 -204 q 83 -301 114 -283 l 56 -301 l 56 -296 q 168 -178 118 -256 q 218 1 218 -100 q 213 88 218 51 q 197 172 207 124 q 185 230 190 200 q 181 289 181 260 q 222 434 181 371 q 349 515 264 497 l 349 518 z "},"~":{"ha":572,"x_min":56,"x_max":517,"o":"m 179 510 q 235 498 210 510 q 296 461 260 486 q 350 428 329 439 q 397 417 371 417 q 456 444 432 417 q 489 510 481 471 l 517 510 q 474 420 506 453 q 393 388 443 388 q 337 400 361 388 q 278 436 313 413 q 223 469 244 458 q 175 481 201 481 q 116 453 140 481 q 83 388 92 426 l 56 388 q 98 477 67 444 q 179 510 129 510 z "}," ":{"ha":403,"x_min":0,"x_max":0,"o":""},"¡":{"ha":311,"x_min":121,"x_max":190,"o":"m 169 -211 l 161 535 l 144 535 l 136 -211 l 169 -211 m 190 699 l 190 767 l 121 767 l 121 699 l 190 699 z "},"¢":{"ha":817,"x_min":83,"x_max":733,"o":"m 417 57 q 609 121 531 57 q 706 296 688 185 l 733 296 q 632 106 714 178 q 419 32 550 33 l 419 -129 l 392 -129 l 392 33 q 232 81 301 39 q 123 199 163 124 q 83 375 83 275 q 123 551 83 475 q 232 669 163 626 q 392 717 301 711 l 392 865 l 419 865 l 419 718 q 632 644 550 717 q 733 454 714 572 l 706 454 q 609 629 688 565 q 417 693 531 693 q 265 658 335 693 q 153 552 196 624 q 111 375 111 481 q 153 198 111 269 q 265 92 196 126 q 417 57 335 57 z "},"£":{"ha":750,"x_min":69,"x_max":708,"o":"m 294 288 q 267 153 294 213 q 178 28 239 93 l 700 28 l 700 0 l 154 0 l 149 26 q 215 114 193 82 q 253 188 238 146 q 269 281 269 229 q 259 365 269 324 q 231 456 249 406 l 69 456 l 69 479 l 222 479 q 176 611 192 558 q 161 728 161 664 q 193 860 161 801 q 285 953 225 919 q 422 988 344 988 q 619 913 544 988 q 708 724 694 838 l 681 724 q 599 895 669 828 q 422 963 529 963 q 257 903 325 963 q 189 728 189 843 q 201 624 189 674 q 239 508 214 575 q 250 479 247 489 l 518 479 l 518 456 l 260 456 q 294 288 294 358 z "},"¤":{"ha":696,"x_min":100,"x_max":593,"o":"m 557 524 q 507 365 557 431 l 593 282 l 574 264 l 490 347 q 425 301 463 317 q 347 285 388 285 q 201 346 260 285 l 119 264 l 100 282 l 186 365 q 139 524 139 428 q 188 683 139 617 l 100 768 l 119 786 l 204 701 q 347 763 263 763 q 489 701 428 763 l 574 786 l 593 768 l 506 682 q 557 524 557 617 m 347 310 q 438 335 396 310 q 504 410 479 361 q 529 524 529 458 q 504 636 529 588 q 438 711 479 685 q 347 738 396 738 q 217 679 268 738 q 167 524 167 621 q 217 367 167 425 q 347 310 268 310 z "},"¥":{"ha":782,"x_min":76,"x_max":713,"o":"m 447 481 l 688 481 l 688 456 l 435 456 l 410 410 l 410 318 l 688 318 l 688 290 l 410 290 l 410 0 l 382 0 l 382 290 l 104 290 l 104 318 l 382 318 l 382 410 l 357 456 l 104 456 l 104 481 l 344 481 l 76 978 l 110 978 l 394 440 l 679 978 l 713 978 l 447 481 z "},"¦":{"ha":264,"x_min":118,"x_max":146,"o":"m 118 1081 l 146 1081 l 146 594 l 118 594 l 118 1081 m 146 -119 l 118 -119 l 118 368 l 146 368 l 146 -119 z "},"§":{"ha":786,"x_min":83,"x_max":703,"o":"m 360 1038 q 560 977 482 1038 q 654 807 639 917 l 626 807 q 593 903 622 856 q 505 981 564 950 q 360 1013 446 1013 q 202 974 261 1013 q 143 861 143 936 q 198 749 143 792 q 381 675 253 706 q 551 623 483 651 q 661 545 619 594 q 703 417 703 496 q 670 307 703 358 q 574 224 638 256 q 424 192 510 192 q 381 193 396 192 l 381 188 q 590 117 508 164 q 671 -24 671 71 q 608 -153 671 -103 q 433 -204 544 -204 q 228 -144 308 -204 q 132 26 147 -83 l 160 26 q 238 -119 172 -60 q 433 -179 303 -179 q 586 -140 529 -179 q 643 -24 643 -101 q 589 86 643 44 q 406 158 535 128 q 235 210 303 182 q 125 288 167 239 q 83 417 83 338 q 116 526 83 475 q 213 610 149 578 q 363 642 276 642 q 406 640 390 642 l 406 646 q 198 718 281 671 q 115 861 115 765 q 181 988 115 939 q 360 1038 246 1038 m 389 621 q 238 593 301 621 q 143 519 175 565 q 111 417 111 472 q 187 269 111 325 q 397 213 263 213 q 548 240 485 213 q 643 315 611 268 q 675 417 675 361 q 599 565 675 508 q 389 621 524 621 z "},"¨":{"ha":443,"x_min":88,"x_max":356,"o":"m 88 913 q 99 942 88 929 q 129 954 111 954 q 158 942 146 954 q 171 913 171 929 q 158 883 171 896 q 129 871 146 871 q 99 883 111 871 q 88 913 88 896 m 274 913 q 285 942 274 929 q 315 954 297 954 q 344 942 332 954 q 356 913 356 929 q 344 883 356 896 q 315 871 332 871 q 285 883 297 871 q 274 913 274 896 z "},"©":{"ha":1115,"x_min":83,"x_max":1032,"o":"m 558 975 q 311 913 419 975 q 143 741 203 851 q 83 489 83 631 q 143 237 83 347 q 311 65 203 126 q 558 3 419 3 q 805 65 697 3 q 972 237 913 126 q 1032 489 1032 347 q 972 741 1032 631 q 805 913 913 851 q 558 975 697 975 m 558 950 q 793 890 692 950 q 949 726 894 831 q 1004 489 1004 621 q 949 252 1004 357 q 793 88 894 147 q 558 28 692 28 q 322 88 424 28 q 166 252 221 147 q 111 489 111 357 q 166 726 111 621 q 322 890 221 831 q 558 950 424 950 m 563 819 q 739 763 661 819 q 844 604 817 707 l 815 604 q 718 743 788 694 q 563 792 649 792 q 429 757 490 792 q 331 653 368 722 q 293 488 293 585 q 331 324 293 392 q 429 221 368 256 q 563 186 490 186 q 718 235 649 186 q 815 374 788 283 l 844 374 q 739 215 817 271 q 563 158 661 158 q 414 197 482 158 q 306 310 346 235 q 265 490 265 385 q 306 669 265 594 q 414 781 346 743 q 563 819 482 819 z "},"ª":{"ha":601,"x_min":56,"x_max":515,"o":"m 281 985 q 415 944 361 985 q 488 833 468 904 l 488 976 l 515 976 l 515 492 l 488 492 l 488 633 q 415 522 468 563 q 281 482 361 482 q 117 551 179 482 q 56 733 56 621 q 117 915 56 846 q 281 985 179 985 m 281 960 q 139 898 194 960 q 83 733 83 836 q 139 569 83 631 q 281 507 194 507 q 430 569 372 507 q 488 733 488 631 q 430 898 488 836 q 281 960 372 960 z "},"«":{"ha":519,"x_min":63,"x_max":450,"o":"m 211 167 l 63 410 l 211 653 l 249 653 l 97 410 l 249 167 l 211 167 m 413 167 l 264 410 l 413 653 l 450 653 l 299 410 l 450 167 l 413 167 z "},"¬":{"ha":983,"x_min":82,"x_max":921,"o":"m 921 589 l 921 354 l 896 354 l 896 561 l 82 561 l 82 589 l 921 589 z "},"­":{"ha":617,"x_min":-49,"x_max":457,"o":"m 457 540 l 457 515 l -49 515 l -49 540 l 457 540 z "},"®":{"ha":1093,"x_min":83,"x_max":1010,"o":"m 547 976 q 788 917 683 976 q 951 747 893 857 q 1010 490 1010 636 q 951 238 1010 349 q 788 64 893 126 q 547 1 683 1 q 306 64 411 1 q 142 238 200 126 q 83 490 83 349 q 142 747 83 636 q 306 917 200 857 q 547 976 411 976 m 547 39 q 777 95 679 39 q 928 254 875 151 q 982 490 982 357 q 928 733 982 628 q 777 894 875 838 q 547 951 679 951 q 317 894 415 951 q 165 733 218 838 q 111 490 111 628 q 165 253 111 356 q 317 95 218 151 q 547 39 415 39 m 781 660 q 727 531 781 575 q 575 486 674 488 l 778 194 l 744 194 l 544 486 l 401 486 l 401 194 l 374 194 l 374 831 l 569 831 q 728 785 675 831 q 781 660 781 740 m 569 513 q 753 660 753 513 q 710 769 753 732 q 569 806 667 806 l 401 806 l 401 513 l 569 513 z "},"¯":{"ha":540,"x_min":56,"x_max":485,"o":"m 485 940 l 485 915 l 56 915 l 56 940 l 485 940 z "},"°":{"ha":494,"x_min":42,"x_max":453,"o":"m 247 960 q 397 894 340 960 q 453 721 453 828 q 397 548 453 614 q 247 482 340 482 q 98 548 154 482 q 42 721 42 614 q 98 894 42 828 q 247 960 154 960 m 247 935 q 117 878 165 935 q 69 721 69 821 q 117 564 69 621 q 247 507 165 507 q 377 564 329 507 q 425 721 425 621 q 377 878 425 821 q 247 935 329 935 z "},"±":{"ha":818,"x_min":56,"x_max":763,"o":"m 763 568 l 763 543 l 422 543 l 422 229 l 394 229 l 394 543 l 56 543 l 56 568 l 394 568 l 394 882 l 422 882 l 422 568 l 763 568 m 56 151 l 763 151 l 763 126 l 56 126 l 56 151 z "},"²":{"ha":418,"x_min":56,"x_max":363,"o":"m 363 514 l 363 489 l 56 489 l 56 503 l 214 660 q 292 751 265 711 q 318 847 318 792 q 288 930 318 903 q 210 957 257 957 q 122 924 154 957 q 83 831 90 892 l 56 831 q 99 939 60 896 q 210 982 138 982 q 308 946 271 982 q 346 847 346 910 q 315 740 346 788 q 222 631 285 692 l 100 514 l 363 514 z "},"³":{"ha":419,"x_min":56,"x_max":364,"o":"m 215 982 q 321 945 279 982 q 363 849 363 908 q 339 775 363 806 q 269 732 315 744 l 269 729 q 338 686 313 717 q 364 610 364 656 q 324 520 364 558 q 211 482 285 482 q 56 617 72 482 l 83 617 q 124 532 90 557 q 211 507 157 507 q 303 535 271 507 q 336 610 336 563 q 300 688 336 660 q 207 717 264 717 l 122 717 l 122 742 l 211 742 q 301 770 267 742 q 335 849 335 799 q 302 925 335 896 q 215 954 269 954 q 127 929 160 954 q 85 860 94 904 l 57 860 q 107 948 67 914 q 215 982 147 982 z "},"´":{"ha":371,"x_min":56,"x_max":315,"o":"m 315 994 l 56 814 l 56 842 l 315 1028 l 315 994 z "},"µ":{"ha":860,"x_min":118,"x_max":742,"o":"m 742 750 l 742 0 l 714 0 l 714 208 q 611 40 688 96 q 436 -17 535 -17 q 256 35 335 -17 q 144 206 176 88 l 144 -353 l 118 -353 l 118 750 l 144 750 l 144 365 q 224 99 144 189 q 436 8 303 8 q 638 95 563 8 q 714 351 714 182 l 714 750 l 742 750 z "},"¶":{"ha":679,"x_min":28,"x_max":561,"o":"m 561 0 l 533 0 l 533 925 l 383 925 l 383 0 l 356 0 l 356 413 l 354 413 q 111 485 194 413 q 28 681 28 557 q 112 878 28 806 q 354 950 196 950 l 561 950 l 561 0 z "},"·":{"ha":157,"x_min":43,"x_max":113,"o":"m 113 533 l 113 465 l 43 465 l 43 533 l 113 533 z "},"¸":{"ha":346,"x_min":56,"x_max":290,"o":"m 115 -124 q 245 -147 200 -118 q 290 -233 290 -176 q 252 -320 290 -287 q 143 -353 214 -353 l 56 -353 l 56 -325 l 139 -325 q 263 -233 263 -325 q 233 -172 263 -196 q 139 -149 204 -149 l 88 -149 l 88 10 l 115 10 l 115 -124 z "},"¹":{"ha":214,"x_min":56,"x_max":158,"o":"m 56 953 l 56 978 l 158 978 l 158 489 l 131 489 l 131 953 l 56 953 z "},"º":{"ha":572,"x_min":56,"x_max":519,"o":"m 288 985 q 407 953 354 985 q 490 863 460 921 q 519 731 519 806 q 490 598 519 656 q 407 508 460 540 q 288 476 354 476 q 168 508 221 476 q 85 598 115 540 q 56 731 56 656 q 85 863 56 806 q 168 953 115 921 q 288 985 221 985 m 288 957 q 141 897 199 957 q 83 731 83 836 q 141 565 83 625 q 288 504 199 504 q 434 565 376 504 q 492 731 492 625 q 434 897 492 836 q 288 957 376 957 z "},"»":{"ha":519,"x_min":69,"x_max":457,"o":"m 222 410 l 69 653 l 108 653 l 256 410 l 108 167 l 69 167 l 222 410 m 424 410 l 271 653 l 310 653 l 457 410 l 310 167 l 271 167 l 424 410 z "},"¼":{"ha":711,"x_min":79,"x_max":656,"o":"m 590 978 l 107 0 l 79 0 l 563 978 l 590 978 m 83 953 l 83 978 l 186 978 l 186 489 l 158 489 l 158 953 l 83 953 m 656 106 l 579 106 l 579 0 l 551 0 l 551 106 l 313 106 l 313 131 l 558 493 l 579 493 l 579 133 l 656 133 l 656 106 m 551 429 l 346 133 l 551 133 l 551 429 z "},"½":{"ha":824,"x_min":56,"x_max":768,"o":"m 567 978 l 83 0 l 56 0 l 539 978 l 567 978 m 163 953 l 88 953 l 88 978 l 190 978 l 190 489 l 163 489 l 163 953 m 768 24 l 768 -1 l 461 -1 l 461 13 l 619 169 q 697 261 671 221 q 724 357 724 301 q 693 440 724 413 q 615 467 663 467 q 528 434 560 467 q 489 340 496 401 l 461 340 q 504 449 465 406 q 615 492 543 492 q 714 456 676 492 q 751 357 751 419 q 721 249 751 297 q 628 140 690 201 l 506 24 l 768 24 z "},"¾":{"ha":739,"x_min":79,"x_max":683,"o":"m 239 982 q 344 945 303 982 q 386 849 386 908 q 363 775 386 806 q 293 732 339 744 l 293 729 q 362 686 336 717 q 388 610 388 656 q 348 520 388 558 q 235 482 308 482 q 79 617 96 482 l 107 617 q 147 532 114 557 q 235 507 181 507 q 327 535 294 507 q 360 610 360 563 q 324 688 360 660 q 231 717 288 717 l 146 717 l 146 742 l 235 742 q 324 770 290 742 q 358 849 358 799 q 326 925 358 896 q 239 954 293 954 q 151 929 183 954 q 108 860 118 904 l 81 860 q 131 948 90 914 q 239 982 171 982 m 660 978 l 176 0 l 149 0 l 632 978 l 660 978 m 683 106 l 607 106 l 607 0 l 579 0 l 579 106 l 340 106 l 340 131 l 586 493 l 607 493 l 607 133 l 683 133 l 683 106 m 579 429 l 374 133 l 579 133 l 579 429 z "},"¿":{"ha":642,"x_min":42,"x_max":614,"o":"m 319 -242 q 117 -168 193 -242 q 42 28 42 -94 q 137 260 42 189 q 404 333 232 332 l 404 535 l 432 535 l 432 308 l 410 308 q 164 250 258 308 q 69 28 69 192 q 137 -151 69 -86 q 319 -217 204 -217 q 513 -151 439 -217 q 586 21 586 -86 l 614 21 q 574 -120 614 -61 q 467 -210 535 -179 q 319 -242 400 -242 m 382 678 l 382 746 l 451 746 l 451 678 l 382 678 z "},"À":{"ha":835,"x_min":42,"x_max":793,"o":"m 660 269 l 176 269 l 74 0 l 42 0 l 404 949 l 432 949 l 793 0 l 761 0 l 660 269 m 650 294 l 418 904 l 186 294 l 650 294 m 408 1069 l 408 1042 l 149 1222 l 149 1256 l 408 1069 z "},"Á":{"ha":835,"x_min":42,"x_max":793,"o":"m 660 269 l 176 269 l 74 0 l 42 0 l 404 949 l 432 949 l 793 0 l 761 0 l 660 269 m 650 294 l 418 904 l 186 294 l 650 294 m 672 1222 l 413 1042 l 413 1069 l 672 1256 l 672 1222 z "},"Â":{"ha":835,"x_min":42,"x_max":793,"o":"m 660 269 l 176 269 l 74 0 l 42 0 l 404 949 l 432 949 l 793 0 l 761 0 l 660 269 m 650 294 l 418 904 l 186 294 l 650 294 m 418 1201 l 246 1089 l 246 1117 l 418 1229 l 589 1117 l 589 1089 l 418 1201 z "},"Ã":{"ha":835,"x_min":42,"x_max":793,"o":"m 660 269 l 176 269 l 74 0 l 42 0 l 404 949 l 432 949 l 793 0 l 761 0 l 660 269 m 650 294 l 418 904 l 186 294 l 650 294 m 340 1158 q 381 1149 364 1158 q 418 1122 397 1140 q 453 1097 438 1106 q 490 1089 469 1089 q 531 1106 514 1089 q 551 1154 547 1124 l 576 1154 q 549 1090 574 1117 q 490 1064 525 1064 q 447 1074 465 1064 q 407 1101 429 1083 q 372 1126 386 1118 q 340 1133 358 1133 q 282 1067 290 1133 l 257 1067 q 284 1134 263 1110 q 340 1158 306 1158 z "},"Ä":{"ha":835,"x_min":42,"x_max":793,"o":"m 660 269 l 176 269 l 74 0 l 42 0 l 404 949 l 432 949 l 793 0 l 761 0 l 660 269 m 650 294 l 418 904 l 186 294 l 650 294 m 283 1140 q 295 1169 283 1157 q 325 1182 307 1182 q 354 1169 342 1182 q 367 1140 367 1157 q 354 1111 367 1124 q 325 1099 342 1099 q 295 1111 307 1099 q 283 1140 283 1124 m 469 1140 q 481 1169 469 1157 q 511 1182 493 1182 q 540 1169 528 1182 q 551 1140 551 1157 q 540 1111 551 1124 q 511 1099 528 1099 q 481 1111 493 1099 q 469 1140 469 1124 z "},"Å":{"ha":835,"x_min":42,"x_max":793,"o":"m 660 269 l 176 269 l 74 0 l 42 0 l 404 949 l 432 949 l 793 0 l 761 0 l 660 269 m 650 294 l 418 904 l 186 294 l 650 294 m 417 1332 q 506 1298 469 1332 q 542 1207 542 1264 q 506 1116 542 1150 q 417 1082 469 1082 q 328 1116 364 1082 q 292 1207 292 1150 q 328 1298 292 1264 q 417 1332 364 1332 m 417 1307 q 347 1280 374 1307 q 319 1207 319 1253 q 347 1134 319 1161 q 417 1107 374 1107 q 487 1134 460 1107 q 514 1207 514 1161 q 487 1280 514 1253 q 417 1307 460 1307 z "},"Æ":{"ha":1163,"x_min":14,"x_max":1093,"o":"m 643 953 l 643 501 l 1051 501 l 1051 476 l 643 476 l 643 25 l 1093 25 l 1093 0 l 615 0 l 615 269 l 211 269 l 46 0 l 14 0 l 615 978 l 1093 978 l 1093 953 l 643 953 m 615 294 l 615 926 l 226 294 l 615 294 z "},"Ç":{"ha":1068,"x_min":83,"x_max":985,"o":"m 539 988 q 822 908 710 988 q 985 689 933 829 l 957 689 q 806 888 913 813 q 539 963 699 963 q 322 905 419 963 q 169 740 225 847 q 113 488 113 632 q 169 238 113 344 q 323 73 225 131 q 539 15 421 15 q 806 90 699 15 q 957 288 913 164 l 985 288 q 822 69 933 147 q 539 -10 710 -10 q 304 53 408 -10 q 142 230 200 117 q 83 488 83 343 q 142 747 83 633 q 304 924 200 860 q 539 988 408 988 m 546 -124 q 676 -147 631 -118 q 721 -233 721 -176 q 683 -320 721 -287 q 574 -353 644 -353 l 486 -353 l 486 -325 l 569 -325 q 693 -233 693 -325 q 664 -172 693 -196 q 569 -149 635 -149 l 518 -149 l 518 10 l 546 10 l 546 -124 z "},"È":{"ha":665,"x_min":89,"x_max":596,"o":"m 146 953 l 146 501 l 554 501 l 554 476 l 146 476 l 146 25 l 596 25 l 596 0 l 118 0 l 118 978 l 596 978 l 596 953 l 146 953 m 349 1069 l 349 1042 l 89 1222 l 89 1256 l 349 1069 z "},"É":{"ha":665,"x_min":118,"x_max":613,"o":"m 146 953 l 146 501 l 554 501 l 554 476 l 146 476 l 146 25 l 596 25 l 596 0 l 118 0 l 118 978 l 596 978 l 596 953 l 146 953 m 613 1222 l 353 1042 l 353 1069 l 613 1256 l 613 1222 z "},"Ê":{"ha":665,"x_min":118,"x_max":596,"o":"m 146 953 l 146 501 l 554 501 l 554 476 l 146 476 l 146 25 l 596 25 l 596 0 l 118 0 l 118 978 l 596 978 l 596 953 l 146 953 m 358 1201 l 186 1089 l 186 1117 l 358 1229 l 529 1117 l 529 1089 l 358 1201 z "},"Ë":{"ha":665,"x_min":118,"x_max":596,"o":"m 146 953 l 146 501 l 554 501 l 554 476 l 146 476 l 146 25 l 596 25 l 596 0 l 118 0 l 118 978 l 596 978 l 596 953 l 146 953 m 224 1140 q 235 1169 224 1157 q 265 1182 247 1182 q 294 1169 282 1182 q 307 1140 307 1157 q 294 1111 307 1124 q 265 1099 282 1099 q 235 1111 247 1099 q 224 1140 224 1124 m 410 1140 q 422 1169 410 1157 q 451 1182 433 1182 q 480 1169 468 1182 q 492 1140 492 1157 q 480 1111 492 1124 q 451 1099 468 1099 q 422 1111 433 1099 q 410 1140 410 1124 z "},"Ì":{"ha":264,"x_min":-136,"x_max":146,"o":"m 146 978 l 146 0 l 118 0 l 118 978 l 146 978 m 124 1069 l 124 1042 l -136 1222 l -136 1256 l 124 1069 z "},"Í":{"ha":264,"x_min":118,"x_max":388,"o":"m 146 978 l 146 0 l 118 0 l 118 978 l 146 978 m 388 1222 l 128 1042 l 128 1069 l 388 1256 l 388 1222 z "},"Î":{"ha":264,"x_min":-39,"x_max":304,"o":"m 146 978 l 146 0 l 118 0 l 118 978 l 146 978 m 133 1201 l -39 1089 l -39 1117 l 133 1229 l 304 1117 l 304 1089 l 133 1201 z "},"Ï":{"ha":264,"x_min":-1,"x_max":267,"o":"m 146 978 l 146 0 l 118 0 l 118 978 l 146 978 m -1 1140 q 10 1169 -1 1157 q 40 1182 22 1182 q 69 1169 57 1182 q 82 1140 82 1157 q 69 1111 82 1124 q 40 1099 57 1099 q 10 1111 22 1099 q -1 1140 -1 1124 m 185 1140 q 197 1169 185 1157 q 226 1182 208 1182 q 255 1169 243 1182 q 267 1140 267 1157 q 255 1111 267 1124 q 226 1099 243 1099 q 197 1111 208 1099 q 185 1140 185 1124 z "},"Ð":{"ha":1031,"x_min":14,"x_max":947,"o":"m 431 978 q 815 850 683 978 q 947 489 947 722 q 815 128 947 256 q 431 0 683 0 l 174 0 l 174 476 l 14 476 l 14 501 l 174 501 l 174 978 l 431 978 m 431 25 q 796 147 672 25 q 919 489 919 269 q 796 831 919 708 q 431 953 672 953 l 201 953 l 201 501 l 525 501 l 525 476 l 201 476 l 201 25 l 431 25 z "},"Ñ":{"ha":899,"x_min":118,"x_max":781,"o":"m 781 0 l 753 0 l 146 926 l 146 0 l 118 0 l 118 976 l 146 976 l 753 51 l 753 976 l 781 976 l 781 0 m 372 1158 q 413 1149 396 1158 q 450 1122 429 1140 q 485 1097 469 1106 q 522 1089 501 1089 q 563 1106 546 1089 q 583 1154 579 1124 l 608 1154 q 581 1090 606 1117 q 522 1064 557 1064 q 479 1074 497 1064 q 439 1101 461 1083 q 404 1126 418 1118 q 372 1133 390 1133 q 314 1067 322 1133 l 289 1067 q 316 1134 294 1110 q 372 1158 338 1158 z "},"Ò":{"ha":1100,"x_min":83,"x_max":1017,"o":"m 550 986 q 791 923 685 986 q 957 746 897 860 q 1017 488 1017 632 q 957 229 1017 343 q 791 52 897 115 q 550 -11 685 -11 q 309 52 415 -11 q 143 229 203 115 q 83 488 83 343 q 143 746 83 632 q 309 923 203 860 q 550 986 415 986 m 550 961 q 328 903 428 961 q 170 738 228 846 q 113 488 113 631 q 170 237 113 344 q 328 72 228 129 q 550 14 428 14 q 772 72 672 14 q 930 237 872 129 q 988 488 988 344 q 930 738 988 631 q 772 903 872 846 q 550 961 672 961 m 542 1069 l 542 1042 l 282 1222 l 282 1256 l 542 1069 z "},"Ó":{"ha":1100,"x_min":83,"x_max":1017,"o":"m 550 986 q 791 923 685 986 q 957 746 897 860 q 1017 488 1017 632 q 957 229 1017 343 q 791 52 897 115 q 550 -11 685 -11 q 309 52 415 -11 q 143 229 203 115 q 83 488 83 343 q 143 746 83 632 q 309 923 203 860 q 550 986 415 986 m 550 961 q 328 903 428 961 q 170 738 228 846 q 113 488 113 631 q 170 237 113 344 q 328 72 228 129 q 550 14 428 14 q 772 72 672 14 q 930 237 872 129 q 988 488 988 344 q 930 738 988 631 q 772 903 872 846 q 550 961 672 961 m 806 1222 l 546 1042 l 546 1069 l 806 1256 l 806 1222 z "},"Ô":{"ha":1100,"x_min":83,"x_max":1017,"o":"m 550 986 q 791 923 685 986 q 957 746 897 860 q 1017 488 1017 632 q 957 229 1017 343 q 791 52 897 115 q 550 -11 685 -11 q 309 52 415 -11 q 143 229 203 115 q 83 488 83 343 q 143 746 83 632 q 309 923 203 860 q 550 986 415 986 m 550 961 q 328 903 428 961 q 170 738 228 846 q 113 488 113 631 q 170 237 113 344 q 328 72 228 129 q 550 14 428 14 q 772 72 672 14 q 930 237 872 129 q 988 488 988 344 q 930 738 988 631 q 772 903 872 846 q 550 961 672 961 m 551 1201 l 379 1089 l 379 1117 l 551 1229 l 722 1117 l 722 1089 l 551 1201 z "},"Õ":{"ha":1100,"x_min":83,"x_max":1017,"o":"m 550 986 q 791 923 685 986 q 957 746 897 860 q 1017 488 1017 632 q 957 229 1017 343 q 791 52 897 115 q 550 -11 685 -11 q 309 52 415 -11 q 143 229 203 115 q 83 488 83 343 q 143 746 83 632 q 309 923 203 860 q 550 986 415 986 m 550 961 q 328 903 428 961 q 170 738 228 846 q 113 488 113 631 q 170 237 113 344 q 328 72 228 129 q 550 14 428 14 q 772 72 672 14 q 930 237 872 129 q 988 488 988 344 q 930 738 988 631 q 772 903 872 846 q 550 961 672 961 m 474 1158 q 514 1149 497 1158 q 551 1122 531 1140 q 587 1097 571 1106 q 624 1089 603 1089 q 664 1106 647 1089 q 685 1154 681 1124 l 710 1154 q 683 1090 707 1117 q 624 1064 658 1064 q 581 1074 599 1064 q 540 1101 563 1083 q 506 1126 519 1118 q 474 1133 492 1133 q 415 1067 424 1133 l 390 1067 q 417 1134 396 1110 q 474 1158 439 1158 z "},"Ö":{"ha":1100,"x_min":83,"x_max":1017,"o":"m 550 986 q 791 923 685 986 q 957 746 897 860 q 1017 488 1017 632 q 957 229 1017 343 q 791 52 897 115 q 550 -11 685 -11 q 309 52 415 -11 q 143 229 203 115 q 83 488 83 343 q 143 746 83 632 q 309 923 203 860 q 550 986 415 986 m 550 961 q 328 903 428 961 q 170 738 228 846 q 113 488 113 631 q 170 237 113 344 q 328 72 228 129 q 550 14 428 14 q 772 72 672 14 q 930 237 872 129 q 988 488 988 344 q 930 738 988 631 q 772 903 872 846 q 550 961 672 961 m 417 1140 q 428 1169 417 1157 q 458 1182 440 1182 q 488 1169 475 1182 q 500 1140 500 1157 q 488 1111 500 1124 q 458 1099 475 1099 q 428 1111 440 1099 q 417 1140 417 1124 m 603 1140 q 615 1169 603 1157 q 644 1182 626 1182 q 673 1169 661 1182 q 685 1140 685 1157 q 673 1111 685 1124 q 644 1099 661 1099 q 615 1111 626 1099 q 603 1140 603 1124 z "},"×":{"ha":651,"x_min":56,"x_max":596,"o":"m 576 257 l 325 508 l 75 258 l 57 276 l 307 526 l 56 778 l 75 797 l 326 546 l 576 796 l 594 778 l 344 528 l 596 276 l 576 257 z "},"Ø":{"ha":1100,"x_min":83,"x_max":1017,"o":"m 890 842 q 983 684 950 775 q 1017 488 1017 593 q 957 229 1017 343 q 791 52 897 115 q 550 -11 685 -11 q 372 22 454 -11 q 226 117 289 56 l 119 0 l 85 0 l 208 135 q 116 292 149 201 q 83 488 83 382 q 143 746 83 632 q 309 923 203 860 q 550 986 415 986 q 728 953 646 986 q 874 860 811 919 l 982 978 l 1015 978 l 890 842 m 113 488 q 142 301 113 386 q 226 154 172 217 l 856 839 q 717 930 796 899 q 550 961 639 961 q 328 903 428 961 q 170 738 228 846 q 113 488 113 631 m 550 14 q 772 72 672 14 q 930 237 872 129 q 988 488 988 344 q 958 675 988 590 q 872 821 928 760 l 244 136 q 381 45 303 76 q 550 14 460 14 z "},"Ù":{"ha":874,"x_min":111,"x_max":763,"o":"m 139 978 l 139 371 q 220 100 139 185 q 440 15 301 15 q 656 100 576 15 q 735 371 735 185 l 735 978 l 763 978 l 763 371 q 677 83 763 176 q 440 -10 592 -10 q 200 84 289 -10 q 111 371 111 178 l 111 978 l 139 978 m 428 1069 l 428 1042 l 168 1222 l 168 1256 l 428 1069 z "},"Ú":{"ha":874,"x_min":111,"x_max":763,"o":"m 139 978 l 139 371 q 220 100 139 185 q 440 15 301 15 q 656 100 576 15 q 735 371 735 185 l 735 978 l 763 978 l 763 371 q 677 83 763 176 q 440 -10 592 -10 q 200 84 289 -10 q 111 371 111 178 l 111 978 l 139 978 m 692 1222 l 432 1042 l 432 1069 l 692 1256 l 692 1222 z "},"Û":{"ha":874,"x_min":111,"x_max":763,"o":"m 139 978 l 139 371 q 220 100 139 185 q 440 15 301 15 q 656 100 576 15 q 735 371 735 185 l 735 978 l 763 978 l 763 371 q 677 83 763 176 q 440 -10 592 -10 q 200 84 289 -10 q 111 371 111 178 l 111 978 l 139 978 m 438 1201 l 265 1089 l 265 1117 l 438 1229 l 608 1117 l 608 1089 l 438 1201 z "},"Ü":{"ha":874,"x_min":111,"x_max":763,"o":"m 139 978 l 139 371 q 220 100 139 185 q 440 15 301 15 q 656 100 576 15 q 735 371 735 185 l 735 978 l 763 978 l 763 371 q 677 83 763 176 q 440 -10 592 -10 q 200 84 289 -10 q 111 371 111 178 l 111 978 l 139 978 m 303 1140 q 315 1169 303 1157 q 344 1182 326 1182 q 374 1169 361 1182 q 386 1140 386 1157 q 374 1111 386 1124 q 344 1099 361 1099 q 315 1111 326 1099 q 303 1140 303 1124 m 489 1140 q 501 1169 489 1157 q 531 1182 513 1182 q 559 1169 547 1182 q 571 1140 571 1157 q 559 1111 571 1124 q 531 1099 547 1099 q 501 1111 513 1099 q 489 1140 489 1124 z "},"Ý":{"ha":719,"x_min":42,"x_max":678,"o":"m 678 978 l 375 410 l 375 0 l 347 0 l 347 410 l 42 978 l 75 978 l 360 440 l 644 978 l 678 978 m 615 1222 l 356 1042 l 356 1069 l 615 1256 l 615 1222 z "},"Þ":{"ha":733,"x_min":118,"x_max":678,"o":"m 146 221 l 146 0 l 118 0 l 118 978 l 146 978 l 146 758 l 365 758 q 602 688 526 758 q 678 489 678 617 q 599 288 678 354 q 365 221 519 221 l 146 221 m 365 250 q 583 313 515 250 q 650 489 650 375 q 583 669 650 608 q 365 731 517 731 l 146 731 l 146 250 l 365 250 z "},"ß":{"ha":817,"x_min":118,"x_max":761,"o":"m 588 476 q 721 350 681 414 q 761 201 761 286 q 730 90 761 139 q 644 12 699 40 q 522 -17 590 -17 q 347 47 413 -17 q 281 224 281 110 l 308 224 q 362 68 308 128 q 522 8 415 8 q 640 36 592 8 q 710 108 688 64 q 733 201 733 153 q 700 331 733 274 q 581 447 667 389 l 353 601 l 353 625 l 415 656 q 501 724 474 683 q 529 826 529 765 q 478 964 529 911 q 346 1017 428 1017 q 199 963 251 1017 q 146 817 146 910 l 146 0 l 118 0 l 118 817 q 181 981 118 921 q 346 1042 243 1042 q 451 1016 403 1042 q 528 942 500 990 q 557 826 557 893 q 426 633 557 697 l 383 613 l 588 476 z "},"à":{"ha":932,"x_min":83,"x_max":814,"o":"m 449 760 q 667 690 578 760 q 788 508 757 621 l 788 750 l 814 750 l 814 0 l 788 0 l 788 242 q 667 60 757 129 q 449 -10 578 -10 q 258 37 342 -10 q 129 170 175 83 q 83 375 83 257 q 129 580 83 493 q 258 713 175 667 q 449 760 342 760 m 449 735 q 270 692 346 735 q 153 567 194 649 q 111 375 111 486 q 153 183 111 264 q 270 58 194 101 q 449 15 346 15 q 623 60 546 15 q 744 187 700 106 q 788 375 788 268 q 744 563 788 482 q 623 690 700 644 q 449 735 546 735 m 440 842 l 440 814 l 181 994 l 181 1028 l 440 842 z "},"á":{"ha":932,"x_min":83,"x_max":814,"o":"m 449 760 q 667 690 578 760 q 788 508 757 621 l 788 750 l 814 750 l 814 0 l 788 0 l 788 242 q 667 60 757 129 q 449 -10 578 -10 q 258 37 342 -10 q 129 170 175 83 q 83 375 83 257 q 129 580 83 493 q 258 713 175 667 q 449 760 342 760 m 449 735 q 270 692 346 735 q 153 567 194 649 q 111 375 111 486 q 153 183 111 264 q 270 58 194 101 q 449 15 346 15 q 623 60 546 15 q 744 187 700 106 q 788 375 788 268 q 744 563 788 482 q 623 690 700 644 q 449 735 546 735 m 704 994 l 444 814 l 444 842 l 704 1028 l 704 994 z "},"â":{"ha":932,"x_min":83,"x_max":814,"o":"m 449 760 q 667 690 578 760 q 788 508 757 621 l 788 750 l 814 750 l 814 0 l 788 0 l 788 242 q 667 60 757 129 q 449 -10 578 -10 q 258 37 342 -10 q 129 170 175 83 q 83 375 83 257 q 129 580 83 493 q 258 713 175 667 q 449 760 342 760 m 449 735 q 270 692 346 735 q 153 567 194 649 q 111 375 111 486 q 153 183 111 264 q 270 58 194 101 q 449 15 346 15 q 623 60 546 15 q 744 187 700 106 q 788 375 788 268 q 744 563 788 482 q 623 690 700 644 q 449 735 546 735 m 450 974 l 278 861 l 278 889 l 450 1001 l 621 889 l 621 861 l 450 974 z "},"ã":{"ha":932,"x_min":83,"x_max":814,"o":"m 449 760 q 667 690 578 760 q 788 508 757 621 l 788 750 l 814 750 l 814 0 l 788 0 l 788 242 q 667 60 757 129 q 449 -10 578 -10 q 258 37 342 -10 q 129 170 175 83 q 83 375 83 257 q 129 580 83 493 q 258 713 175 667 q 449 760 342 760 m 449 735 q 270 692 346 735 q 153 567 194 649 q 111 375 111 486 q 153 183 111 264 q 270 58 194 101 q 449 15 346 15 q 623 60 546 15 q 744 187 700 106 q 788 375 788 268 q 744 563 788 482 q 623 690 700 644 q 449 735 546 735 m 372 931 q 413 922 396 931 q 450 894 429 913 q 485 869 469 878 q 522 861 501 861 q 563 878 546 861 q 583 926 579 896 l 608 926 q 581 863 606 889 q 522 836 557 836 q 479 846 497 836 q 439 874 461 856 q 404 898 418 890 q 372 906 390 906 q 314 839 322 906 l 289 839 q 316 906 294 882 q 372 931 338 931 z "},"ä":{"ha":932,"x_min":83,"x_max":814,"o":"m 449 760 q 667 690 578 760 q 788 508 757 621 l 788 750 l 814 750 l 814 0 l 788 0 l 788 242 q 667 60 757 129 q 449 -10 578 -10 q 258 37 342 -10 q 129 170 175 83 q 83 375 83 257 q 129 580 83 493 q 258 713 175 667 q 449 760 342 760 m 449 735 q 270 692 346 735 q 153 567 194 649 q 111 375 111 486 q 153 183 111 264 q 270 58 194 101 q 449 15 346 15 q 623 60 546 15 q 744 187 700 106 q 788 375 788 268 q 744 563 788 482 q 623 690 700 644 q 449 735 546 735 m 315 913 q 327 942 315 929 q 357 954 339 954 q 386 942 374 954 q 399 913 399 929 q 386 883 399 896 q 357 871 374 871 q 327 883 339 871 q 315 913 315 896 m 501 913 q 513 942 501 929 q 543 954 525 954 q 572 942 560 954 q 583 913 583 929 q 572 883 583 896 q 543 871 560 871 q 513 883 525 871 q 501 913 501 896 z "},"å":{"ha":932,"x_min":83,"x_max":814,"o":"m 449 760 q 667 690 578 760 q 788 508 757 621 l 788 750 l 814 750 l 814 0 l 788 0 l 788 242 q 667 60 757 129 q 449 -10 578 -10 q 258 37 342 -10 q 129 170 175 83 q 83 375 83 257 q 129 580 83 493 q 258 713 175 667 q 449 760 342 760 m 449 735 q 270 692 346 735 q 153 567 194 649 q 111 375 111 486 q 153 183 111 264 q 270 58 194 101 q 449 15 346 15 q 623 60 546 15 q 744 187 700 106 q 788 375 788 268 q 744 563 788 482 q 623 690 700 644 q 449 735 546 735 m 449 1104 q 538 1070 501 1104 q 574 979 574 1036 q 538 888 574 922 q 449 854 501 854 q 360 888 396 854 q 324 979 324 922 q 360 1070 324 1036 q 449 1104 396 1104 m 449 1079 q 378 1052 406 1079 q 351 979 351 1025 q 378 906 351 933 q 449 879 406 879 q 519 906 492 879 q 546 979 546 933 q 519 1052 546 1025 q 449 1079 492 1079 z "},"æ":{"ha":1576,"x_min":83,"x_max":1493,"o":"m 1149 15 q 1361 79 1275 15 q 1465 254 1447 143 l 1493 254 q 1383 63 1474 136 q 1149 -10 1292 -10 q 933 56 1025 -10 q 814 243 842 121 l 814 0 l 788 0 l 788 242 q 667 60 757 129 q 449 -10 578 -10 q 258 37 342 -10 q 129 170 175 83 q 83 375 83 257 q 129 580 83 493 q 258 713 175 667 q 449 760 342 760 q 667 690 578 760 q 788 508 757 621 l 788 750 l 814 750 l 814 507 q 934 694 842 628 q 1149 760 1026 760 q 1336 713 1258 760 q 1453 593 1414 667 q 1493 438 1493 519 q 1488 363 1493 396 l 815 363 q 863 170 817 249 q 985 53 910 92 q 1149 15 1060 15 m 449 15 q 623 60 546 15 q 744 187 700 106 q 788 375 788 268 q 744 563 788 482 q 623 690 700 644 q 449 735 546 735 q 270 692 346 735 q 153 567 194 649 q 111 375 111 486 q 153 183 111 264 q 270 58 194 101 q 449 15 346 15 m 1149 735 q 985 697 1060 735 q 863 581 910 658 q 815 388 817 503 l 1468 388 q 1431 581 1475 503 q 1312 697 1388 658 q 1149 735 1236 735 z "},"ç":{"ha":872,"x_min":83,"x_max":789,"o":"m 444 760 q 678 687 588 760 q 789 496 769 614 l 761 496 q 657 671 743 607 q 444 735 571 735 q 278 695 354 735 q 157 575 203 656 q 111 375 111 494 q 157 175 111 256 q 278 55 203 94 q 444 15 354 15 q 657 79 571 15 q 761 254 743 143 l 789 254 q 678 63 769 136 q 444 -10 588 -10 q 258 36 340 -10 q 130 169 176 82 q 83 375 83 257 q 130 581 83 493 q 258 714 176 668 q 444 760 340 760 m 449 -124 q 578 -147 533 -118 q 624 -233 624 -176 q 585 -320 624 -287 q 476 -353 547 -353 l 389 -353 l 389 -325 l 472 -325 q 596 -233 596 -325 q 567 -172 596 -196 q 472 -149 538 -149 l 421 -149 l 421 10 l 449 10 l 449 -124 z "},"è":{"ha":872,"x_min":83,"x_max":789,"o":"m 444 15 q 657 79 571 15 q 761 254 743 143 l 789 254 q 678 63 769 136 q 444 -10 588 -10 q 258 36 340 -10 q 130 169 176 82 q 83 375 83 257 q 130 581 83 493 q 258 714 176 668 q 444 760 340 760 q 632 713 554 760 q 749 593 710 667 q 789 438 789 519 q 783 363 789 396 l 111 363 q 159 169 113 247 q 281 53 206 92 q 444 15 356 15 m 444 735 q 281 697 356 735 q 159 581 206 658 q 111 388 113 503 l 764 388 q 727 581 771 503 q 608 697 683 658 q 444 735 532 735 m 428 842 l 428 814 l 168 994 l 168 1028 l 428 842 z "},"é":{"ha":872,"x_min":83,"x_max":789,"o":"m 444 15 q 657 79 571 15 q 761 254 743 143 l 789 254 q 678 63 769 136 q 444 -10 588 -10 q 258 36 340 -10 q 130 169 176 82 q 83 375 83 257 q 130 581 83 493 q 258 714 176 668 q 444 760 340 760 q 632 713 554 760 q 749 593 710 667 q 789 438 789 519 q 783 363 789 396 l 111 363 q 159 169 113 247 q 281 53 206 92 q 444 15 356 15 m 444 735 q 281 697 356 735 q 159 581 206 658 q 111 388 113 503 l 764 388 q 727 581 771 503 q 608 697 683 658 q 444 735 532 735 m 692 994 l 432 814 l 432 842 l 692 1028 l 692 994 z "},"ê":{"ha":872,"x_min":83,"x_max":789,"o":"m 444 15 q 657 79 571 15 q 761 254 743 143 l 789 254 q 678 63 769 136 q 444 -10 588 -10 q 258 36 340 -10 q 130 169 176 82 q 83 375 83 257 q 130 581 83 493 q 258 714 176 668 q 444 760 340 760 q 632 713 554 760 q 749 593 710 667 q 789 438 789 519 q 783 363 789 396 l 111 363 q 159 169 113 247 q 281 53 206 92 q 444 15 356 15 m 444 735 q 281 697 356 735 q 159 581 206 658 q 111 388 113 503 l 764 388 q 727 581 771 503 q 608 697 683 658 q 444 735 532 735 m 438 974 l 265 861 l 265 889 l 438 1001 l 608 889 l 608 861 l 438 974 z "},"ë":{"ha":872,"x_min":83,"x_max":789,"o":"m 444 15 q 657 79 571 15 q 761 254 743 143 l 789 254 q 678 63 769 136 q 444 -10 588 -10 q 258 36 340 -10 q 130 169 176 82 q 83 375 83 257 q 130 581 83 493 q 258 714 176 668 q 444 760 340 760 q 632 713 554 760 q 749 593 710 667 q 789 438 789 519 q 783 363 789 396 l 111 363 q 159 169 113 247 q 281 53 206 92 q 444 15 356 15 m 444 735 q 281 697 356 735 q 159 581 206 658 q 111 388 113 503 l 764 388 q 727 581 771 503 q 608 697 683 658 q 444 735 532 735 m 303 913 q 315 942 303 929 q 344 954 326 954 q 374 942 361 954 q 386 913 386 929 q 374 883 386 896 q 344 871 361 871 q 315 883 326 871 q 303 913 303 896 m 489 913 q 501 942 489 929 q 531 954 513 954 q 559 942 547 954 q 571 913 571 929 q 559 883 571 896 q 531 871 547 871 q 501 883 513 871 q 489 913 489 896 z "},"ì":{"ha":264,"x_min":-136,"x_max":146,"o":"m 146 750 l 146 0 l 118 0 l 118 750 l 146 750 m 124 842 l 124 814 l -136 994 l -136 1028 l 124 842 z "},"í":{"ha":264,"x_min":118,"x_max":388,"o":"m 146 750 l 146 0 l 118 0 l 118 750 l 146 750 m 388 994 l 128 814 l 128 842 l 388 1028 l 388 994 z "},"î":{"ha":264,"x_min":-39,"x_max":304,"o":"m 146 750 l 146 0 l 118 0 l 118 750 l 146 750 m 133 974 l -39 861 l -39 889 l 133 1001 l 304 889 l 304 861 l 133 974 z "},"ï":{"ha":264,"x_min":-1,"x_max":267,"o":"m 146 750 l 146 0 l 118 0 l 118 750 l 146 750 m -1 913 q 10 942 -1 929 q 40 954 22 954 q 69 942 57 954 q 82 913 82 929 q 69 883 82 896 q 40 871 57 871 q 10 883 22 871 q -1 913 -1 896 m 185 913 q 197 942 185 929 q 226 954 208 954 q 255 942 243 954 q 267 913 267 929 q 255 883 267 896 q 226 871 243 871 q 197 883 208 871 q 185 913 185 896 z "},"ð":{"ha":896,"x_min":83,"x_max":813,"o":"m 586 936 q 758 701 704 824 q 813 426 813 578 q 714 101 813 213 q 449 -10 615 -10 q 253 42 336 -10 q 127 185 171 93 q 83 397 83 276 q 128 591 83 507 q 256 721 172 675 q 449 767 339 767 q 665 697 571 767 q 793 488 758 626 q 723 722 775 621 q 564 928 671 824 l 350 850 l 350 875 l 544 946 q 447 1028 492 993 l 478 1028 q 567 954 542 978 l 774 1029 l 774 1004 l 586 936 m 449 15 q 621 58 544 15 q 741 183 697 101 q 785 375 785 264 q 740 572 785 489 q 618 699 694 656 q 449 742 542 742 q 275 701 351 742 q 155 583 199 661 q 111 397 111 506 q 154 192 111 279 q 274 60 197 106 q 449 15 350 15 z "},"ñ":{"ha":853,"x_min":118,"x_max":742,"o":"m 440 767 q 657 685 572 767 q 742 438 742 603 l 742 0 l 715 0 l 715 440 q 642 665 715 588 q 440 742 568 742 q 226 655 307 742 q 146 399 146 568 l 146 0 l 118 0 l 118 750 l 146 750 l 146 539 q 253 710 172 653 q 440 767 335 767 m 353 931 q 393 922 376 931 q 431 894 410 913 q 466 869 450 878 q 503 861 482 861 q 543 878 526 861 q 564 926 560 896 l 589 926 q 562 863 586 889 q 503 836 538 836 q 460 846 478 836 q 419 874 442 856 q 385 898 399 890 q 353 906 371 906 q 294 839 303 906 l 269 839 q 297 906 275 882 q 353 931 318 931 z "},"ò":{"ha":899,"x_min":83,"x_max":815,"o":"m 450 760 q 638 713 554 760 q 768 580 721 667 q 815 375 815 493 q 768 170 815 257 q 638 37 721 83 q 450 -10 554 -10 q 263 37 346 -10 q 131 170 179 83 q 83 375 83 257 q 131 580 83 493 q 263 713 179 667 q 450 760 346 760 m 450 735 q 283 695 360 735 q 158 574 206 656 q 111 375 111 493 q 158 176 111 257 q 283 55 206 94 q 450 15 360 15 q 617 55 540 15 q 740 175 693 94 q 788 375 788 256 q 740 575 788 494 q 617 695 693 656 q 450 735 540 735 m 440 842 l 440 814 l 181 994 l 181 1028 l 440 842 z "},"ó":{"ha":899,"x_min":83,"x_max":815,"o":"m 450 760 q 638 713 554 760 q 768 580 721 667 q 815 375 815 493 q 768 170 815 257 q 638 37 721 83 q 450 -10 554 -10 q 263 37 346 -10 q 131 170 179 83 q 83 375 83 257 q 131 580 83 493 q 263 713 179 667 q 450 760 346 760 m 450 735 q 283 695 360 735 q 158 574 206 656 q 111 375 111 493 q 158 176 111 257 q 283 55 206 94 q 450 15 360 15 q 617 55 540 15 q 740 175 693 94 q 788 375 788 256 q 740 575 788 494 q 617 695 693 656 q 450 735 540 735 m 704 994 l 444 814 l 444 842 l 704 1028 l 704 994 z "},"ô":{"ha":899,"x_min":83,"x_max":815,"o":"m 450 760 q 638 713 554 760 q 768 580 721 667 q 815 375 815 493 q 768 170 815 257 q 638 37 721 83 q 450 -10 554 -10 q 263 37 346 -10 q 131 170 179 83 q 83 375 83 257 q 131 580 83 493 q 263 713 179 667 q 450 760 346 760 m 450 735 q 283 695 360 735 q 158 574 206 656 q 111 375 111 493 q 158 176 111 257 q 283 55 206 94 q 450 15 360 15 q 617 55 540 15 q 740 175 693 94 q 788 375 788 256 q 740 575 788 494 q 617 695 693 656 q 450 735 540 735 m 450 974 l 278 861 l 278 889 l 450 1001 l 621 889 l 621 861 l 450 974 z "},"õ":{"ha":899,"x_min":83,"x_max":815,"o":"m 450 760 q 638 713 554 760 q 768 580 721 667 q 815 375 815 493 q 768 170 815 257 q 638 37 721 83 q 450 -10 554 -10 q 263 37 346 -10 q 131 170 179 83 q 83 375 83 257 q 131 580 83 493 q 263 713 179 667 q 450 760 346 760 m 450 735 q 283 695 360 735 q 158 574 206 656 q 111 375 111 493 q 158 176 111 257 q 283 55 206 94 q 450 15 360 15 q 617 55 540 15 q 740 175 693 94 q 788 375 788 256 q 740 575 788 494 q 617 695 693 656 q 450 735 540 735 m 372 931 q 413 922 396 931 q 450 894 429 913 q 485 869 469 878 q 522 861 501 861 q 563 878 546 861 q 583 926 579 896 l 608 926 q 581 863 606 889 q 522 836 557 836 q 479 846 497 836 q 439 874 461 856 q 404 898 418 890 q 372 906 390 906 q 314 839 322 906 l 289 839 q 316 906 294 882 q 372 931 338 931 z "},"ö":{"ha":899,"x_min":83,"x_max":815,"o":"m 450 760 q 638 713 554 760 q 768 580 721 667 q 815 375 815 493 q 768 170 815 257 q 638 37 721 83 q 450 -10 554 -10 q 263 37 346 -10 q 131 170 179 83 q 83 375 83 257 q 131 580 83 493 q 263 713 179 667 q 450 760 346 760 m 450 735 q 283 695 360 735 q 158 574 206 656 q 111 375 111 493 q 158 176 111 257 q 283 55 206 94 q 450 15 360 15 q 617 55 540 15 q 740 175 693 94 q 788 375 788 256 q 740 575 788 494 q 617 695 693 656 q 450 735 540 735 m 315 913 q 327 942 315 929 q 357 954 339 954 q 386 942 374 954 q 399 913 399 929 q 386 883 399 896 q 357 871 374 871 q 327 883 339 871 q 315 913 315 896 m 501 913 q 513 942 501 929 q 543 954 525 954 q 572 942 560 954 q 583 913 583 929 q 572 883 583 896 q 543 871 560 871 q 513 883 525 871 q 501 913 501 896 z "},"÷":{"ha":818,"x_min":56,"x_max":763,"o":"m 444 858 l 444 790 l 375 790 l 375 858 l 444 858 m 763 540 l 763 515 l 56 515 l 56 540 l 763 540 m 444 269 l 444 201 l 375 201 l 375 269 l 444 269 z "},"ø":{"ha":899,"x_min":83,"x_max":815,"o":"m 717 651 q 790 531 764 601 q 815 375 815 461 q 768 170 815 257 q 638 37 721 83 q 450 -10 554 -10 q 200 81 301 -10 l 126 0 l 96 0 l 183 97 q 109 218 135 147 q 83 375 83 289 q 131 580 83 493 q 263 713 179 667 q 450 760 346 760 q 588 736 524 760 q 701 667 653 713 l 776 750 l 807 750 l 717 651 m 111 375 q 201 117 111 211 l 683 647 q 577 713 638 690 q 450 735 517 735 q 283 695 360 735 q 158 574 206 656 q 111 375 111 493 m 450 15 q 617 55 540 15 q 740 175 693 94 q 788 375 788 256 q 700 632 788 535 l 218 100 q 324 37 264 58 q 450 15 385 15 z "},"ù":{"ha":832,"x_min":90,"x_max":714,"o":"m 714 750 l 714 0 l 686 0 l 686 211 q 578 40 660 97 q 392 -17 497 -17 q 175 65 260 -17 q 90 313 90 147 l 90 750 l 117 750 l 117 310 q 190 85 117 163 q 392 8 264 8 q 606 95 525 8 q 686 351 686 182 l 686 750 l 714 750 m 393 842 l 393 814 l 133 994 l 133 1028 l 393 842 z "},"ú":{"ha":832,"x_min":90,"x_max":714,"o":"m 714 750 l 714 0 l 686 0 l 686 211 q 578 40 660 97 q 392 -17 497 -17 q 175 65 260 -17 q 90 313 90 147 l 90 750 l 117 750 l 117 310 q 190 85 117 163 q 392 8 264 8 q 606 95 525 8 q 686 351 686 182 l 686 750 l 714 750 m 657 994 l 397 814 l 397 842 l 657 1028 l 657 994 z "},"û":{"ha":832,"x_min":90,"x_max":714,"o":"m 714 750 l 714 0 l 686 0 l 686 211 q 578 40 660 97 q 392 -17 497 -17 q 175 65 260 -17 q 90 313 90 147 l 90 750 l 117 750 l 117 310 q 190 85 117 163 q 392 8 264 8 q 606 95 525 8 q 686 351 686 182 l 686 750 l 714 750 m 403 974 l 231 861 l 231 889 l 403 1001 l 574 889 l 574 861 l 403 974 z "},"ü":{"ha":832,"x_min":90,"x_max":714,"o":"m 714 750 l 714 0 l 686 0 l 686 211 q 578 40 660 97 q 392 -17 497 -17 q 175 65 260 -17 q 90 313 90 147 l 90 750 l 117 750 l 117 310 q 190 85 117 163 q 392 8 264 8 q 606 95 525 8 q 686 351 686 182 l 686 750 l 714 750 m 268 913 q 280 942 268 929 q 310 954 292 954 q 339 942 326 954 q 351 913 351 929 q 339 883 351 896 q 310 871 326 871 q 280 883 292 871 q 268 913 268 896 m 454 913 q 466 942 454 929 q 496 954 478 954 q 524 942 513 954 q 536 913 536 929 q 524 883 536 896 q 496 871 513 871 q 466 883 478 871 q 454 913 454 896 z "},"ý":{"ha":699,"x_min":28,"x_max":671,"o":"m 58 750 l 361 40 l 640 750 l 671 750 l 243 -353 l 208 -353 l 346 -1 l 28 750 l 58 750 m 604 994 l 344 814 l 344 842 l 604 1028 l 604 994 z "},"þ":{"ha":932,"x_min":118,"x_max":849,"o":"m 483 760 q 674 713 590 760 q 803 580 757 667 q 849 375 849 493 q 803 170 849 257 q 674 37 757 83 q 483 -10 590 -10 q 265 60 354 -10 q 144 242 175 129 l 144 -353 l 118 -353 l 118 1028 l 144 1028 l 144 508 q 265 690 175 621 q 483 760 354 760 m 483 735 q 309 690 386 735 q 188 563 232 644 q 144 375 144 482 q 188 187 144 268 q 309 60 232 106 q 483 15 386 15 q 662 58 586 15 q 779 183 738 101 q 821 375 821 264 q 779 567 821 486 q 662 692 738 649 q 483 735 586 735 z "},"ÿ":{"ha":699,"x_min":28,"x_max":671,"o":"m 58 750 l 361 40 l 640 750 l 671 750 l 243 -353 l 208 -353 l 346 -1 l 28 750 l 58 750 m 215 913 q 227 942 215 929 q 257 954 239 954 q 286 942 274 954 q 299 913 299 929 q 286 883 299 896 q 257 871 274 871 q 227 883 239 871 q 215 913 215 896 m 401 913 q 413 942 401 929 q 443 954 425 954 q 472 942 460 954 q 483 913 483 929 q 472 883 483 896 q 443 871 460 871 q 413 883 425 871 q 401 913 401 896 z "},"Ā":{"ha":835,"x_min":42,"x_max":793,"o":"m 660 269 l 176 269 l 74 0 l 42 0 l 404 949 l 432 949 l 793 0 l 761 0 l 660 269 m 650 294 l 418 904 l 186 294 l 650 294 m 632 1168 l 632 1143 l 203 1143 l 203 1168 l 632 1168 z "},"ā":{"ha":932,"x_min":83,"x_max":814,"o":"m 449 760 q 667 690 578 760 q 788 508 757 621 l 788 750 l 814 750 l 814 0 l 788 0 l 788 242 q 667 60 757 129 q 449 -10 578 -10 q 258 37 342 -10 q 129 170 175 83 q 83 375 83 257 q 129 580 83 493 q 258 713 175 667 q 449 760 342 760 m 449 735 q 270 692 346 735 q 153 567 194 649 q 111 375 111 486 q 153 183 111 264 q 270 58 194 101 q 449 15 346 15 q 623 60 546 15 q 744 187 700 106 q 788 375 788 268 q 744 563 788 482 q 623 690 700 644 q 449 735 546 735 m 664 940 l 664 915 l 235 915 l 235 940 l 664 940 z "},"Ă":{"ha":835,"x_min":42,"x_max":793,"o":"m 660 269 l 176 269 l 74 0 l 42 0 l 404 949 l 432 949 l 793 0 l 761 0 l 660 269 m 650 294 l 418 904 l 186 294 l 650 294 m 417 1083 q 294 1127 335 1083 q 253 1228 253 1171 l 253 1233 l 281 1233 q 316 1141 281 1174 q 417 1108 351 1108 q 517 1141 482 1108 q 553 1233 553 1174 l 581 1233 l 581 1228 q 540 1127 581 1171 q 417 1083 499 1083 z "},"ă":{"ha":932,"x_min":83,"x_max":814,"o":"m 449 760 q 667 690 578 760 q 788 508 757 621 l 788 750 l 814 750 l 814 0 l 788 0 l 788 242 q 667 60 757 129 q 449 -10 578 -10 q 258 37 342 -10 q 129 170 175 83 q 83 375 83 257 q 129 580 83 493 q 258 713 175 667 q 449 760 342 760 m 449 735 q 270 692 346 735 q 153 567 194 649 q 111 375 111 486 q 153 183 111 264 q 270 58 194 101 q 449 15 346 15 q 623 60 546 15 q 744 187 700 106 q 788 375 788 268 q 744 563 788 482 q 623 690 700 644 q 449 735 546 735 m 449 856 q 326 899 367 856 q 285 1000 285 943 l 285 1006 l 313 1006 q 348 913 313 946 q 449 881 383 881 q 549 913 514 881 q 585 1006 585 946 l 613 1006 l 613 1000 q 572 899 613 943 q 449 856 531 856 z "},"Ą":{"ha":835,"x_min":42,"x_max":849,"o":"m 849 -236 l 849 -264 l 754 -264 q 635 -227 676 -264 q 594 -132 594 -190 q 636 -39 594 -75 q 763 0 678 -3 l 660 269 l 176 269 l 74 0 l 42 0 l 404 949 l 432 949 l 793 0 l 793 -28 l 754 -28 q 658 -56 693 -28 q 622 -132 622 -83 q 658 -208 622 -181 q 754 -236 693 -236 l 849 -236 m 650 294 l 418 901 l 186 294 l 650 294 z "},"ą":{"ha":932,"x_min":83,"x_max":869,"o":"m 449 760 q 667 690 578 760 q 788 508 757 621 l 788 750 l 814 750 l 814 0 l 788 0 l 788 242 q 667 60 757 129 q 449 -10 578 -10 q 258 37 342 -10 q 129 170 175 83 q 83 375 83 257 q 129 580 83 493 q 258 713 175 667 q 449 760 342 760 m 449 735 q 270 692 346 735 q 153 567 194 649 q 111 375 111 486 q 153 183 111 264 q 270 58 194 101 q 449 15 346 15 q 623 60 546 15 q 744 187 700 106 q 788 375 788 268 q 744 563 788 482 q 623 690 700 644 q 449 735 546 735 m 814 3 l 814 -25 l 775 -25 q 678 -53 714 -25 q 643 -129 643 -81 q 678 -206 643 -178 q 775 -233 714 -233 l 869 -233 l 869 -261 l 775 -261 q 656 -224 697 -261 q 615 -129 615 -187 q 656 -34 615 -71 q 775 3 697 3 l 814 3 z "},"Ć":{"ha":1068,"x_min":83,"x_max":985,"o":"m 539 988 q 822 908 710 988 q 985 689 933 829 l 957 689 q 806 888 913 813 q 539 963 699 963 q 322 905 419 963 q 169 740 225 847 q 113 488 113 632 q 169 238 113 344 q 323 73 225 131 q 539 15 421 15 q 806 90 699 15 q 957 288 913 164 l 985 288 q 822 69 933 147 q 539 -10 710 -10 q 304 53 408 -10 q 142 230 200 117 q 83 488 83 343 q 142 747 83 633 q 304 924 200 860 q 539 988 408 988 m 789 1222 l 529 1042 l 529 1069 l 789 1256 l 789 1222 z "},"ć":{"ha":872,"x_min":83,"x_max":789,"o":"m 444 760 q 678 687 588 760 q 789 496 769 614 l 761 496 q 657 671 743 607 q 444 735 571 735 q 278 695 354 735 q 157 575 203 656 q 111 375 111 494 q 157 175 111 256 q 278 55 203 94 q 444 15 354 15 q 657 79 571 15 q 761 254 743 143 l 789 254 q 678 63 769 136 q 444 -10 588 -10 q 258 36 340 -10 q 130 169 176 82 q 83 375 83 257 q 130 581 83 493 q 258 714 176 668 q 444 760 340 760 m 692 994 l 432 814 l 432 842 l 692 1028 l 692 994 z "},"Ċ":{"ha":1068,"x_min":83,"x_max":985,"o":"m 539 988 q 822 908 710 988 q 985 689 933 829 l 957 689 q 806 888 913 813 q 539 963 699 963 q 322 905 419 963 q 169 740 225 847 q 113 488 113 632 q 169 238 113 344 q 323 73 225 131 q 539 15 421 15 q 806 90 699 15 q 957 288 913 164 l 985 288 q 822 69 933 147 q 539 -10 710 -10 q 304 53 408 -10 q 142 230 200 117 q 83 488 83 343 q 142 747 83 633 q 304 924 200 860 q 539 988 408 988 m 492 1140 q 504 1169 492 1157 q 533 1182 517 1182 q 563 1169 550 1182 q 575 1140 575 1157 q 563 1111 575 1124 q 533 1099 550 1099 q 504 1111 517 1099 q 492 1140 492 1124 z "},"ċ":{"ha":872,"x_min":83,"x_max":789,"o":"m 444 760 q 678 687 588 760 q 789 496 769 614 l 761 496 q 657 671 743 607 q 444 735 571 735 q 278 695 354 735 q 157 575 203 656 q 111 375 111 494 q 157 175 111 256 q 278 55 203 94 q 444 15 354 15 q 657 79 571 15 q 761 254 743 143 l 789 254 q 678 63 769 136 q 444 -10 588 -10 q 258 36 340 -10 q 130 169 176 82 q 83 375 83 257 q 130 581 83 493 q 258 714 176 668 q 444 760 340 760 m 394 913 q 407 942 394 929 q 436 954 419 954 q 465 942 453 954 q 478 913 478 929 q 465 883 478 896 q 436 871 453 871 q 407 883 419 871 q 394 913 394 896 z "},"Č":{"ha":1068,"x_min":83,"x_max":985,"o":"m 539 988 q 822 908 710 988 q 985 689 933 829 l 957 689 q 806 888 913 813 q 539 963 699 963 q 322 905 419 963 q 169 740 225 847 q 113 488 113 632 q 169 238 113 344 q 323 73 225 131 q 539 15 421 15 q 806 90 699 15 q 957 288 913 164 l 985 288 q 822 69 933 147 q 539 -10 710 -10 q 304 53 408 -10 q 142 230 200 117 q 83 488 83 343 q 142 747 83 633 q 304 924 200 860 q 539 988 408 988 m 706 1197 l 535 1085 l 363 1197 l 363 1225 l 535 1113 l 706 1225 l 706 1197 z "},"č":{"ha":872,"x_min":83,"x_max":789,"o":"m 444 760 q 678 687 588 760 q 789 496 769 614 l 761 496 q 657 671 743 607 q 444 735 571 735 q 278 695 354 735 q 157 575 203 656 q 111 375 111 494 q 157 175 111 256 q 278 55 203 94 q 444 15 354 15 q 657 79 571 15 q 761 254 743 143 l 789 254 q 678 63 769 136 q 444 -10 588 -10 q 258 36 340 -10 q 130 169 176 82 q 83 375 83 257 q 130 581 83 493 q 258 714 176 668 q 444 760 340 760 m 608 969 l 438 857 l 265 969 l 265 997 l 438 885 l 608 997 l 608 969 z "},"Ď":{"ha":975,"x_min":118,"x_max":892,"o":"m 892 489 q 760 128 892 256 q 375 0 628 0 l 118 0 l 118 978 l 375 978 q 760 850 628 978 q 892 489 892 722 m 375 25 q 740 147 617 25 q 864 489 864 269 q 740 831 864 708 q 375 953 617 953 l 146 953 l 146 25 l 375 25 m 676 1197 l 506 1085 l 333 1197 l 333 1225 l 506 1113 l 676 1225 l 676 1197 z "},"ď":{"ha":932,"x_min":83,"x_max":975,"o":"m 449 760 q 667 690 578 760 q 788 508 757 621 l 788 1028 l 814 1028 l 814 0 l 788 0 l 788 242 q 667 60 757 129 q 449 -10 578 -10 q 258 37 342 -10 q 129 170 175 83 q 83 375 83 257 q 129 580 83 493 q 258 713 175 667 q 449 760 342 760 m 969 1028 q 975 932 975 974 q 951 847 975 871 q 882 824 928 824 l 882 851 q 931 867 917 851 q 944 914 944 882 l 944 954 l 892 954 l 892 1028 l 969 1028 m 449 735 q 270 692 346 735 q 153 567 194 649 q 111 375 111 486 q 153 183 111 264 q 270 58 194 101 q 449 15 346 15 q 623 60 546 15 q 744 187 700 106 q 788 375 788 268 q 744 563 788 482 q 623 690 700 644 q 449 735 546 735 z "},"Đ":{"ha":1031,"x_min":14,"x_max":947,"o":"m 431 978 q 815 850 683 978 q 947 489 947 722 q 815 128 947 256 q 431 0 683 0 l 174 0 l 174 476 l 14 476 l 14 501 l 174 501 l 174 978 l 431 978 m 431 25 q 796 147 672 25 q 919 489 919 269 q 796 831 919 708 q 431 953 672 953 l 201 953 l 201 501 l 525 501 l 525 476 l 201 476 l 201 25 l 431 25 z "},"đ":{"ha":922,"x_min":83,"x_max":908,"o":"m 908 903 l 814 903 l 814 0 l 788 0 l 788 242 q 667 60 757 129 q 449 -10 578 -10 q 258 37 342 -10 q 129 170 175 83 q 83 375 83 257 q 129 580 83 493 q 258 713 175 667 q 449 760 342 760 q 667 690 578 760 q 788 508 757 621 l 788 903 l 503 903 l 503 928 l 788 928 l 788 1028 l 814 1028 l 814 928 l 908 928 l 908 903 m 449 15 q 623 60 546 15 q 744 187 700 106 q 788 375 788 268 q 744 563 788 482 q 623 690 700 644 q 449 735 546 735 q 270 692 346 735 q 153 567 194 649 q 111 375 111 486 q 153 183 111 264 q 270 58 194 101 q 449 15 346 15 z "},"Ē":{"ha":665,"x_min":118,"x_max":596,"o":"m 146 953 l 146 501 l 554 501 l 554 476 l 146 476 l 146 25 l 596 25 l 596 0 l 118 0 l 118 978 l 596 978 l 596 953 l 146 953 m 572 1168 l 572 1143 l 143 1143 l 143 1168 l 572 1168 z "},"ē":{"ha":872,"x_min":83,"x_max":789,"o":"m 444 15 q 657 79 571 15 q 761 254 743 143 l 789 254 q 678 63 769 136 q 444 -10 588 -10 q 258 36 340 -10 q 130 169 176 82 q 83 375 83 257 q 130 581 83 493 q 258 714 176 668 q 444 760 340 760 q 632 713 554 760 q 749 593 710 667 q 789 438 789 519 q 783 363 789 396 l 111 363 q 159 169 113 247 q 281 53 206 92 q 444 15 356 15 m 444 735 q 281 697 356 735 q 159 581 206 658 q 111 388 113 503 l 764 388 q 727 581 771 503 q 608 697 683 658 q 444 735 532 735 m 651 940 l 651 915 l 222 915 l 222 940 l 651 940 z "},"Ĕ":{"ha":665,"x_min":118,"x_max":596,"o":"m 146 953 l 146 501 l 554 501 l 554 476 l 146 476 l 146 25 l 596 25 l 596 0 l 118 0 l 118 978 l 596 978 l 596 953 l 146 953 m 357 1083 q 234 1127 275 1083 q 193 1228 193 1171 l 193 1233 l 221 1233 q 256 1141 221 1174 q 357 1108 292 1108 q 458 1141 422 1108 q 493 1233 493 1174 l 521 1233 l 521 1228 q 480 1127 521 1171 q 357 1083 439 1083 z "},"ĕ":{"ha":872,"x_min":83,"x_max":789,"o":"m 444 15 q 657 79 571 15 q 761 254 743 143 l 789 254 q 678 63 769 136 q 444 -10 588 -10 q 258 36 340 -10 q 130 169 176 82 q 83 375 83 257 q 130 581 83 493 q 258 714 176 668 q 444 760 340 760 q 632 713 554 760 q 749 593 710 667 q 789 438 789 519 q 783 363 789 396 l 111 363 q 159 169 113 247 q 281 53 206 92 q 444 15 356 15 m 444 735 q 281 697 356 735 q 159 581 206 658 q 111 388 113 503 l 764 388 q 727 581 771 503 q 608 697 683 658 q 444 735 532 735 m 436 856 q 313 899 354 856 q 272 1000 272 943 l 272 1006 l 300 1006 q 335 913 300 946 q 436 881 371 881 q 537 913 501 881 q 572 1006 572 946 l 600 1006 l 600 1000 q 559 899 600 943 q 436 856 518 856 z "},"Ė":{"ha":665,"x_min":118,"x_max":596,"o":"m 146 953 l 146 501 l 554 501 l 554 476 l 146 476 l 146 25 l 596 25 l 596 0 l 118 0 l 118 978 l 596 978 l 596 953 l 146 953 m 315 1140 q 328 1169 315 1157 q 357 1182 340 1182 q 386 1169 374 1182 q 399 1140 399 1157 q 386 1111 399 1124 q 357 1099 374 1099 q 328 1111 340 1099 q 315 1140 315 1124 z "},"ė":{"ha":872,"x_min":83,"x_max":789,"o":"m 444 15 q 657 79 571 15 q 761 254 743 143 l 789 254 q 678 63 769 136 q 444 -10 588 -10 q 258 36 340 -10 q 130 169 176 82 q 83 375 83 257 q 130 581 83 493 q 258 714 176 668 q 444 760 340 760 q 632 713 554 760 q 749 593 710 667 q 789 438 789 519 q 783 363 789 396 l 111 363 q 159 169 113 247 q 281 53 206 92 q 444 15 356 15 m 444 735 q 281 697 356 735 q 159 581 206 658 q 111 388 113 503 l 764 388 q 727 581 771 503 q 608 697 683 658 q 444 735 532 735 m 394 913 q 407 942 394 929 q 436 954 419 954 q 465 942 453 954 q 478 913 478 929 q 465 883 478 896 q 436 871 453 871 q 407 883 419 871 q 394 913 394 896 z "},"Ę":{"ha":665,"x_min":118,"x_max":651,"o":"m 146 953 l 146 501 l 554 501 l 554 476 l 146 476 l 146 25 l 596 25 l 596 0 l 118 0 l 118 978 l 596 978 l 596 953 l 146 953 m 596 3 l 596 -25 l 557 -25 q 460 -53 496 -25 q 425 -129 425 -81 q 460 -206 425 -178 q 557 -233 496 -233 l 651 -233 l 651 -261 l 557 -261 q 438 -224 479 -261 q 397 -129 397 -187 q 438 -34 397 -71 q 557 3 479 3 l 596 3 z "},"ę":{"ha":872,"x_min":83,"x_max":789,"o":"m 444 15 q 657 79 571 15 q 761 254 743 143 l 789 254 q 694 76 772 147 q 494 -7 615 6 q 468 -17 475 -8 q 461 -44 461 -26 q 497 -109 461 -83 q 593 -135 533 -135 l 688 -135 l 688 -162 l 593 -162 q 474 -126 515 -162 q 433 -31 433 -89 l 433 -10 q 252 40 332 -7 q 128 172 172 86 q 83 375 83 258 q 130 581 83 493 q 258 714 176 668 q 444 760 340 760 q 632 713 554 760 q 749 593 710 667 q 789 438 789 519 q 783 363 789 396 l 111 363 q 159 169 113 247 q 281 53 206 92 q 444 15 356 15 m 444 735 q 281 697 356 735 q 159 581 206 658 q 111 388 113 503 l 764 388 q 727 581 771 503 q 608 697 683 658 q 444 735 532 735 z "},"Ě":{"ha":665,"x_min":118,"x_max":596,"o":"m 146 953 l 146 501 l 554 501 l 554 476 l 146 476 l 146 25 l 596 25 l 596 0 l 118 0 l 118 978 l 596 978 l 596 953 l 146 953 m 529 1197 l 358 1085 l 186 1197 l 186 1225 l 358 1113 l 529 1225 l 529 1197 z "},"ě":{"ha":872,"x_min":83,"x_max":789,"o":"m 444 15 q 657 79 571 15 q 761 254 743 143 l 789 254 q 678 63 769 136 q 444 -10 588 -10 q 258 36 340 -10 q 130 169 176 82 q 83 375 83 257 q 130 581 83 493 q 258 714 176 668 q 444 760 340 760 q 632 713 554 760 q 749 593 710 667 q 789 438 789 519 q 783 363 789 396 l 111 363 q 159 169 113 247 q 281 53 206 92 q 444 15 356 15 m 444 735 q 281 697 356 735 q 159 581 206 658 q 111 388 113 503 l 764 388 q 727 581 771 503 q 608 697 683 658 q 444 735 532 735 m 608 969 l 438 857 l 265 969 l 265 997 l 438 885 l 608 997 l 608 969 z "},"Ğ":{"ha":1100,"x_min":83,"x_max":1017,"o":"m 550 986 q 821 906 708 986 q 985 688 933 825 l 957 688 q 805 885 913 810 q 550 961 697 961 q 328 903 428 961 q 170 738 228 846 q 113 488 113 631 q 170 237 113 344 q 328 72 228 129 q 550 14 428 14 q 769 69 669 14 q 928 230 868 125 q 990 474 988 335 l 529 474 l 529 499 l 1017 499 l 1017 488 q 957 229 1017 343 q 791 52 897 115 q 550 -11 685 -11 q 309 52 415 -11 q 143 229 203 115 q 83 488 83 343 q 143 746 83 632 q 309 923 203 860 q 550 986 415 986 m 550 1083 q 427 1127 468 1083 q 386 1228 386 1171 l 386 1233 l 414 1233 q 449 1141 414 1174 q 550 1108 485 1108 q 651 1141 615 1108 q 686 1233 686 1174 l 714 1233 l 714 1228 q 673 1127 714 1171 q 550 1083 632 1083 z "},"ğ":{"ha":932,"x_min":83,"x_max":814,"o":"m 449 760 q 667 690 578 760 q 788 508 757 621 l 788 750 l 814 750 l 814 -28 q 768 -209 814 -132 q 647 -326 722 -286 q 482 -367 571 -367 q 256 -301 346 -367 q 133 -122 167 -235 l 161 -122 q 274 -283 193 -224 q 482 -342 356 -342 q 638 -303 568 -342 q 747 -193 707 -264 q 788 -28 788 -122 l 788 242 q 667 60 757 129 q 449 -10 578 -10 q 258 37 342 -10 q 129 170 175 83 q 83 375 83 257 q 129 580 83 493 q 258 713 175 667 q 449 760 342 760 m 449 735 q 270 692 346 735 q 153 567 194 649 q 111 375 111 486 q 153 183 111 264 q 270 58 194 101 q 449 15 346 15 q 623 60 546 15 q 744 187 700 106 q 788 375 788 268 q 744 563 788 482 q 623 690 700 644 q 449 735 546 735 m 449 856 q 326 899 367 856 q 285 1000 285 943 l 285 1006 l 313 1006 q 348 913 313 946 q 449 881 383 881 q 549 913 514 881 q 585 1006 585 946 l 613 1006 l 613 1000 q 572 899 613 943 q 449 856 531 856 z "},"Ġ":{"ha":1100,"x_min":83,"x_max":1017,"o":"m 550 986 q 821 906 708 986 q 985 688 933 825 l 957 688 q 805 885 913 810 q 550 961 697 961 q 328 903 428 961 q 170 738 228 846 q 113 488 113 631 q 170 237 113 344 q 328 72 228 129 q 550 14 428 14 q 769 69 669 14 q 928 230 868 125 q 990 474 988 335 l 529 474 l 529 499 l 1017 499 l 1017 488 q 957 229 1017 343 q 791 52 897 115 q 550 -11 685 -11 q 309 52 415 -11 q 143 229 203 115 q 83 488 83 343 q 143 746 83 632 q 309 923 203 860 q 550 986 415 986 m 508 1140 q 521 1169 508 1157 q 550 1182 533 1182 q 579 1169 567 1182 q 592 1140 592 1157 q 579 1111 592 1124 q 550 1099 567 1099 q 521 1111 533 1099 q 508 1140 508 1124 z "},"ġ":{"ha":932,"x_min":83,"x_max":814,"o":"m 449 760 q 667 690 578 760 q 788 508 757 621 l 788 750 l 814 750 l 814 -28 q 768 -209 814 -132 q 647 -326 722 -286 q 482 -367 571 -367 q 256 -301 346 -367 q 133 -122 167 -235 l 161 -122 q 274 -283 193 -224 q 482 -342 356 -342 q 638 -303 568 -342 q 747 -193 707 -264 q 788 -28 788 -122 l 788 242 q 667 60 757 129 q 449 -10 578 -10 q 258 37 342 -10 q 129 170 175 83 q 83 375 83 257 q 129 580 83 493 q 258 713 175 667 q 449 760 342 760 m 449 735 q 270 692 346 735 q 153 567 194 649 q 111 375 111 486 q 153 183 111 264 q 270 58 194 101 q 449 15 346 15 q 623 60 546 15 q 744 187 700 106 q 788 375 788 268 q 744 563 788 482 q 623 690 700 644 q 449 735 546 735 m 407 913 q 419 942 407 929 q 449 954 432 954 q 478 942 465 954 q 490 913 490 929 q 478 883 490 896 q 449 871 465 871 q 419 883 432 871 q 407 913 407 896 z "},"Ģ":{"ha":1100,"x_min":83,"x_max":1017,"o":"m 550 986 q 821 906 708 986 q 985 688 933 825 l 957 688 q 805 885 913 810 q 550 961 697 961 q 328 903 428 961 q 170 738 228 846 q 113 488 113 631 q 170 237 113 344 q 328 72 228 129 q 550 14 428 14 q 769 69 669 14 q 928 230 868 125 q 990 474 988 335 l 529 474 l 529 499 l 1017 499 l 1017 488 q 957 229 1017 343 q 791 52 897 115 q 550 -11 685 -11 q 309 52 415 -11 q 143 229 203 115 q 83 488 83 343 q 143 746 83 632 q 309 923 203 860 q 550 986 415 986 m 594 -82 q 597 -125 597 -107 q 574 -219 597 -193 q 507 -244 550 -244 l 507 -219 q 567 -144 567 -219 l 567 -135 l 524 -135 l 524 -82 l 594 -82 z "},"ģ":{"ha":932,"x_min":83,"x_max":814,"o":"m 408 824 q 403 919 403 878 q 426 1004 403 981 q 496 1028 450 1028 l 496 1000 q 447 985 461 1000 q 433 938 433 969 l 433 897 l 486 897 l 486 824 l 408 824 m 449 760 q 667 690 578 760 q 788 508 757 621 l 788 750 l 814 750 l 814 -28 q 768 -209 814 -132 q 647 -326 722 -286 q 482 -367 571 -367 q 256 -301 346 -367 q 133 -122 167 -235 l 161 -122 q 274 -283 193 -224 q 482 -342 356 -342 q 638 -303 568 -342 q 747 -193 707 -264 q 788 -28 788 -122 l 788 242 q 667 60 757 129 q 449 -10 578 -10 q 258 37 342 -10 q 129 170 175 83 q 83 375 83 257 q 129 580 83 493 q 258 713 175 667 q 449 760 342 760 m 449 735 q 270 692 346 735 q 153 567 194 649 q 111 375 111 486 q 153 183 111 264 q 270 58 194 101 q 449 15 346 15 q 623 60 546 15 q 744 187 700 106 q 788 375 788 268 q 744 563 788 482 q 623 690 700 644 q 449 735 546 735 z "},"Ĩ":{"ha":264,"x_min":-28,"x_max":292,"o":"m 146 978 l 146 0 l 118 0 l 118 978 l 146 978 m 56 1158 q 96 1149 79 1158 q 133 1122 113 1140 q 169 1097 153 1106 q 206 1089 185 1089 q 246 1106 229 1089 q 267 1154 263 1124 l 292 1154 q 265 1090 289 1117 q 206 1064 240 1064 q 163 1074 181 1064 q 122 1101 144 1083 q 88 1126 101 1118 q 56 1133 74 1133 q -3 1067 6 1133 l -28 1067 q -1 1134 -22 1110 q 56 1158 21 1158 z "},"ĩ":{"ha":264,"x_min":-28,"x_max":292,"o":"m 146 750 l 146 0 l 118 0 l 118 750 l 146 750 m 56 931 q 96 922 79 931 q 133 894 113 913 q 169 869 153 878 q 206 861 185 861 q 246 878 229 861 q 267 926 263 896 l 292 926 q 265 863 289 889 q 206 836 240 836 q 163 846 181 836 q 122 874 144 856 q 88 898 101 890 q 56 906 74 906 q -3 839 6 906 l -28 839 q -1 906 -22 882 q 56 931 21 931 z "},"Ī":{"ha":264,"x_min":-82,"x_max":347,"o":"m 146 978 l 146 0 l 118 0 l 118 978 l 146 978 m 347 1168 l 347 1143 l -82 1143 l -82 1168 l 347 1168 z "},"ī":{"ha":264,"x_min":-82,"x_max":347,"o":"m 146 750 l 146 0 l 118 0 l 118 750 l 146 750 m 347 940 l 347 915 l -82 915 l -82 940 l 347 940 z "},"Ĭ":{"ha":264,"x_min":-32,"x_max":296,"o":"m 146 978 l 146 0 l 118 0 l 118 978 l 146 978 m 132 1083 q 9 1127 50 1083 q -32 1228 -32 1171 l -32 1233 l -4 1233 q 31 1141 -4 1174 q 132 1108 67 1108 q 233 1141 197 1108 q 268 1233 268 1174 l 296 1233 l 296 1228 q 255 1127 296 1171 q 132 1083 214 1083 z "},"ĭ":{"ha":264,"x_min":-32,"x_max":296,"o":"m 146 750 l 146 0 l 118 0 l 118 750 l 146 750 m 132 856 q 9 899 50 856 q -32 1000 -32 943 l -32 1006 l -4 1006 q 31 913 -4 946 q 132 881 67 881 q 233 913 197 881 q 268 1006 268 946 l 296 1006 l 296 1000 q 255 899 296 943 q 132 856 214 856 z "},"Į":{"ha":264,"x_min":-53,"x_max":201,"o":"m 146 978 l 146 0 l 118 0 l 118 978 l 146 978 m 146 3 l 146 -25 l 107 -25 q 10 -53 46 -25 q -25 -129 -25 -81 q 10 -206 -25 -178 q 107 -233 46 -233 l 201 -233 l 201 -261 l 107 -261 q -12 -224 29 -261 q -53 -129 -53 -187 q -12 -34 -53 -71 q 107 3 29 3 l 146 3 z "},"į":{"ha":264,"x_min":-53,"x_max":201,"o":"m 96 979 q 106 1006 96 996 q 132 1017 117 1017 q 158 1006 147 1017 q 168 979 168 996 q 158 952 168 963 q 132 942 147 942 q 106 952 117 942 q 96 979 96 963 m 146 750 l 146 0 l 118 0 l 118 750 l 146 750 m 146 3 l 146 -25 l 107 -25 q 10 -53 46 -25 q -25 -129 -25 -81 q 10 -206 -25 -178 q 107 -233 46 -233 l 201 -233 l 201 -261 l 107 -261 q -12 -224 29 -261 q -53 -129 -53 -187 q -12 -34 -53 -71 q 107 3 29 3 l 146 3 z "},"İ":{"ha":264,"x_min":90,"x_max":174,"o":"m 146 978 l 146 0 l 118 0 l 118 978 l 146 978 m 90 1140 q 103 1169 90 1157 q 132 1182 115 1182 q 161 1169 149 1182 q 174 1140 174 1157 q 161 1111 174 1124 q 132 1099 149 1099 q 103 1111 115 1099 q 90 1140 90 1124 z "},"ı":{"ha":264,"x_min":118,"x_max":146,"o":"m 146 750 l 146 0 l 118 0 l 118 750 l 146 750 z "},"Ķ":{"ha":686,"x_min":118,"x_max":658,"o":"m 163 489 l 658 0 l 621 0 l 146 467 l 146 0 l 118 0 l 118 978 l 146 978 l 146 508 l 621 978 l 658 978 l 163 489 m 372 -82 q 375 -125 375 -107 q 351 -219 375 -193 q 285 -244 328 -244 l 285 -219 q 344 -144 344 -219 l 344 -135 l 301 -135 l 301 -82 l 372 -82 z "},"ķ":{"ha":549,"x_min":118,"x_max":535,"o":"m 535 0 l 492 0 l 146 351 l 146 0 l 118 0 l 118 1028 l 146 1028 l 146 407 l 483 750 l 525 750 l 158 381 l 535 0 m 317 -82 q 319 -125 319 -107 q 296 -219 319 -193 q 229 -244 272 -244 l 229 -219 q 289 -144 289 -219 l 289 -135 l 246 -135 l 246 -82 l 317 -82 z "},"Ĺ":{"ha":549,"x_min":118,"x_max":521,"o":"m 146 25 l 521 25 l 521 0 l 118 0 l 118 978 l 146 978 l 146 25 m 378 1222 l 118 1042 l 118 1069 l 378 1256 l 378 1222 z "},"ĺ":{"ha":264,"x_min":118,"x_max":378,"o":"m 146 1028 l 146 0 l 118 0 l 118 1028 l 146 1028 m 378 1272 l 118 1092 l 118 1119 l 378 1306 l 378 1272 z "},"Ļ":{"ha":549,"x_min":118,"x_max":521,"o":"m 146 25 l 521 25 l 521 0 l 118 0 l 118 978 l 146 978 l 146 25 m 358 -82 q 361 -125 361 -107 q 338 -219 361 -193 q 271 -244 314 -244 l 271 -219 q 331 -144 331 -219 l 331 -135 l 288 -135 l 288 -82 l 358 -82 z "},"ļ":{"ha":264,"x_min":76,"x_max":167,"o":"m 146 1028 l 146 0 l 118 0 l 118 1028 l 146 1028 m 164 -82 q 167 -125 167 -107 q 143 -219 167 -193 q 76 -244 119 -244 l 76 -219 q 136 -144 136 -219 l 136 -135 l 93 -135 l 93 -82 l 164 -82 z "},"Ľ":{"ha":549,"x_min":118,"x_max":521,"o":"m 146 25 l 521 25 l 521 0 l 118 0 l 118 978 l 146 978 l 146 25 m 400 978 q 406 882 406 924 q 382 797 406 821 q 313 774 358 774 l 313 801 q 361 817 347 801 q 375 864 375 832 l 375 904 l 322 904 l 322 978 l 400 978 z "},"ľ":{"ha":264,"x_min":118,"x_max":308,"o":"m 146 1028 l 146 0 l 118 0 l 118 1028 l 146 1028 m 303 1028 q 308 932 308 974 q 285 847 308 871 q 215 824 261 824 l 215 851 q 264 867 250 851 q 278 914 278 882 l 278 954 l 225 954 l 225 1028 l 303 1028 z "},"Ŀ":{"ha":549,"x_min":118,"x_max":521,"o":"m 146 25 l 521 25 l 521 0 l 118 0 l 118 978 l 146 978 l 146 25 m 438 489 q 450 518 438 506 q 479 531 463 531 q 508 518 496 531 q 521 489 521 506 q 508 460 521 472 q 479 447 496 447 q 450 460 463 447 q 438 489 438 472 z "},"ŀ":{"ha":264,"x_min":118,"x_max":306,"o":"m 146 1028 l 146 0 l 118 0 l 118 1028 l 146 1028 m 222 514 q 235 543 222 531 q 264 556 247 556 q 293 543 281 556 q 306 514 306 531 q 293 485 306 497 q 264 472 281 472 q 235 485 247 472 q 222 514 222 497 z "},"Ł":{"ha":576,"x_min":14,"x_max":549,"o":"m 549 25 l 549 0 l 146 0 l 146 496 l 14 433 l 14 464 l 146 526 l 146 978 l 174 978 l 174 539 l 397 644 l 397 614 l 174 508 l 174 25 l 549 25 z "},"ł":{"ha":292,"x_min":14,"x_max":278,"o":"m 278 738 l 160 669 l 160 0 l 132 0 l 132 654 l 14 586 l 14 613 l 132 681 l 132 1028 l 160 1028 l 160 696 l 278 764 l 278 738 z "},"Ń":{"ha":899,"x_min":118,"x_max":781,"o":"m 781 0 l 753 0 l 146 926 l 146 0 l 118 0 l 118 976 l 146 976 l 753 51 l 753 976 l 781 976 l 781 0 m 704 1222 l 444 1042 l 444 1069 l 704 1256 l 704 1222 z "},"ń":{"ha":853,"x_min":118,"x_max":742,"o":"m 440 767 q 657 685 572 767 q 742 438 742 603 l 742 0 l 715 0 l 715 440 q 642 665 715 588 q 440 742 568 742 q 226 655 307 742 q 146 399 146 568 l 146 0 l 118 0 l 118 750 l 146 750 l 146 539 q 253 710 172 653 q 440 767 335 767 m 685 994 l 425 814 l 425 842 l 685 1028 l 685 994 z "},"Ņ":{"ha":899,"x_min":118,"x_max":781,"o":"m 781 0 l 753 0 l 146 926 l 146 0 l 118 0 l 118 976 l 146 976 l 753 51 l 753 976 l 781 976 l 781 0 m 483 -82 q 486 -125 486 -107 q 463 -219 486 -193 q 396 -244 439 -244 l 396 -219 q 456 -144 456 -219 l 456 -135 l 413 -135 l 413 -82 l 483 -82 z "},"ņ":{"ha":853,"x_min":118,"x_max":742,"o":"m 440 767 q 657 685 572 767 q 742 438 742 603 l 742 0 l 715 0 l 715 440 q 642 665 715 588 q 440 742 568 742 q 226 655 307 742 q 146 399 146 568 l 146 0 l 118 0 l 118 750 l 146 750 l 146 539 q 253 710 172 653 q 440 767 335 767 m 469 -82 q 472 -125 472 -107 q 449 -219 472 -193 q 382 -244 425 -244 l 382 -219 q 442 -144 442 -219 l 442 -135 l 399 -135 l 399 -82 l 469 -82 z "},"Ň":{"ha":899,"x_min":118,"x_max":781,"o":"m 781 0 l 753 0 l 146 926 l 146 0 l 118 0 l 118 976 l 146 976 l 753 51 l 753 976 l 781 976 l 781 0 m 621 1197 l 450 1085 l 278 1197 l 278 1225 l 450 1113 l 621 1225 l 621 1197 z "},"ň":{"ha":853,"x_min":118,"x_max":742,"o":"m 440 767 q 657 685 572 767 q 742 438 742 603 l 742 0 l 715 0 l 715 440 q 642 665 715 588 q 440 742 568 742 q 226 655 307 742 q 146 399 146 568 l 146 0 l 118 0 l 118 750 l 146 750 l 146 539 q 253 710 172 653 q 440 767 335 767 m 601 969 l 431 857 l 258 969 l 258 997 l 431 885 l 601 997 l 601 969 z "},"Ō":{"ha":1100,"x_min":83,"x_max":1017,"o":"m 550 986 q 791 923 685 986 q 957 746 897 860 q 1017 488 1017 632 q 957 229 1017 343 q 791 52 897 115 q 550 -11 685 -11 q 309 52 415 -11 q 143 229 203 115 q 83 488 83 343 q 143 746 83 632 q 309 923 203 860 q 550 986 415 986 m 550 961 q 328 903 428 961 q 170 738 228 846 q 113 488 113 631 q 170 237 113 344 q 328 72 228 129 q 550 14 428 14 q 772 72 672 14 q 930 237 872 129 q 988 488 988 344 q 930 738 988 631 q 772 903 872 846 q 550 961 672 961 m 765 1168 l 765 1143 l 336 1143 l 336 1168 l 765 1168 z "},"ō":{"ha":899,"x_min":83,"x_max":815,"o":"m 450 760 q 638 713 554 760 q 768 580 721 667 q 815 375 815 493 q 768 170 815 257 q 638 37 721 83 q 450 -10 554 -10 q 263 37 346 -10 q 131 170 179 83 q 83 375 83 257 q 131 580 83 493 q 263 713 179 667 q 450 760 346 760 m 450 735 q 283 695 360 735 q 158 574 206 656 q 111 375 111 493 q 158 176 111 257 q 283 55 206 94 q 450 15 360 15 q 617 55 540 15 q 740 175 693 94 q 788 375 788 256 q 740 575 788 494 q 617 695 693 656 q 450 735 540 735 m 664 940 l 664 915 l 235 915 l 235 940 l 664 940 z "},"Ŏ":{"ha":1100,"x_min":83,"x_max":1017,"o":"m 550 986 q 791 923 685 986 q 957 746 897 860 q 1017 488 1017 632 q 957 229 1017 343 q 791 52 897 115 q 550 -11 685 -11 q 309 52 415 -11 q 143 229 203 115 q 83 488 83 343 q 143 746 83 632 q 309 923 203 860 q 550 986 415 986 m 550 961 q 328 903 428 961 q 170 738 228 846 q 113 488 113 631 q 170 237 113 344 q 328 72 228 129 q 550 14 428 14 q 772 72 672 14 q 930 237 872 129 q 988 488 988 344 q 930 738 988 631 q 772 903 872 846 q 550 961 672 961 m 550 1083 q 427 1127 468 1083 q 386 1228 386 1171 l 386 1233 l 414 1233 q 449 1141 414 1174 q 550 1108 485 1108 q 651 1141 615 1108 q 686 1233 686 1174 l 714 1233 l 714 1228 q 673 1127 714 1171 q 550 1083 632 1083 z "},"ŏ":{"ha":899,"x_min":83,"x_max":815,"o":"m 450 760 q 638 713 554 760 q 768 580 721 667 q 815 375 815 493 q 768 170 815 257 q 638 37 721 83 q 450 -10 554 -10 q 263 37 346 -10 q 131 170 179 83 q 83 375 83 257 q 131 580 83 493 q 263 713 179 667 q 450 760 346 760 m 450 735 q 283 695 360 735 q 158 574 206 656 q 111 375 111 493 q 158 176 111 257 q 283 55 206 94 q 450 15 360 15 q 617 55 540 15 q 740 175 693 94 q 788 375 788 256 q 740 575 788 494 q 617 695 693 656 q 450 735 540 735 m 449 856 q 326 899 367 856 q 285 1000 285 943 l 285 1006 l 313 1006 q 348 913 313 946 q 449 881 383 881 q 549 913 514 881 q 585 1006 585 946 l 613 1006 l 613 1000 q 572 899 613 943 q 449 856 531 856 z "},"Ő":{"ha":1100,"x_min":83,"x_max":1017,"o":"m 550 986 q 791 923 685 986 q 957 746 897 860 q 1017 488 1017 632 q 957 229 1017 343 q 791 52 897 115 q 550 -11 685 -11 q 309 52 415 -11 q 143 229 203 115 q 83 488 83 343 q 143 746 83 632 q 309 923 203 860 q 550 986 415 986 m 550 961 q 328 903 428 961 q 170 738 228 846 q 113 488 113 631 q 170 237 113 344 q 328 72 228 129 q 550 14 428 14 q 772 72 672 14 q 930 237 872 129 q 988 488 988 344 q 930 738 988 631 q 772 903 872 846 q 550 961 672 961 m 481 1063 l 453 1063 l 536 1207 l 568 1207 l 481 1063 m 636 1063 l 608 1063 l 699 1207 l 731 1207 l 636 1063 z "},"ő":{"ha":899,"x_min":83,"x_max":815,"o":"m 450 760 q 638 713 554 760 q 768 580 721 667 q 815 375 815 493 q 768 170 815 257 q 638 37 721 83 q 450 -10 554 -10 q 263 37 346 -10 q 131 170 179 83 q 83 375 83 257 q 131 580 83 493 q 263 713 179 667 q 450 760 346 760 m 450 735 q 283 695 360 735 q 158 574 206 656 q 111 375 111 493 q 158 176 111 257 q 283 55 206 94 q 450 15 360 15 q 617 55 540 15 q 740 175 693 94 q 788 375 788 256 q 740 575 788 494 q 617 695 693 656 q 450 735 540 735 m 379 835 l 351 835 l 435 979 l 467 979 l 379 835 m 535 835 l 507 835 l 597 979 l 629 979 l 535 835 z "},"Œ":{"ha":1536,"x_min":83,"x_max":1467,"o":"m 1017 501 l 1425 501 l 1425 476 l 1017 476 l 1017 25 l 1467 25 l 1467 0 l 989 0 l 989 333 q 904 153 967 231 q 749 32 842 75 q 550 -11 657 -11 q 309 52 415 -11 q 143 229 203 115 q 83 488 83 343 q 143 746 83 632 q 309 923 203 860 q 550 986 415 986 q 749 943 657 986 q 904 822 842 900 q 989 642 967 744 l 989 978 l 1467 978 l 1467 953 l 1017 953 l 1017 501 m 550 14 q 772 72 672 14 q 930 237 872 129 q 988 488 988 344 q 930 738 988 631 q 772 903 872 846 q 550 961 672 961 q 328 903 428 961 q 170 738 228 846 q 113 488 113 631 q 170 237 113 344 q 328 72 228 129 q 550 14 428 14 z "},"œ":{"ha":1576,"x_min":83,"x_max":1493,"o":"m 1149 15 q 1361 79 1275 15 q 1465 254 1447 143 l 1493 254 q 1383 63 1474 136 q 1149 -10 1292 -10 q 925 60 1018 -10 q 801 257 832 131 q 675 60 769 131 q 450 -10 581 -10 q 263 37 346 -10 q 131 170 179 83 q 83 375 83 257 q 131 580 83 493 q 263 713 179 667 q 450 760 346 760 q 675 690 581 760 q 801 493 769 619 q 925 690 832 619 q 1149 760 1018 760 q 1336 713 1258 760 q 1453 593 1414 667 q 1493 438 1493 519 q 1488 363 1493 396 l 815 363 q 863 169 817 247 q 985 53 910 92 q 1149 15 1060 15 m 450 15 q 617 55 540 15 q 740 175 693 94 q 788 375 788 256 q 740 575 788 494 q 617 695 693 656 q 450 735 540 735 q 283 695 360 735 q 158 574 206 656 q 111 375 111 493 q 158 176 111 257 q 283 55 206 94 q 450 15 360 15 m 1149 735 q 985 697 1060 735 q 863 581 910 658 q 815 388 817 503 l 1468 388 q 1431 581 1475 503 q 1312 697 1388 658 q 1149 735 1236 735 z "},"Ŕ":{"ha":743,"x_min":118,"x_max":688,"o":"m 653 0 l 354 426 l 146 426 l 146 0 l 118 0 l 118 978 l 365 978 q 601 904 525 978 q 678 701 678 831 q 603 501 678 571 q 386 426 529 432 l 688 0 l 653 0 m 146 456 l 365 456 q 650 701 650 456 q 583 885 650 821 q 365 950 517 950 l 146 950 l 146 456 m 658 1222 l 399 1042 l 399 1069 l 658 1256 l 658 1222 z "},"ŕ":{"ha":469,"x_min":118,"x_max":535,"o":"m 146 568 q 442 767 190 767 l 442 736 l 429 736 q 228 667 311 736 q 146 446 146 599 l 146 0 l 118 0 l 118 750 l 146 750 l 146 568 m 535 994 l 275 814 l 275 842 l 535 1028 l 535 994 z "},"Ŗ":{"ha":743,"x_min":118,"x_max":688,"o":"m 688 0 l 653 0 l 354 426 l 146 426 l 146 0 l 118 0 l 118 978 l 365 978 q 601 904 525 978 q 678 701 678 831 q 603 501 678 571 q 386 426 529 432 l 688 0 m 146 456 l 365 456 q 650 701 650 456 q 583 885 650 821 q 365 950 517 950 l 146 950 l 146 456 m 400 -82 q 403 -125 403 -107 q 379 -219 403 -193 q 313 -244 356 -244 l 313 -219 q 372 -144 372 -219 l 372 -135 l 329 -135 l 329 -82 l 400 -82 z "},"ŗ":{"ha":469,"x_min":76,"x_max":442,"o":"m 146 568 q 442 767 190 767 l 442 736 l 429 736 q 228 667 311 736 q 146 446 146 599 l 146 0 l 118 0 l 118 750 l 146 750 l 146 568 m 164 -82 q 167 -125 167 -107 q 143 -219 167 -193 q 76 -244 119 -244 l 76 -219 q 136 -144 136 -219 l 136 -135 l 93 -135 l 93 -82 l 164 -82 z "},"Ř":{"ha":743,"x_min":118,"x_max":688,"o":"m 653 0 l 354 426 l 146 426 l 146 0 l 118 0 l 118 978 l 365 978 q 601 904 525 978 q 678 701 678 831 q 603 501 678 571 q 386 426 529 432 l 688 0 l 653 0 m 146 456 l 365 456 q 650 701 650 456 q 583 885 650 821 q 365 950 517 950 l 146 950 l 146 456 m 575 1197 l 404 1085 l 232 1197 l 232 1225 l 404 1113 l 575 1225 l 575 1197 z "},"ř":{"ha":469,"x_min":108,"x_max":451,"o":"m 146 568 q 442 767 190 767 l 442 736 l 429 736 q 228 667 311 736 q 146 446 146 599 l 146 0 l 118 0 l 118 750 l 146 750 l 146 568 m 451 969 l 281 857 l 108 969 l 108 997 l 281 885 l 451 997 l 451 969 z "},"Ś":{"ha":744,"x_min":83,"x_max":661,"o":"m 661 235 q 634 118 661 174 q 547 26 607 63 q 396 -10 488 -10 q 241 25 308 -10 q 134 115 174 60 q 88 235 94 171 l 115 235 q 153 137 122 188 q 246 51 185 86 q 396 15 307 15 q 572 78 511 15 q 633 235 633 140 q 597 364 633 315 q 506 438 560 413 q 363 489 453 463 q 215 541 271 515 q 122 617 160 567 q 83 754 83 668 q 152 922 83 856 q 347 988 221 988 q 546 924 472 988 q 638 776 619 860 l 610 776 q 569 860 600 818 q 483 933 539 903 q 347 963 428 963 q 176 908 240 963 q 111 754 111 853 q 147 632 111 678 q 233 563 182 586 q 375 513 285 539 q 525 460 468 486 q 622 379 582 433 q 661 235 661 325 m 628 1222 l 368 1042 l 368 1069 l 628 1256 l 628 1222 z "},"ś":{"ha":671,"x_min":83,"x_max":590,"o":"m 319 760 q 500 699 431 760 q 582 531 569 638 l 554 531 q 485 676 544 617 q 319 735 425 735 q 173 688 226 735 q 119 565 119 642 q 149 476 119 508 q 222 427 179 443 q 340 393 265 411 q 471 355 422 374 q 553 295 519 336 q 588 185 588 254 q 527 44 588 99 q 369 -10 467 -10 q 173 52 250 -10 q 83 219 96 114 l 111 219 q 187 74 119 132 q 371 15 254 15 q 510 63 460 15 q 560 185 560 110 q 529 280 560 244 q 453 333 499 315 q 332 367 407 350 q 205 403 253 385 q 124 460 157 422 q 92 565 92 499 q 154 707 92 654 q 319 760 217 760 m 590 994 l 331 814 l 331 842 l 590 1028 l 590 994 z "},"Ş":{"ha":744,"x_min":83,"x_max":661,"o":"m 661 235 q 634 118 661 174 q 547 26 607 63 q 396 -10 488 -10 q 241 25 308 -10 q 134 115 174 60 q 88 235 94 171 l 115 235 q 153 137 122 188 q 246 51 185 86 q 396 15 307 15 q 572 78 511 15 q 633 235 633 140 q 597 364 633 315 q 506 438 560 413 q 363 489 453 463 q 215 541 271 515 q 122 617 160 567 q 83 754 83 668 q 152 922 83 856 q 347 988 221 988 q 546 924 472 988 q 638 776 619 860 l 610 776 q 569 860 600 818 q 483 933 539 903 q 347 963 428 963 q 176 908 240 963 q 111 754 111 853 q 147 632 111 678 q 233 563 182 586 q 375 513 285 539 q 525 460 468 486 q 622 379 582 433 q 661 235 661 325 m 385 -124 q 515 -147 469 -118 q 560 -233 560 -176 q 522 -320 560 -287 q 413 -353 483 -353 l 325 -353 l 325 -325 l 408 -325 q 532 -233 532 -325 q 503 -172 532 -196 q 408 -149 474 -149 l 357 -149 l 357 10 l 385 10 l 385 -124 z "},"ş":{"ha":671,"x_min":83,"x_max":588,"o":"m 319 760 q 500 699 431 760 q 582 531 569 638 l 554 531 q 485 676 544 617 q 319 735 425 735 q 173 688 226 735 q 119 565 119 642 q 149 476 119 508 q 222 427 179 443 q 340 393 265 411 q 471 355 422 374 q 553 295 519 336 q 588 185 588 254 q 527 44 588 99 q 369 -10 467 -10 q 173 52 250 -10 q 83 219 96 114 l 111 219 q 187 74 119 132 q 371 15 254 15 q 510 63 460 15 q 560 185 560 110 q 529 280 560 244 q 453 333 499 315 q 332 367 407 350 q 205 403 253 385 q 124 460 157 422 q 92 565 92 499 q 154 707 92 654 q 319 760 217 760 m 347 -124 q 477 -147 432 -118 q 522 -233 522 -176 q 484 -320 522 -287 q 375 -353 446 -353 l 288 -353 l 288 -325 l 371 -325 q 494 -233 494 -325 q 465 -172 494 -196 q 371 -149 436 -149 l 319 -149 l 319 10 l 347 10 l 347 -124 z "},"Š":{"ha":744,"x_min":83,"x_max":661,"o":"m 661 235 q 634 118 661 174 q 547 26 607 63 q 396 -10 488 -10 q 241 25 308 -10 q 134 115 174 60 q 88 235 94 171 l 115 235 q 153 137 122 188 q 246 51 185 86 q 396 15 307 15 q 572 78 511 15 q 633 235 633 140 q 597 364 633 315 q 506 438 560 413 q 363 489 453 463 q 215 541 271 515 q 122 617 160 567 q 83 754 83 668 q 152 922 83 856 q 347 988 221 988 q 546 924 472 988 q 638 776 619 860 l 610 776 q 569 860 600 818 q 483 933 539 903 q 347 963 428 963 q 176 908 240 963 q 111 754 111 853 q 147 632 111 678 q 233 563 182 586 q 375 513 285 539 q 525 460 468 486 q 622 379 582 433 q 661 235 661 325 m 544 1197 l 374 1085 l 201 1197 l 201 1225 l 374 1113 l 544 1225 l 544 1197 z "},"š":{"ha":671,"x_min":83,"x_max":588,"o":"m 319 760 q 500 699 431 760 q 582 531 569 638 l 554 531 q 485 676 544 617 q 319 735 425 735 q 173 688 226 735 q 119 565 119 642 q 149 476 119 508 q 222 427 179 443 q 340 393 265 411 q 471 355 422 374 q 553 295 519 336 q 588 185 588 254 q 527 44 588 99 q 369 -10 467 -10 q 173 52 250 -10 q 83 219 96 114 l 111 219 q 187 74 119 132 q 371 15 254 15 q 510 63 460 15 q 560 185 560 110 q 529 280 560 244 q 453 333 499 315 q 332 367 407 350 q 205 403 253 385 q 124 460 157 422 q 92 565 92 499 q 154 707 92 654 q 319 760 217 760 m 507 969 l 336 857 l 164 969 l 164 997 l 336 885 l 507 997 l 507 969 z "},"Ţ":{"ha":653,"x_min":28,"x_max":625,"o":"m 340 953 l 340 -1 q 473 -26 431 3 q 515 -110 515 -56 q 477 -197 515 -164 q 368 -229 439 -229 l 281 -229 l 281 -201 l 364 -201 q 488 -110 488 -201 q 458 -49 488 -72 q 364 -25 429 -25 l 313 -25 l 313 953 l 28 953 l 28 978 l 625 978 l 625 953 l 340 953 z "},"ţ":{"ha":469,"x_min":28,"x_max":485,"o":"m 310 -124 q 440 -147 394 -118 q 485 -233 485 -176 q 447 -320 485 -287 q 338 -353 408 -353 l 250 -353 l 250 -325 l 333 -325 q 457 -233 457 -325 q 428 -172 457 -196 q 333 -149 399 -149 l 282 -149 l 282 3 q 181 59 213 14 q 150 197 150 104 l 150 722 l 28 722 l 28 750 l 150 750 l 150 942 l 178 942 l 178 750 l 414 750 l 414 722 l 178 722 l 178 197 q 193 93 178 129 q 242 42 208 57 q 335 28 275 28 l 414 28 l 414 0 l 332 0 l 310 0 l 310 -124 z "},"Ť":{"ha":653,"x_min":28,"x_max":625,"o":"m 625 978 l 625 953 l 340 953 l 340 0 l 313 0 l 313 953 l 28 953 l 28 978 l 625 978 m 499 1197 l 328 1085 l 156 1197 l 156 1225 l 328 1113 l 499 1225 l 499 1197 z "},"ť":{"ha":469,"x_min":28,"x_max":414,"o":"m 364 932 q 340 847 364 871 q 271 824 317 824 l 271 851 q 319 867 306 851 q 333 914 333 882 l 333 954 l 281 954 l 281 1028 l 358 1028 q 364 932 364 974 m 178 722 l 178 197 q 193 93 178 129 q 242 42 208 57 q 335 28 275 28 l 414 28 l 414 0 l 332 0 q 192 44 235 0 q 150 197 150 89 l 150 722 l 28 722 l 28 750 l 150 750 l 150 942 l 178 942 l 178 750 l 414 750 l 414 722 l 178 722 z "},"Ũ":{"ha":874,"x_min":111,"x_max":763,"o":"m 139 978 l 139 371 q 220 100 139 185 q 440 15 301 15 q 656 100 576 15 q 735 371 735 185 l 735 978 l 763 978 l 763 371 q 677 83 763 176 q 440 -10 592 -10 q 200 84 289 -10 q 111 371 111 178 l 111 978 l 139 978 m 360 1158 q 400 1149 383 1158 q 438 1122 417 1140 q 473 1097 457 1106 q 510 1089 489 1089 q 550 1106 533 1089 q 571 1154 567 1124 l 596 1154 q 569 1090 593 1117 q 510 1064 544 1064 q 467 1074 485 1064 q 426 1101 449 1083 q 392 1126 406 1118 q 360 1133 378 1133 q 301 1067 310 1133 l 276 1067 q 303 1134 282 1110 q 360 1158 325 1158 z "},"ũ":{"ha":832,"x_min":90,"x_max":714,"o":"m 714 750 l 714 0 l 686 0 l 686 211 q 578 40 660 97 q 392 -17 497 -17 q 175 65 260 -17 q 90 313 90 147 l 90 750 l 117 750 l 117 310 q 190 85 117 163 q 392 8 264 8 q 606 95 525 8 q 686 351 686 182 l 686 750 l 714 750 m 325 931 q 365 922 349 931 q 403 894 382 913 q 438 869 422 878 q 475 861 454 861 q 515 878 499 861 q 536 926 532 896 l 561 926 q 534 863 558 889 q 475 836 510 836 q 432 846 450 836 q 392 874 414 856 q 357 898 371 890 q 325 906 343 906 q 267 839 275 906 l 242 839 q 269 906 247 882 q 325 931 290 931 z "},"Ū":{"ha":874,"x_min":111,"x_max":763,"o":"m 139 978 l 139 371 q 220 100 139 185 q 440 15 301 15 q 656 100 576 15 q 735 371 735 185 l 735 978 l 763 978 l 763 371 q 677 83 763 176 q 440 -10 592 -10 q 200 84 289 -10 q 111 371 111 178 l 111 978 l 139 978 m 651 1168 l 651 1143 l 222 1143 l 222 1168 l 651 1168 z "},"ū":{"ha":832,"x_min":90,"x_max":714,"o":"m 714 750 l 714 0 l 686 0 l 686 211 q 578 40 660 97 q 392 -17 497 -17 q 175 65 260 -17 q 90 313 90 147 l 90 750 l 117 750 l 117 310 q 190 85 117 163 q 392 8 264 8 q 606 95 525 8 q 686 351 686 182 l 686 750 l 714 750 m 617 940 l 617 915 l 188 915 l 188 940 l 617 940 z "},"Ŭ":{"ha":874,"x_min":111,"x_max":763,"o":"m 139 978 l 139 371 q 220 100 139 185 q 440 15 301 15 q 656 100 576 15 q 735 371 735 185 l 735 978 l 763 978 l 763 371 q 677 83 763 176 q 440 -10 592 -10 q 200 84 289 -10 q 111 371 111 178 l 111 978 l 139 978 m 436 1083 q 313 1127 354 1083 q 272 1228 272 1171 l 272 1233 l 300 1233 q 335 1141 300 1174 q 436 1108 371 1108 q 537 1141 501 1108 q 572 1233 572 1174 l 600 1233 l 600 1228 q 559 1127 600 1171 q 436 1083 518 1083 z "},"ŭ":{"ha":832,"x_min":90,"x_max":714,"o":"m 714 750 l 714 0 l 686 0 l 686 211 q 578 40 660 97 q 392 -17 497 -17 q 175 65 260 -17 q 90 313 90 147 l 90 750 l 117 750 l 117 310 q 190 85 117 163 q 392 8 264 8 q 606 95 525 8 q 686 351 686 182 l 686 750 l 714 750 m 401 856 q 278 899 319 856 q 238 1000 238 943 l 238 1006 l 265 1006 q 301 913 265 946 q 401 881 336 881 q 502 913 467 881 q 538 1006 538 946 l 565 1006 l 565 1000 q 524 899 565 943 q 401 856 483 856 z "},"Ů":{"ha":874,"x_min":111,"x_max":763,"o":"m 139 978 l 139 371 q 220 100 139 185 q 440 15 301 15 q 656 100 576 15 q 735 371 735 185 l 735 978 l 763 978 l 763 371 q 677 83 763 176 q 440 -10 592 -10 q 200 84 289 -10 q 111 371 111 178 l 111 978 l 139 978 m 436 1332 q 525 1298 489 1332 q 561 1207 561 1264 q 525 1116 561 1150 q 436 1082 489 1082 q 347 1116 383 1082 q 311 1207 311 1150 q 347 1298 311 1264 q 436 1332 383 1332 m 436 1307 q 366 1280 393 1307 q 339 1207 339 1253 q 366 1134 339 1161 q 436 1107 393 1107 q 506 1134 479 1107 q 533 1207 533 1161 q 506 1280 533 1253 q 436 1307 479 1307 z "},"ů":{"ha":832,"x_min":90,"x_max":714,"o":"m 714 750 l 714 0 l 686 0 l 686 211 q 578 40 660 97 q 392 -17 497 -17 q 175 65 260 -17 q 90 313 90 147 l 90 750 l 117 750 l 117 310 q 190 85 117 163 q 392 8 264 8 q 606 95 525 8 q 686 351 686 182 l 686 750 l 714 750 m 401 1104 q 490 1070 454 1104 q 526 979 526 1036 q 490 888 526 922 q 401 854 454 854 q 313 888 349 854 q 276 979 276 922 q 313 1070 276 1036 q 401 1104 349 1104 m 401 1079 q 331 1052 358 1079 q 304 979 304 1025 q 331 906 304 933 q 401 879 358 879 q 472 906 444 879 q 499 979 499 933 q 472 1052 499 1025 q 401 1079 444 1079 z "},"Ű":{"ha":874,"x_min":111,"x_max":763,"o":"m 139 978 l 139 371 q 220 100 139 185 q 440 15 301 15 q 656 100 576 15 q 735 371 735 185 l 735 978 l 763 978 l 763 371 q 677 83 763 176 q 440 -10 592 -10 q 200 84 289 -10 q 111 371 111 178 l 111 978 l 139 978 m 367 1063 l 339 1063 l 422 1207 l 454 1207 l 367 1063 m 522 1063 l 494 1063 l 585 1207 l 617 1207 l 522 1063 z "},"ű":{"ha":832,"x_min":90,"x_max":714,"o":"m 714 750 l 714 0 l 686 0 l 686 211 q 578 40 660 97 q 392 -17 497 -17 q 175 65 260 -17 q 90 313 90 147 l 90 750 l 117 750 l 117 310 q 190 85 117 163 q 392 8 264 8 q 606 95 525 8 q 686 351 686 182 l 686 750 l 714 750 m 332 835 l 304 835 l 388 979 l 419 979 l 332 835 m 488 835 l 460 835 l 550 979 l 582 979 l 488 835 z "},"Ų":{"ha":874,"x_min":111,"x_max":763,"o":"m 483 -246 q 365 -209 406 -246 q 324 -114 324 -172 q 344 -47 324 -78 q 397 -7 365 -17 q 190 104 268 10 q 111 371 111 199 l 111 978 l 139 978 l 139 371 q 220 100 139 185 q 440 15 301 15 q 735 371 735 15 l 735 978 l 763 978 l 763 371 q 683 92 763 185 q 463 -10 604 0 q 381 -42 410 -14 q 351 -114 351 -69 q 387 -190 351 -162 q 483 -218 422 -218 l 578 -218 l 578 -246 l 483 -246 z "},"ų":{"ha":832,"x_min":90,"x_max":769,"o":"m 714 750 l 714 0 l 686 0 l 686 211 q 578 40 660 97 q 392 -17 497 -17 q 175 65 260 -17 q 90 313 90 147 l 90 750 l 117 750 l 117 310 q 190 85 117 163 q 392 8 264 8 q 606 95 525 8 q 686 351 686 182 l 686 750 l 714 750 m 714 3 l 714 -25 l 675 -25 q 578 -53 614 -25 q 543 -129 543 -81 q 578 -206 543 -178 q 675 -233 614 -233 l 769 -233 l 769 -261 l 675 -261 q 556 -224 597 -261 q 515 -129 515 -187 q 556 -34 515 -71 q 675 3 597 3 l 714 3 z "},"Ŵ":{"ha":1256,"x_min":49,"x_max":1207,"o":"m 1207 978 l 944 0 l 917 0 l 628 928 l 339 0 l 311 0 l 49 978 l 82 978 l 326 60 l 611 978 l 644 978 l 929 60 l 1174 978 l 1207 978 m 629 1201 l 457 1089 l 457 1117 l 629 1229 l 800 1117 l 800 1089 l 629 1201 z "},"ŵ":{"ha":1115,"x_min":28,"x_max":1088,"o":"m 1088 750 l 851 0 l 831 0 l 557 699 l 285 0 l 264 0 l 28 750 l 58 750 l 276 57 l 546 750 l 569 750 l 839 57 l 1057 750 l 1088 750 m 558 974 l 386 861 l 386 889 l 558 1001 l 729 889 l 729 861 l 558 974 z "},"Ŷ":{"ha":719,"x_min":42,"x_max":678,"o":"m 678 978 l 375 410 l 375 0 l 347 0 l 347 410 l 42 978 l 75 978 l 360 440 l 644 978 l 678 978 m 361 1201 l 189 1089 l 189 1117 l 361 1229 l 532 1117 l 532 1089 l 361 1201 z "},"ŷ":{"ha":699,"x_min":28,"x_max":671,"o":"m 58 750 l 361 40 l 640 750 l 671 750 l 243 -353 l 208 -353 l 346 -1 l 28 750 l 58 750 m 350 974 l 178 861 l 178 889 l 350 1001 l 521 889 l 521 861 l 350 974 z "},"Ÿ":{"ha":719,"x_min":42,"x_max":678,"o":"m 678 978 l 375 410 l 375 0 l 347 0 l 347 410 l 42 978 l 75 978 l 360 440 l 644 978 l 678 978 m 226 1140 q 238 1169 226 1157 q 268 1182 250 1182 q 297 1169 285 1182 q 310 1140 310 1157 q 297 1111 310 1124 q 268 1099 285 1099 q 238 1111 250 1099 q 226 1140 226 1124 m 413 1140 q 424 1169 413 1157 q 454 1182 436 1182 q 483 1169 471 1182 q 494 1140 494 1157 q 483 1111 494 1124 q 454 1099 471 1099 q 424 1111 436 1099 q 413 1140 413 1124 z "},"Ź":{"ha":676,"x_min":49,"x_max":628,"o":"m 79 26 l 628 26 l 628 0 l 49 0 l 49 26 l 585 950 l 67 950 l 67 978 l 614 978 l 614 950 l 79 26 m 593 1222 l 333 1042 l 333 1069 l 593 1256 l 593 1222 z "},"ź":{"ha":565,"x_min":42,"x_max":538,"o":"m 71 25 l 524 25 l 524 0 l 42 0 l 42 25 l 479 725 l 56 725 l 56 750 l 510 750 l 510 725 l 71 25 m 538 994 l 278 814 l 278 842 l 538 1028 l 538 994 z "},"Ż":{"ha":676,"x_min":49,"x_max":628,"o":"m 79 26 l 628 26 l 628 0 l 49 0 l 49 26 l 585 950 l 67 950 l 67 978 l 614 978 l 614 950 l 79 26 m 296 1140 q 308 1169 296 1157 q 338 1182 321 1182 q 367 1169 354 1182 q 379 1140 379 1157 q 367 1111 379 1124 q 338 1099 354 1099 q 308 1111 321 1099 q 296 1140 296 1124 z "},"ż":{"ha":565,"x_min":42,"x_max":524,"o":"m 71 25 l 524 25 l 524 0 l 42 0 l 42 25 l 479 725 l 56 725 l 56 750 l 510 750 l 510 725 l 71 25 m 240 913 q 253 942 240 929 q 282 954 265 954 q 311 942 299 954 q 324 913 324 929 q 311 883 324 896 q 282 871 299 871 q 253 883 265 871 q 240 913 240 896 z "},"Ž":{"ha":676,"x_min":49,"x_max":628,"o":"m 79 26 l 628 26 l 628 0 l 49 0 l 49 26 l 585 950 l 67 950 l 67 978 l 614 978 l 614 950 l 79 26 m 510 1197 l 339 1085 l 167 1197 l 167 1225 l 339 1113 l 510 1225 l 510 1197 z "},"ž":{"ha":565,"x_min":42,"x_max":524,"o":"m 71 25 l 524 25 l 524 0 l 42 0 l 42 25 l 479 725 l 56 725 l 56 750 l 510 750 l 510 725 l 71 25 m 454 969 l 283 857 l 111 969 l 111 997 l 283 885 l 454 997 l 454 969 z "},"ƒ":{"ha":460,"x_min":-35,"x_max":474,"o":"m 472 1021 q 314 978 369 1021 q 249 846 258 936 l 239 750 l 454 750 l 453 725 l 236 725 l 154 -47 q 115 -154 146 -119 q 7 -189 83 -189 l -35 -189 l -33 -164 l 4 -164 q 91 -140 64 -164 q 126 -47 118 -117 l 210 725 l 89 725 l 89 750 l 213 750 l 222 846 q 296 998 232 950 q 474 1046 360 1046 l 472 1021 z "},"Ǽ":{"ha":1163,"x_min":14,"x_max":1093,"o":"m 643 953 l 643 501 l 1051 501 l 1051 476 l 643 476 l 643 25 l 1093 25 l 1093 0 l 615 0 l 615 269 l 211 269 l 46 0 l 14 0 l 615 978 l 1093 978 l 1093 953 l 643 953 m 615 294 l 615 926 l 226 294 l 615 294 m 893 1222 l 633 1042 l 633 1069 l 893 1256 l 893 1222 z "},"ǽ":{"ha":1576,"x_min":83,"x_max":1493,"o":"m 1149 15 q 1361 79 1275 15 q 1465 254 1447 143 l 1493 254 q 1383 63 1474 136 q 1149 -10 1292 -10 q 933 56 1025 -10 q 814 243 842 121 l 814 0 l 788 0 l 788 242 q 667 60 757 129 q 449 -10 578 -10 q 258 37 342 -10 q 129 170 175 83 q 83 375 83 257 q 129 580 83 493 q 258 713 175 667 q 449 760 342 760 q 667 690 578 760 q 788 508 757 621 l 788 750 l 814 750 l 814 507 q 934 694 842 628 q 1149 760 1026 760 q 1336 713 1258 760 q 1453 593 1414 667 q 1493 438 1493 519 q 1488 363 1493 396 l 815 363 q 863 170 817 249 q 985 53 910 92 q 1149 15 1060 15 m 449 15 q 623 60 546 15 q 744 187 700 106 q 788 375 788 268 q 744 563 788 482 q 623 690 700 644 q 449 735 546 735 q 270 692 346 735 q 153 567 194 649 q 111 375 111 486 q 153 183 111 264 q 270 58 194 101 q 449 15 346 15 m 1149 735 q 985 697 1060 735 q 863 581 910 658 q 815 388 817 503 l 1468 388 q 1431 581 1475 503 q 1312 697 1388 658 q 1149 735 1236 735 m 1043 994 l 783 814 l 783 842 l 1043 1028 l 1043 994 z "},"Ș":{"ha":744,"x_min":83,"x_max":661,"o":"m 661 235 q 634 118 661 174 q 547 26 607 63 q 396 -10 488 -10 q 241 25 308 -10 q 134 115 174 60 q 88 235 94 171 l 115 235 q 153 137 122 188 q 246 51 185 86 q 396 15 307 15 q 572 78 511 15 q 633 235 633 140 q 597 364 633 315 q 506 438 560 413 q 363 489 453 463 q 215 541 271 515 q 122 617 160 567 q 83 754 83 668 q 152 922 83 856 q 347 988 221 988 q 546 924 472 988 q 638 776 619 860 l 610 776 q 569 860 600 818 q 483 933 539 903 q 347 963 428 963 q 176 908 240 963 q 111 754 111 853 q 147 632 111 678 q 233 563 182 586 q 375 513 285 539 q 525 460 468 486 q 622 379 582 433 q 661 235 661 325 m 442 -82 q 444 -125 444 -107 q 421 -219 444 -193 q 354 -244 397 -244 l 354 -219 q 414 -144 414 -219 l 414 -135 l 371 -135 l 371 -82 l 442 -82 z "},"ș":{"ha":671,"x_min":83,"x_max":588,"o":"m 319 760 q 500 699 431 760 q 582 531 569 638 l 554 531 q 485 676 544 617 q 319 735 425 735 q 173 688 226 735 q 119 565 119 642 q 149 476 119 508 q 222 427 179 443 q 340 393 265 411 q 471 355 422 374 q 553 295 519 336 q 588 185 588 254 q 527 44 588 99 q 369 -10 467 -10 q 173 52 250 -10 q 83 219 96 114 l 111 219 q 187 74 119 132 q 371 15 254 15 q 510 63 460 15 q 560 185 560 110 q 529 280 560 244 q 453 333 499 315 q 332 367 407 350 q 205 403 253 385 q 124 460 157 422 q 92 565 92 499 q 154 707 92 654 q 319 760 217 760 m 400 -82 q 403 -125 403 -107 q 379 -219 403 -193 q 313 -244 356 -244 l 313 -219 q 372 -144 372 -219 l 372 -135 l 329 -135 l 329 -82 l 400 -82 z "},"Ț":{"ha":653,"x_min":28,"x_max":625,"o":"m 625 978 l 625 953 l 340 953 l 340 0 l 313 0 l 313 953 l 28 953 l 28 978 l 625 978 m 358 -82 q 361 -125 361 -107 q 338 -219 361 -193 q 271 -244 314 -244 l 271 -219 q 331 -144 331 -219 l 331 -135 l 288 -135 l 288 -82 l 358 -82 z "},"ț":{"ha":469,"x_min":28,"x_max":414,"o":"m 178 722 l 178 197 q 193 93 178 129 q 242 42 208 57 q 335 28 275 28 l 414 28 l 414 0 l 332 0 q 192 44 235 0 q 150 197 150 89 l 150 722 l 28 722 l 28 750 l 150 750 l 150 942 l 178 942 l 178 750 l 414 750 l 414 722 l 178 722 m 317 -82 q 319 -125 319 -107 q 296 -219 319 -193 q 229 -244 272 -244 l 229 -219 q 289 -144 289 -219 l 289 -135 l 246 -135 l 246 -82 l 317 -82 z "},"ʼ":{"ha":169,"x_min":35,"x_max":128,"o":"m 122 1028 q 128 932 128 974 q 104 847 128 871 q 35 824 81 824 l 35 851 q 83 867 69 851 q 97 914 97 882 l 97 954 l 44 954 l 44 1028 l 122 1028 z "},"ˆ":{"ha":454,"x_min":56,"x_max":399,"o":"m 228 974 l 56 861 l 56 889 l 228 1001 l 399 889 l 399 861 l 228 974 z "},"ˇ":{"ha":454,"x_min":56,"x_max":399,"o":"m 399 969 l 228 857 l 56 969 l 56 997 l 228 885 l 399 997 l 399 969 z "},"ˉ":{"ha":540,"x_min":56,"x_max":485,"o":"m 485 940 l 485 915 l 56 915 l 56 940 l 485 940 z "},"˘":{"ha":439,"x_min":56,"x_max":383,"o":"m 219 856 q 97 899 138 856 q 56 1000 56 943 l 56 1006 l 83 1006 q 119 913 83 946 q 219 881 154 881 q 320 913 285 881 q 356 1006 356 946 l 383 1006 l 383 1000 q 342 899 383 943 q 219 856 301 856 z "},"˙":{"ha":214,"x_min":65,"x_max":149,"o":"m 65 913 q 78 942 65 929 q 107 954 90 954 q 136 942 124 954 q 149 913 149 929 q 136 883 149 896 q 107 871 124 871 q 78 883 90 871 q 65 913 65 896 z "},"˚":{"ha":361,"x_min":56,"x_max":306,"o":"m 181 1104 q 269 1070 233 1104 q 306 979 306 1036 q 269 888 306 922 q 181 854 233 854 q 92 888 128 854 q 56 979 56 922 q 92 1070 56 1036 q 181 1104 128 1104 m 181 1079 q 110 1052 138 1079 q 83 979 83 1025 q 110 906 83 933 q 181 879 138 879 q 251 906 224 879 q 278 979 278 933 q 251 1052 278 1025 q 181 1079 224 1079 z "},"˛":{"ha":365,"x_min":56,"x_max":310,"o":"m 254 -50 l 254 -78 l 215 -78 q 119 -106 154 -78 q 83 -182 83 -133 q 119 -258 83 -231 q 215 -286 154 -286 l 310 -286 l 310 -314 l 215 -314 q 97 -277 138 -314 q 56 -182 56 -240 q 97 -87 56 -124 q 215 -50 138 -50 l 254 -50 z "},"˜":{"ha":431,"x_min":56,"x_max":375,"o":"m 139 931 q 179 922 163 931 q 217 894 196 913 q 252 869 236 878 q 289 861 268 861 q 329 878 313 861 q 350 926 346 896 l 375 926 q 348 863 372 889 q 289 836 324 836 q 246 846 264 836 q 206 874 228 856 q 171 898 185 890 q 139 906 157 906 q 81 839 89 906 l 56 839 q 83 906 61 882 q 139 931 104 931 z "},"˝":{"ha":389,"x_min":56,"x_max":333,"o":"m 83 835 l 56 835 l 139 979 l 171 979 l 83 835 m 239 835 l 211 835 l 301 979 l 333 979 l 239 835 z "},"π":{"ha":1001,"x_min":90,"x_max":911,"o":"m 911 750 l 911 725 l 790 725 l 790 0 l 763 0 l 763 725 l 239 725 l 239 0 l 211 0 l 211 725 l 90 725 l 90 750 l 911 750 z "},"Ẁ":{"ha":1256,"x_min":49,"x_max":1207,"o":"m 1207 978 l 944 0 l 917 0 l 628 928 l 339 0 l 311 0 l 49 978 l 82 978 l 326 60 l 611 978 l 644 978 l 929 60 l 1174 978 l 1207 978 m 619 1069 l 619 1042 l 360 1222 l 360 1256 l 619 1069 z "},"ẁ":{"ha":1115,"x_min":28,"x_max":1088,"o":"m 1088 750 l 851 0 l 831 0 l 557 699 l 285 0 l 264 0 l 28 750 l 58 750 l 276 57 l 546 750 l 569 750 l 839 57 l 1057 750 l 1088 750 m 549 842 l 549 814 l 289 994 l 289 1028 l 549 842 z "},"Ẃ":{"ha":1256,"x_min":49,"x_max":1207,"o":"m 1207 978 l 944 0 l 917 0 l 628 928 l 339 0 l 311 0 l 49 978 l 82 978 l 326 60 l 611 978 l 644 978 l 929 60 l 1174 978 l 1207 978 m 883 1222 l 624 1042 l 624 1069 l 883 1256 l 883 1222 z "},"ẃ":{"ha":1115,"x_min":28,"x_max":1088,"o":"m 1088 750 l 851 0 l 831 0 l 557 699 l 285 0 l 264 0 l 28 750 l 58 750 l 276 57 l 546 750 l 569 750 l 839 57 l 1057 750 l 1088 750 m 813 994 l 553 814 l 553 842 l 813 1028 l 813 994 z "},"Ẅ":{"ha":1256,"x_min":49,"x_max":1207,"o":"m 1207 978 l 944 0 l 917 0 l 628 928 l 339 0 l 311 0 l 49 978 l 82 978 l 326 60 l 611 978 l 644 978 l 929 60 l 1174 978 l 1207 978 m 494 1140 q 506 1169 494 1157 q 536 1182 518 1182 q 565 1169 553 1182 q 578 1140 578 1157 q 565 1111 578 1124 q 536 1099 553 1099 q 506 1111 518 1099 q 494 1140 494 1124 m 681 1140 q 692 1169 681 1157 q 722 1182 704 1182 q 751 1169 739 1182 q 763 1140 763 1157 q 751 1111 763 1124 q 722 1099 739 1099 q 692 1111 704 1099 q 681 1140 681 1124 z "},"ẅ":{"ha":1115,"x_min":28,"x_max":1088,"o":"m 1088 750 l 851 0 l 831 0 l 557 699 l 285 0 l 264 0 l 28 750 l 58 750 l 276 57 l 546 750 l 569 750 l 839 57 l 1057 750 l 1088 750 m 424 913 q 435 942 424 929 q 465 954 447 954 q 494 942 482 954 q 507 913 507 929 q 494 883 507 896 q 465 871 482 871 q 435 883 447 871 q 424 913 424 896 m 610 913 q 622 942 610 929 q 651 954 633 954 q 680 942 668 954 q 692 913 692 929 q 680 883 692 896 q 651 871 668 871 q 622 883 633 871 q 610 913 610 896 z "},"Ẽ":{"ha":665,"x_min":118,"x_max":596,"o":"m 146 953 l 146 501 l 554 501 l 554 476 l 146 476 l 146 25 l 596 25 l 596 0 l 118 0 l 118 978 l 596 978 l 596 953 l 146 953 m 281 1158 q 321 1149 304 1158 q 358 1122 338 1140 q 394 1097 378 1106 q 431 1089 410 1089 q 471 1106 454 1089 q 492 1154 488 1124 l 517 1154 q 490 1090 514 1117 q 431 1064 465 1064 q 388 1074 406 1064 q 347 1101 369 1083 q 313 1126 326 1118 q 281 1133 299 1133 q 222 1067 231 1133 l 197 1067 q 224 1134 203 1110 q 281 1158 246 1158 z "},"ẽ":{"ha":872,"x_min":83,"x_max":789,"o":"m 444 15 q 657 79 571 15 q 761 254 743 143 l 789 254 q 678 63 769 136 q 444 -10 588 -10 q 258 36 340 -10 q 130 169 176 82 q 83 375 83 257 q 130 581 83 493 q 258 714 176 668 q 444 760 340 760 q 632 713 554 760 q 749 593 710 667 q 789 438 789 519 q 783 363 789 396 l 111 363 q 159 169 113 247 q 281 53 206 92 q 444 15 356 15 m 444 735 q 281 697 356 735 q 159 581 206 658 q 111 388 113 503 l 764 388 q 727 581 771 503 q 608 697 683 658 q 444 735 532 735 m 360 931 q 400 922 383 931 q 438 894 417 913 q 473 869 457 878 q 510 861 489 861 q 550 878 533 861 q 571 926 567 896 l 596 926 q 569 863 593 889 q 510 836 544 836 q 467 846 485 836 q 426 874 449 856 q 392 898 406 890 q 360 906 378 906 q 301 839 310 906 l 276 839 q 303 906 282 882 q 360 931 325 931 z "},"Ỳ":{"ha":719,"x_min":42,"x_max":678,"o":"m 678 978 l 375 410 l 375 0 l 347 0 l 347 410 l 42 978 l 75 978 l 360 440 l 644 978 l 678 978 m 351 1069 l 351 1042 l 92 1222 l 92 1256 l 351 1069 z "},"ỳ":{"ha":699,"x_min":28,"x_max":671,"o":"m 58 750 l 361 40 l 640 750 l 671 750 l 243 -353 l 208 -353 l 346 -1 l 28 750 l 58 750 m 340 842 l 340 814 l 81 994 l 81 1028 l 340 842 z "},"Ỹ":{"ha":719,"x_min":42,"x_max":678,"o":"m 678 978 l 375 410 l 375 0 l 347 0 l 347 410 l 42 978 l 75 978 l 360 440 l 644 978 l 678 978 m 283 1158 q 324 1149 307 1158 q 361 1122 340 1140 q 397 1097 381 1106 q 433 1089 413 1089 q 474 1106 457 1089 q 494 1154 490 1124 l 519 1154 q 492 1090 517 1117 q 433 1064 468 1064 q 390 1074 408 1064 q 350 1101 372 1083 q 315 1126 329 1118 q 283 1133 301 1133 q 225 1067 233 1133 l 200 1067 q 227 1134 206 1110 q 283 1158 249 1158 z "},"ỹ":{"ha":699,"x_min":28,"x_max":671,"o":"m 58 750 l 361 40 l 640 750 l 671 750 l 243 -353 l 208 -353 l 346 -1 l 28 750 l 58 750 m 272 931 q 313 922 296 931 q 350 894 329 913 q 385 869 369 878 q 422 861 401 861 q 463 878 446 861 q 483 926 479 896 l 508 926 q 481 863 506 889 q 422 836 457 836 q 379 846 397 836 q 339 874 361 856 q 304 898 318 890 q 272 906 290 906 q 214 839 222 906 l 189 839 q 216 906 194 882 q 272 931 238 931 z "},"–":{"ha":807,"x_min":56,"x_max":751,"o":"m 751 540 l 751 515 l 56 515 l 56 540 l 751 540 z "},"—":{"ha":1061,"x_min":56,"x_max":1006,"o":"m 1006 540 l 1006 515 l 56 515 l 56 540 l 1006 540 z "},"‘":{"ha":169,"x_min":42,"x_max":135,"o":"m 47 824 q 42 919 42 878 q 65 1004 42 981 q 135 1028 89 1028 l 135 1000 q 86 985 100 1000 q 72 938 72 969 l 72 897 l 125 897 l 125 824 l 47 824 z "},"’":{"ha":169,"x_min":35,"x_max":128,"o":"m 122 1028 q 128 932 128 974 q 104 847 128 871 q 35 824 81 824 l 35 851 q 83 867 69 851 q 97 914 97 882 l 97 954 l 44 954 l 44 1028 l 122 1028 z "},"‚":{"ha":192,"x_min":35,"x_max":125,"o":"m 122 43 q 125 -3 125 10 q 35 -119 125 -119 l 35 -94 q 94 -19 94 -94 l 94 -10 l 51 -10 l 51 43 l 122 43 z "},"“":{"ha":289,"x_min":42,"x_max":254,"o":"m 47 824 q 42 919 42 878 q 65 1004 42 981 q 135 1028 89 1028 l 135 1000 q 86 985 100 1000 q 72 938 72 969 l 72 897 l 125 897 l 125 824 l 47 824 m 167 824 q 161 919 161 878 q 185 1004 161 981 q 254 1028 208 1028 l 254 1000 q 206 985 219 1000 q 192 938 192 969 l 192 897 l 244 897 l 244 824 l 167 824 z "},"”":{"ha":289,"x_min":35,"x_max":247,"o":"m 122 1028 q 128 932 128 974 q 104 847 128 871 q 35 824 81 824 l 35 851 q 83 867 69 851 q 97 914 97 882 l 97 954 l 44 954 l 44 1028 l 122 1028 m 242 1028 q 247 932 247 974 q 224 847 247 871 q 154 824 200 824 l 154 851 q 203 867 189 851 q 217 914 217 882 l 217 954 l 164 954 l 164 1028 l 242 1028 z "},"„":{"ha":289,"x_min":35,"x_max":247,"o":"m 122 74 q 128 -22 128 19 q 104 -107 128 -83 q 35 -131 81 -131 l 35 -103 q 83 -87 69 -103 q 97 -40 97 -72 l 97 0 l 44 0 l 44 74 l 122 74 m 242 74 q 247 -22 247 19 q 224 -107 247 -83 q 154 -131 200 -131 l 154 -103 q 203 -87 189 -103 q 217 -40 217 -72 l 217 0 l 164 0 l 164 74 l 242 74 z "},"†":{"ha":596,"x_min":42,"x_max":554,"o":"m 554 722 l 308 726 l 311 -353 l 286 -353 l 288 726 l 42 722 l 42 750 l 288 746 l 286 1075 l 311 1075 l 308 746 l 554 750 l 554 722 z "},"‡":{"ha":597,"x_min":42,"x_max":556,"o":"m 310 726 l 310 -4 l 556 1 l 556 -28 l 310 -24 l 311 -353 l 286 -353 l 289 -24 l 42 -28 l 42 1 l 289 -4 l 289 726 l 42 722 l 42 750 l 289 746 l 286 1075 l 311 1075 l 310 746 l 556 750 l 556 722 l 310 726 z "},"•":{"ha":356,"x_min":42,"x_max":314,"o":"m 42 463 q 81 560 42 519 q 178 600 121 600 q 274 560 235 600 q 314 463 314 519 q 274 367 314 406 q 178 328 235 328 q 81 367 121 328 q 42 463 42 407 z "},"…":{"ha":560,"x_min":43,"x_max":515,"o":"m 314 68 l 314 0 l 244 0 l 244 68 l 314 68 m 515 68 l 515 0 l 446 0 l 446 68 l 515 68 m 113 68 l 113 0 l 43 0 l 43 68 l 113 68 z "},"‰":{"ha":1151,"x_min":56,"x_max":1096,"o":"m 232 988 q 358 937 308 988 q 408 808 408 886 q 358 680 408 731 q 232 629 308 629 q 106 680 156 629 q 56 808 56 731 q 106 937 56 886 q 232 988 156 988 m 676 978 l 89 0 l 57 0 l 644 978 l 676 978 m 83 808 q 125 698 83 742 q 232 654 167 654 q 339 698 297 654 q 381 808 381 742 q 339 919 381 875 q 232 963 297 963 q 125 919 167 963 q 83 808 83 875 m 503 347 q 629 297 579 347 q 679 168 679 246 q 629 40 679 90 q 503 -11 579 -11 q 376 40 426 -11 q 326 168 326 90 q 376 297 326 246 q 503 347 426 347 m 919 347 q 1046 297 996 347 q 1096 168 1096 246 q 1046 40 1096 90 q 919 -11 996 -11 q 793 40 843 -11 q 743 168 743 90 q 793 297 743 246 q 919 347 843 347 m 354 168 q 396 58 354 101 q 503 14 438 14 q 610 58 568 14 q 651 168 651 101 q 610 278 651 235 q 503 322 568 322 q 396 278 438 322 q 354 168 354 235 m 771 168 q 813 58 771 101 q 919 14 854 14 q 1026 58 985 14 q 1068 168 1068 101 q 1026 278 1068 235 q 919 322 985 322 q 813 278 854 322 q 771 168 771 235 z "},"‹":{"ha":318,"x_min":63,"x_max":249,"o":"m 211 167 l 63 410 l 211 653 l 249 653 l 97 410 l 249 167 l 211 167 z "},"›":{"ha":318,"x_min":69,"x_max":256,"o":"m 222 410 l 69 653 l 108 653 l 256 410 l 108 167 l 69 167 l 222 410 z "},"⁄":{"ha":288,"x_min":-167,"x_max":454,"o":"m 454 978 l -133 0 l -167 0 l 421 978 l 454 978 z "},"€":{"ha":1163,"x_min":28,"x_max":1079,"o":"m 633 15 q 900 90 793 15 q 1051 288 1007 164 l 1079 288 q 916 69 1028 147 q 633 -10 804 -10 q 433 35 524 -10 q 279 161 342 79 q 193 351 217 243 l 28 351 l 28 376 l 188 376 q 178 488 178 425 q 183 574 178 536 l 28 574 l 28 599 l 188 599 q 270 802 208 714 q 426 939 332 890 q 633 988 519 988 q 916 908 804 988 q 1079 689 1028 829 l 1051 689 q 900 888 1007 813 q 633 963 793 963 q 443 919 531 963 q 297 793 356 875 q 217 599 238 711 l 636 599 l 636 574 l 213 574 q 207 488 207 536 q 217 376 207 425 l 636 376 l 636 351 l 222 351 q 306 172 246 247 q 450 56 365 96 q 633 15 535 15 z "},"₺":{"ha":1068,"x_min":90,"x_max":978,"o":"m 978 529 q 858 110 978 256 q 493 -36 738 -36 q 360 -19 426 -36 l 360 356 l 90 278 l 90 306 l 360 383 l 360 589 l 90 508 l 90 536 l 360 617 l 360 978 l 388 978 l 388 625 l 693 717 l 693 689 l 388 597 l 388 392 l 693 481 l 693 453 l 388 364 l 388 0 q 493 -11 443 -11 q 834 124 718 -11 q 950 529 950 260 l 978 529 z "},"₽":{"ha":817,"x_min":90,"x_max":761,"o":"m 229 440 l 229 249 l 610 249 l 610 224 l 229 224 l 229 0 l 201 0 l 201 224 l 90 224 l 90 249 l 201 249 l 201 440 l 90 440 l 90 469 l 201 469 l 201 978 l 449 978 q 685 907 610 978 q 761 708 761 836 q 682 507 761 574 q 449 440 603 440 l 229 440 m 229 469 l 449 469 q 666 532 599 469 q 733 708 733 594 q 667 889 733 828 q 449 950 600 950 l 229 950 l 229 469 z "},"ℓ":{"ha":236,"x_min":118,"x_max":146,"o":"m 146 1028 l 146 0 l 118 0 l 118 1028 l 146 1028 z "},"™":{"ha":957,"x_min":42,"x_max":901,"o":"m 42 978 l 361 978 l 361 950 l 217 950 l 217 489 l 189 489 l 189 950 l 42 950 l 42 978 m 901 978 l 901 489 l 874 489 l 874 910 l 681 489 l 653 489 l 460 910 l 460 489 l 432 489 l 432 978 l 460 978 l 667 526 l 874 978 l 901 978 z "},"Ω":{"ha":1103,"x_min":69,"x_max":1033,"o":"m 551 988 q 794 924 685 988 q 969 747 904 861 q 1033 489 1033 633 q 997 284 1033 379 q 890 124 960 189 q 729 35 821 58 l 729 25 l 1006 25 l 1006 0 l 618 0 l 618 31 q 819 99 731 40 q 956 259 907 158 q 1006 489 1006 360 q 945 735 1006 628 q 781 903 885 843 q 551 963 676 963 q 319 901 424 963 q 156 732 215 840 q 96 489 96 624 q 146 259 96 360 q 283 99 196 158 q 483 31 371 40 l 483 0 l 96 0 l 96 25 l 372 25 l 372 35 q 212 124 281 58 q 106 284 143 189 q 69 489 69 379 q 133 747 69 633 q 308 924 197 861 q 551 988 418 988 z "},"℮":{"ha":1072,"x_min":81,"x_max":993,"o":"m 549 -10 q 308 44 414 -10 q 141 203 201 99 q 81 453 81 307 q 134 709 81 594 q 290 890 188 824 q 536 957 393 957 q 781 895 678 957 q 939 732 885 833 q 993 514 993 631 l 993 431 l 199 431 l 199 211 q 342 72 260 117 q 549 26 424 26 q 733 74 651 26 q 921 225 815 122 l 954 193 q 549 -10 765 -10 m 853 747 q 723 874 804 829 q 536 918 642 918 q 340 871 428 918 q 199 728 253 824 l 199 490 l 853 490 l 853 747 z "},"∂":{"ha":736,"x_min":60,"x_max":676,"o":"m 414 767 q 653 482 640 767 q 654 554 654 507 q 594 885 654 767 q 386 1003 533 1003 q 269 985 335 1003 l 269 1013 q 386 1028 326 1028 q 601 922 526 1028 q 676 582 676 815 q 629 266 676 401 q 495 57 582 131 q 296 -17 408 -17 q 126 58 193 -17 q 60 276 60 133 q 100 513 60 400 q 221 696 140 625 q 414 767 301 767 m 414 742 q 244 681 318 742 q 128 513 169 619 q 88 276 88 407 q 147 78 88 144 q 296 11 206 11 q 474 74 397 11 q 591 240 550 136 q 632 465 632 344 q 414 742 632 742 z "},"∆":{"ha":878,"x_min":28,"x_max":850,"o":"m 451 949 l 850 25 l 850 0 l 28 0 l 28 25 l 425 949 l 451 949 m 54 25 l 824 25 l 436 917 l 54 25 z "},"∏":{"ha":1015,"x_min":90,"x_max":925,"o":"m 925 978 l 925 953 l 804 953 l 804 0 l 776 0 l 776 953 l 239 953 l 239 0 l 211 0 l 211 953 l 90 953 l 90 978 l 925 978 z "},"∑":{"ha":536,"x_min":56,"x_max":550,"o":"m 550 924 l 83 924 l 463 429 l 463 403 l 83 -92 l 550 -92 l 550 -117 l 56 -117 l 56 -89 l 443 414 l 56 921 l 56 949 l 550 949 l 550 924 z "},"−":{"ha":617,"x_min":56,"x_max":561,"o":"m 561 540 l 561 515 l 56 515 l 56 540 l 561 540 z "},"∕":{"ha":499,"x_min":42,"x_max":457,"o":"m 457 1299 l 69 -217 l 42 -217 l 426 1299 l 457 1299 z "},"∙":{"ha":157,"x_min":43,"x_max":113,"o":"m 113 533 l 113 465 l 43 465 l 43 533 l 113 533 z "},"√":{"ha":917,"x_min":19,"x_max":888,"o":"m 888 1163 l 254 -64 l 247 -64 l 104 185 l 33 146 l 19 169 l 113 219 l 250 -19 l 860 1163 l 888 1163 z "},"∞":{"ha":800,"x_min":21,"x_max":824,"o":"m 644 660 q 775 613 726 660 q 824 483 824 565 q 772 353 824 401 q 639 306 719 306 q 518 347 567 306 q 417 464 469 388 q 200 306 333 306 q 69 353 118 306 q 21 482 21 400 q 73 612 21 564 q 206 660 125 660 q 292 638 254 660 q 359 583 331 615 q 425 497 388 551 q 644 660 511 660 m 200 333 q 401 485 315 333 q 309 597 351 558 q 206 635 267 635 q 90 592 132 635 q 49 482 49 550 q 88 374 49 414 q 200 333 126 333 m 639 331 q 754 373 713 331 q 796 483 796 415 q 757 592 796 551 q 644 632 718 632 q 440 475 528 632 q 534 367 490 404 q 639 331 578 331 z "},"∫":{"ha":325,"x_min":-40,"x_max":386,"o":"m 226 1117 q 264 1213 235 1181 q 353 1244 293 1244 l 386 1244 l 383 1219 l 353 1219 q 284 1197 308 1219 q 253 1117 260 1175 l 119 -47 q 103 -126 114 -97 q 69 -172 93 -156 q 0 -189 46 -189 l -40 -189 l -37 -164 l 1 -164 q 53 -154 36 -164 q 78 -121 69 -144 q 93 -47 88 -97 l 226 1117 z "},"≈":{"ha":572,"x_min":56,"x_max":517,"o":"m 179 494 q 235 483 210 494 q 296 446 260 471 q 350 413 329 424 q 397 401 371 401 q 456 428 432 401 q 489 494 481 456 l 517 494 q 474 405 506 438 q 393 372 443 372 q 337 385 361 372 q 278 421 313 397 q 223 454 244 443 q 175 465 201 465 q 116 438 140 465 q 83 372 92 411 l 56 372 q 98 462 67 429 q 179 494 129 494 m 179 738 q 235 726 210 738 q 296 689 260 714 q 350 656 329 667 q 397 644 371 644 q 456 672 432 644 q 489 738 481 699 l 517 738 q 474 648 506 681 q 393 615 443 615 q 337 628 361 615 q 278 664 313 640 q 223 697 244 686 q 175 708 201 708 q 116 681 140 708 q 83 615 92 654 l 56 615 q 98 705 67 672 q 179 738 129 738 z "},"≠":{"ha":783,"x_min":56,"x_max":728,"o":"m 494 639 l 322 418 l 728 418 l 728 393 l 303 393 l 185 240 l 153 240 l 271 393 l 56 393 l 56 418 l 290 418 l 461 639 l 56 639 l 56 664 l 481 664 l 599 817 l 632 817 l 514 664 l 728 664 l 728 639 l 494 639 z "},"≤":{"ha":544,"x_min":56,"x_max":489,"o":"m 442 310 l 56 583 l 442 858 l 481 858 l 100 583 l 481 310 l 442 310 m 489 265 l 489 240 l 58 240 l 58 265 l 489 265 z "},"≥":{"ha":544,"x_min":56,"x_max":489,"o":"m 64 310 l 446 583 l 64 858 l 103 858 l 489 583 l 103 310 l 64 310 m 56 265 l 486 265 l 486 240 l 56 240 l 56 265 z "},"◊":{"ha":756,"x_min":69,"x_max":686,"o":"m 686 482 l 376 174 l 69 482 l 379 792 l 686 482 m 122 482 l 376 225 l 635 482 l 379 740 l 122 482 z "},"ﬁ":{"ha":686,"x_min":31,"x_max":606,"o":"m 178 750 l 582 750 l 582 0 l 554 0 l 554 721 l 178 721 l 178 0 l 150 0 l 150 721 l 31 721 l 31 750 l 150 750 l 150 803 q 206 972 150 917 q 393 1028 261 1028 l 393 1000 q 225 953 272 1000 q 178 803 178 907 l 178 750 m 569 1017 q 595 1006 585 1017 q 606 979 606 996 q 595 952 606 963 q 569 942 585 942 q 544 952 554 942 q 533 979 533 963 q 544 1006 533 996 q 569 1017 554 1017 z "},"ﬂ":{"ha":686,"x_min":28,"x_max":596,"o":"m 393 1000 q 225 953 272 1000 q 178 803 178 907 l 178 750 l 393 750 l 393 721 l 178 721 l 178 0 l 150 0 l 150 721 l 28 721 l 28 750 l 150 750 l 150 803 q 206 972 150 917 q 393 1028 261 1028 l 393 1000 m 596 1028 l 596 0 l 568 0 l 568 1028 l 596 1028 z "}}}
